<?xml version="1.0" encoding="utf-8"?>
<!-- Generator: Adobe Illustrator 23.0.2, SVG Export Plug-In . SVG Version: 6.00 Build 0)  -->
<svg version="1.1" xmlns="http://www.w3.org/2000/svg" xmlns:xlink="http://www.w3.org/1999/xlink" x="0px" y="0px"
	 viewBox="0 0 900 900" style="enable-background:new 0 0 900 900;" xml:space="preserve">
<style type="text/css">
	.st0{fill:#669999;}
	.st1{fill:#FFE6A9;}
	.st2{fill:none;stroke:#F17B7F;stroke-width:4.0438;stroke-linecap:round;stroke-linejoin:round;stroke-miterlimit:10;}
	.st3{fill:#FDB93F;}
	.st4{fill:#EFA224;}
	.st5{fill:#F58345;}
	.st6{fill:none;stroke:#F9BB98;stroke-width:2.7267;stroke-linecap:round;stroke-linejoin:round;stroke-miterlimit:10;}
	.st7{fill:#FFFFFF;}
	.st8{fill:#BB3838;}
	.st9{fill:#F89938;}
	.st10{fill:#CCCCCB;}
	.st11{fill:#414042;}
	.st12{fill:#B89BC9;}
	.st13{fill:none;stroke:#FFE6A9;stroke-width:4.4127;stroke-linecap:round;stroke-linejoin:round;stroke-miterlimit:10;}
	.st14{fill:#FFE6A9;stroke:#FFE6A9;stroke-width:4.4127;stroke-linecap:round;stroke-linejoin:round;stroke-miterlimit:10;}
	.st15{fill:#D67B2B;}
	.st16{fill:#72C8F1;}
	.st17{fill:#8BCFB7;}
	.st18{fill:#C878B1;}
	.st19{opacity:0.8;fill:none;stroke:#FFFFFF;stroke-width:16;stroke-linecap:round;stroke-miterlimit:10;}
	.st20{opacity:0.8;fill:none;stroke:#FFFFFF;stroke-width:10.0768;stroke-linecap:round;stroke-miterlimit:10;}
	.st21{opacity:0.8;fill:none;stroke:#FFFFFF;stroke-width:4.4054;stroke-linecap:round;stroke-miterlimit:10;}
	.st22{fill:#CCCCCB;stroke:#ABABAB;stroke-width:12;stroke-linecap:round;stroke-miterlimit:10;}
	.st23{fill:#EFA225;}
	.st24{fill:#F2696A;}
	.st25{fill:#F49351;}
	.st26{fill:#EA833C;}
	.st27{fill:none;stroke:#FFE6A9;stroke-width:5.4444;stroke-linecap:round;stroke-linejoin:round;stroke-miterlimit:10;}
	.st28{fill:#F9BB97;stroke:#F9BB98;stroke-width:2.7267;stroke-linecap:round;stroke-linejoin:round;stroke-miterlimit:10;}
	.st29{display:none;}
	.st30{display:inline;fill:#A4DBF7;}
	.st31{fill:#A9D9BC;}
	.st32{fill:#A9D9BC;stroke:#414042;stroke-width:5;stroke-miterlimit:10;}
	.st33{fill:none;stroke:#414042;stroke-width:5;stroke-miterlimit:10;}
	.st34{fill:#F17B7F;}
	.st35{fill:#FFCC66;}
	.st36{fill:#A8D48C;}
	.st37{fill:#333333;stroke:#333333;stroke-width:7;stroke-miterlimit:10;}
</style>
<g id="COLOR">
	<circle class="st0" cx="448.2" cy="448.4" r="330.7"/>
	<g>
		<polygon class="st1" points="440.5,454.7 370.6,126.9 404.1,120.6 461.1,117.6 492.5,120.6 503.4,122.2 		"/>
		<polygon class="st1" points="442.1,451 624.4,169.7 652.6,189 695,227.1 715.1,251.4 721.6,260.3 		"/>
		<polygon class="st1" points="442.7,451.9 770.5,382 776.9,415.5 779.9,472.5 776.9,503.9 775.2,514.8 		"/>
		<polygon class="st1" points="445.8,447.4 727,629.7 707.8,657.9 669.6,700.3 645.3,720.4 636.4,726.9 		"/>
		<polygon class="st1" points="444.1,454.9 162.9,272.6 182.1,244.4 220.3,202 244.6,181.9 253.5,175.4 		"/>
		<polygon class="st1" points="450.6,452.8 122.8,522.8 116.5,489.3 113.5,432.3 116.4,400.9 118.1,390 		"/>
		<polygon class="st1" points="450,447.8 267.7,729.1 239.5,709.8 197.1,671.7 177,647.4 170.4,638.5 		"/>
	</g>
	<g>
		<g>
			<g>
				<line class="st2" x1="252.1" y1="451.5" x2="252.1" y2="479.7"/>
				<line class="st2" x1="252.1" y1="441.4" x2="252.1" y2="444.1"/>
			</g>
			<g>
				<line class="st2" x1="218.7" y1="484.5" x2="247" y2="484.5"/>
				<line class="st2" x1="208.6" y1="484.5" x2="211.3" y2="484.5"/>
			</g>
			<g>
				<line class="st2" x1="285.3" y1="484.5" x2="257.1" y2="484.5"/>
				<line class="st2" x1="295.4" y1="484.5" x2="292.8" y2="484.5"/>
			</g>
			<g>
				<line class="st2" x1="252.1" y1="517.2" x2="252.1" y2="489"/>
				<line class="st2" x1="252.1" y1="527.3" x2="252.1" y2="524.6"/>
			</g>
		</g>
		<g>
			<line class="st2" x1="226.4" y1="458.7" x2="246.4" y2="478.7"/>
			<line class="st2" x1="219.3" y1="451.5" x2="221.2" y2="453.4"/>
		</g>
		<g>
			<line class="st2" x1="226.4" y1="510.4" x2="246.4" y2="490.4"/>
			<line class="st2" x1="219.3" y1="517.5" x2="221.2" y2="515.6"/>
		</g>
		<g>
			<line class="st2" x1="278.2" y1="459.2" x2="258.2" y2="479.2"/>
			<line class="st2" x1="285.3" y1="452" x2="283.4" y2="453.9"/>
		</g>
		<g>
			<line class="st2" x1="277.6" y1="509.9" x2="257.6" y2="489.9"/>
			<line class="st2" x1="284.8" y1="517" x2="282.9" y2="515.1"/>
		</g>
	</g>
	<polygon class="st3" points="331.5,686.1 317.1,619.5 300.4,539.2 297.4,470.9 300.9,424.8 312.9,380.4 327.2,366.7 349,351 
		386.6,333.9 442.3,319.1 475.2,314.3 511.1,317.5 529.5,325.7 540.1,336.9 550.7,355.9 561.5,378.9 571.7,405.6 578.6,428.2 
		578.2,445.7 572.5,457.8 521.1,505.4 536,538.3 546.1,532 556.4,530.7 559.6,535 567.1,542.3 564.3,559.2 556.3,574.5 570.9,612.8 
		531.1,630 489,647.7 442.4,667.2 404.2,678.1 363.9,687.8 342.7,689.8 332.4,690.9 	"/>
	<g>
		<g>
			<g>
				<path class="st4" d="M301,609.3c0.3,33.1,19.7,65,49.4,79.9c1.7-6.2,3.4-12.4,5-18.6c-5.1-0.2-12.7,0.2-15.9-4.5
					c-2.3-3.3-3-8-4.2-11.8c-1.3-4.3-2.6-8.7-3.8-13c-5.3-18.6-10-37.5-14-56.4c-1.1-5.3-7.3-8.4-12.3-7c-5.7,1.6-7.8,6.9-7,12.3
					c4.3,28.7,9.8,58.3,29.9,80.6c9.4,10.4,21.7,17.8,35.3,21.2c14.3,3.5,29.1,3.2,43.7,2.6c12.8-0.5,12.9-20.5,0-20
					c-12.5,0.5-25.3,1.2-37.6-1.7c-11.4-2.7-20.7-8.6-28.3-17.4c-16.6-19.2-20.1-46.4-23.8-70.6c-6.4,1.8-12.9,3.5-19.3,5.3
					c4.7,22.1,10.3,44,16.7,65.7c2.8,9.3,5,20.2,12.7,26.8c7.8,6.6,17.9,7.7,27.7,8c9.7,0.3,14-14.2,5-18.6
					c-23.6-11.8-39.2-36.1-39.5-62.6C320.9,596.4,300.9,596.4,301,609.3L301,609.3z"/>
			</g>
		</g>
		<g>
			<g>
				<path class="st4" d="M464.3,454.5c2.1,2.9,4.4,5.5,7.1,7.7c1.5,1.2,3,2.3,5,2.3c2.2,0,4.2-1.6,5.9-2.8c5.4-3.4,0.4-12.1-5-8.6
					c-1.1,0.7-2.2,1.5-3.4,2.1c1.3-0.2,2.6-0.3,3.9-0.5c0.5,0.1,0.1,0-0.5-0.5c-0.6-0.5-1.1-1-1.7-1.6c-1-1-1.9-2-2.7-3.1
					c-1.6-2.2-4.3-3.3-6.8-1.8C463.9,448.9,462.7,452.3,464.3,454.5L464.3,454.5z"/>
			</g>
		</g>
		<g>
			<g>
				<path class="st4" d="M492.8,452.3c3.4,2.4,7.4,5.3,11.6,6c4.3,0.8,7.7-1.5,10.9-4.1c4.9-4.2-2.2-11.2-7.1-7.1
					c-1.7,1.5-2,1.6-4,0.5c-2.2-1.2-4.3-2.5-6.3-4C492.5,440,487.5,448.7,492.8,452.3L492.8,452.3z"/>
			</g>
		</g>
		<g>
			<g>
				<path class="st4" d="M525.1,445.2c6.1,4.1,13.8,4.5,19.7-0.1c2.1-1.7,1.7-5.3,0-7.1c-2.1-2.1-4.9-1.7-7.1,0
					c-2.1,1.6-5.8-0.3-7.6-1.4C524.8,433,519.8,441.6,525.1,445.2L525.1,445.2z"/>
			</g>
		</g>
		<g>
			<g>
				<path class="st4" d="M551.9,439.4c2.2,1.7,4.7,3.1,7.5,3.1c2.9,0.1,5.4-1.2,7.7-2.8c2.2-1.6,3.2-4.4,1.8-6.8
					c-1.3-2.2-4.6-3.4-6.8-1.8c-0.5,0.3-1.8,1.5-2.3,1.5c-0.7,0-2.2-1.3-2.8-1.8c-2.2-1.6-5.6-0.3-6.8,1.8
					C548.6,435.1,549.7,437.7,551.9,439.4L551.9,439.4z"/>
			</g>
		</g>
	</g>
	<circle class="st5" cx="404.1" cy="463.5" r="37.5"/>
	<g>
		<g>
			<g>
				<line class="st6" x1="631.2" y1="434.9" x2="631.2" y2="454"/>
				<line class="st6" x1="631.2" y1="428.1" x2="631.2" y2="429.9"/>
			</g>
			<g>
				<line class="st6" x1="608.6" y1="457.2" x2="627.7" y2="457.2"/>
				<line class="st6" x1="601.8" y1="457.2" x2="603.7" y2="457.2"/>
			</g>
			<g>
				<line class="st6" x1="653.6" y1="457.2" x2="634.5" y2="457.2"/>
				<line class="st6" x1="660.4" y1="457.2" x2="658.6" y2="457.2"/>
			</g>
			<g>
				<line class="st6" x1="631.2" y1="479.3" x2="631.2" y2="460.2"/>
				<line class="st6" x1="631.2" y1="486.1" x2="631.2" y2="484.3"/>
			</g>
		</g>
		<g>
			<line class="st6" x1="613.8" y1="439.8" x2="627.3" y2="453.3"/>
			<line class="st6" x1="609" y1="435" x2="610.3" y2="436.3"/>
		</g>
		<g>
			<line class="st6" x1="613.8" y1="474.7" x2="627.3" y2="461.2"/>
			<line class="st6" x1="609" y1="479.5" x2="610.3" y2="478.2"/>
		</g>
		<g>
			<line class="st6" x1="648.8" y1="440.1" x2="635.3" y2="453.6"/>
			<line class="st6" x1="653.6" y1="435.3" x2="652.3" y2="436.6"/>
		</g>
		<g>
			<line class="st6" x1="648.4" y1="474.3" x2="634.9" y2="460.8"/>
			<line class="st6" x1="653.2" y1="479.1" x2="651.9" y2="477.8"/>
		</g>
	</g>
	<polygon class="st7" points="467.1,450 491.2,444.7 505.6,441.5 558.7,429.9 577.7,424.8 569.2,434.1 564.3,438.1 555.9,435.8 
		550.2,433.1 544.1,443 536.9,443.1 524.5,438.9 513.3,453.3 501.7,451.6 493.9,445.7 488.5,452.8 482.8,460.7 476.1,459.5 	"/>
	<polygon class="st8" points="258.5,673.6 281.3,684.7 303.7,688.7 314.4,673.1 321.2,661.4 300.7,649.2 283.2,633.4 280.5,622.3 
		302.2,594.7 277.2,572.9 271.9,572.2 247.8,604.9 241.7,635.7 246.5,655.7 	"/>
	<polygon class="st8" points="630.2,709.9 625.5,737.7 614.3,757.2 623.2,760.2 657.6,755.6 688.5,739.3 707.4,726 704.4,721.9 
		657.6,709.1 	"/>
	<polygon class="st9" points="638.6,597.3 643.9,588.6 652.3,582 664.7,576.8 665.6,571.6 671.9,566.6 679,564.9 674.8,556.8 
		679.5,552.9 684.7,533.9 689.3,521.5 695,518.4 695.7,513.3 701,511.3 702.1,503.7 708.3,494.3 711.8,502.4 711.7,512.9 
		715.7,520.3 719.8,525.4 716.5,552.9 726.7,577.9 730.4,589.4 743.6,602.3 716.9,639 697.8,614.2 666.2,599 	"/>
	<path class="st10" d="M603.8,537l-15.2-12.6l-6.3-24.9l7.2-17.7l11.3-21L615,453l19.9,7.8c2.6,2.8,5.1,5.6,7.7,8.3
		c2.1,2.3,4.3,4.6,6.4,7c-0.7,9.8-1.4,19.6-2.1,29.4l-12.1,24.1l-20.6,9.3L603.8,537z"/>
	<polygon class="st11" points="596.1,600.2 596.5,580 604.8,569.9 612.9,574.7 611.7,599.8 	"/>
	<polygon class="st12" points="589.7,540.4 591.2,552.7 596.3,561.3 604.4,559.3 608.6,547.1 602.4,535.4 	"/>
	<polygon class="st12" points="617.3,543 629.6,559.9 628.2,581.4 612.9,574.7 604.4,559.3 611.2,543 	"/>
	<g>
		<g>
			<line class="st13" x1="710" y1="335.9" x2="710" y2="366.8"/>
		</g>
		<g>
			<line class="st13" x1="671" y1="376.1" x2="701.8" y2="376.1"/>
		</g>
		<g>
			<line class="st13" x1="750" y1="376.1" x2="719.2" y2="376.1"/>
		</g>
		<g>
			<line class="st13" x1="710" y1="416" x2="710" y2="385.2"/>
		</g>
		<g>
			<line class="st13" x1="682" y1="348" x2="703.8" y2="369.8"/>
		</g>
		<g>
			<line class="st13" x1="682" y1="404.4" x2="703.8" y2="382.6"/>
		</g>
		<g>
			<line class="st13" x1="738.5" y1="348.5" x2="716.7" y2="370.4"/>
		</g>
		<g>
			<line class="st13" x1="737.9" y1="403.9" x2="716.1" y2="382.1"/>
		</g>
		<circle class="st14" cx="710.1" cy="376.1" r="2.6"/>
	</g>
	<g>
		<g>
			<g>
				<g>
					<path class="st15" d="M721.2,568.3c0.2-1.6,0.4-3.2,0.6-4.7c0.2-1.4,0.2-2.6-0.5-3.9c-0.6-1-1.8-2-3-2.3
						c-2.6-0.6-5.5,0.8-6.2,3.5c-0.5,2-1,4-0.8,6.1c0.2,2.6,2.2,5.1,5,5c2.5-0.1,5.2-2.2,5-5c0-0.3,0-0.7,0-1c0-0.2,0-0.5,0.1-0.7
						c-0.1,0.7-0.1,0.9-0.1,0.5c0.2-0.7,0.3-1.5,0.5-2.2c-3.2-0.9-6.4-1.8-9.6-2.7c-0.2,1.6-0.4,3.2-0.6,4.7
						c-0.2,1.4-0.2,2.6,0.5,3.9c0.6,1,1.8,2,3,2.3c1.3,0.3,2.7,0.2,3.9-0.5C719.9,570.6,721,569.5,721.2,568.3z"/>
				</g>
			</g>
			<g>
				<g>
					<path class="st15" d="M714.2,545.6c-0.7,5.1-1.4,10.2-2.1,15.3c-0.4,2.7,0.6,5.4,3.5,6.2c2.5,0.7,5.5-0.9,6.2-3.5
						c1.3-5.4,2-11,2.2-16.6c0.3-6.4-9.8-6.4-10,0c-0.2,4.7-0.8,9.4-1.9,14c3.2,0.9,6.4,1.8,9.6,2.7c0.7-5.1,1.4-10.2,2.1-15.3
						c0.4-2.7-0.6-5.4-3.5-6.2C718.1,541.4,714.6,542.9,714.2,545.6z"/>
				</g>
			</g>
			<g>
				<g>
					<path class="st15" d="M719.5,524.2c-1.4-2.4-2.9-4.1-5.1-5.7c-4.6-3.2-8.6,2.8-6.8,6.8c2.5,5.7,5,11.4,7.5,17.1
						c1.9,4.4,9.9,2.3,9.3-2.5C723.7,534.3,722.2,529.2,719.5,524.2c-3-5.7-11.7-0.6-8.6,5c1.8,3.3,3,6.9,3.5,10.7
						c3.1-0.8,6.2-1.7,9.3-2.5c-2.5-5.7-5-11.4-7.5-17.1c-2.3,2.3-4.6,4.6-6.8,6.8c0.7,0.5,1.1,1.3,1.5,2.1
						C714.1,534.8,722.8,529.7,719.5,524.2z"/>
				</g>
			</g>
			<g>
				<g>
					<path class="st15" d="M712,571.2c2.4,4.4,4.8,8.8,7.3,13.1c2.7,4.8,11.2,1.5,9.1-3.9c-2-5.1-4.5-9.9-7.8-14.3
						c-1.6-2.2-4.3-3.3-6.8-1.8C711.7,565.6,710.4,569,712,571.2c2.7,3.7,5.1,7.7,6.8,11.9c3-1.3,6.1-2.6,9.1-3.9
						c-2.4-4.4-4.8-8.8-7.3-13.1C717.5,560.5,708.9,565.6,712,571.2z"/>
				</g>
			</g>
			<g>
				<g>
					<path class="st15" d="M727.9,579.4C727.9,579.3,727.9,579.3,727.9,579.4c-1.2-2.2-4-3-6.3-2.1c-1,0.4-1.9,1.1-2.4,2
						c-0.6,1.1-1,2.6-0.5,3.9c0.1,0.2,0.2,0.4,0.2,0.6c0.5,1.2,1.1,2.3,2.3,3c1.1,0.6,2.7,0.9,3.9,0.5c1.2-0.4,2.4-1.1,3-2.3
						c0.6-1.1,1-2.6,0.5-3.9c-0.1-0.2-0.1-0.4-0.2-0.6c-0.5-1.2-1.1-2.3-2.3-3c-1.1-0.6-2.7-0.9-3.9-0.5c-1.2,0.4-2.4,1.1-3,2.3
						c-0.6,1.1-1,2.6-0.5,3.9c0.1,0.2,0.1,0.4,0.2,0.6c3.2-0.9,6.4-1.8,9.6-2.7c-0.1-0.2-0.2-0.4-0.2-0.6c-3,1.3-6.1,2.6-9.1,3.9
						c0,0,0,0,0,0.1c0.6,1.1,1.8,2,3,2.3c1.2,0.3,2.8,0.2,3.9-0.5C728.5,584.7,729.3,581.8,727.9,579.4z"/>
				</g>
			</g>
			<g>
				<g>
					<path class="st15" d="M736.4,594.7c-2-2-4.1-4.1-6.1-6.1c-4-4-10.8,1.1-7.9,6.1c3.1,5,2.3,10.9,1.4,16.5
						c-0.5,3.4,2.2,7.6,6.2,6.2c5.2-1.9,9.9-5.3,11-10.9c1-4.9-1.2-10.1-5.6-12.5c-5.7-3-10.7,5.6-5,8.6c3,1.6-1.4,4.5-3,5.1
						c2.1,2.1,4.1,4.1,6.2,6.2c1.3-8.3,2.2-16.7-2.4-24.2c-2.6,2-5.2,4-7.9,6.1c2,2,4.1,4.1,6.1,6.1
						C733.9,606.3,741,599.2,736.4,594.7z"/>
				</g>
			</g>
			<g>
				<g>
					<path class="st15" d="M725.2,582.8c-1.2-1.1-2.3-1.9-3.9-2.4c-4.8-1.5-8.3,4.9-4.9,8.4c2.3,2.3,4.5,4.5,6.8,6.8
						c1.8,1.8,4.6,1.9,6.6,0.4c1.9-1.4,2.7-4.4,1.3-6.5C729.4,587.1,727.4,584.9,725.2,582.8c-1.9-1.8-5.2-2-7.1,0
						c-1.8,2-2,5.1,0,7.1c0.9,0.8,1.7,1.7,2.5,2.6c0.4,0.4,0.7,0.8,1.1,1.3c0.4,0.5,0.4,0.5,0.1,0.1c0.2,0.3,0.4,0.5,0.5,0.8
						c2.6-2,5.2-4,7.9-6.1c-2.3-2.3-4.5-4.5-6.8-6.8c-1.6,2.8-3.2,5.6-4.9,8.4c-0.3-0.1-1.2-0.8-0.5-0.2c1.9,1.8,5.2,2,7.1,0
						C727,587.9,727.3,584.7,725.2,582.8z"/>
				</g>
			</g>
			<g>
				<g>
					<path class="st15" d="M722.6,634.5c2.3-3.8,4.9-7.6,6.5-11.7c1.7-4.2,1.8-8.6,1.5-13.1c-0.6-9.3-2.9-18.1-6.5-26.6
						c-2.1-4.9-9.2-2-9.3,2.5c-0.5,15.5-1,30.9-1.5,46.4c-0.2,6.4,9.8,6.4,10,0c0.5-15.5,1-30.9,1.5-46.4c-3.1,0.8-6.2,1.7-9.3,2.5
						c2.9,6.8,4.7,14.2,5.1,21.6c0.2,3.8,0.3,7.3-1.4,10.7c-1.6,3.1-3.5,6-5.3,9C710.7,635,719.3,640,722.6,634.5z"/>
				</g>
			</g>
		</g>
		<g>
			<g>
				<path class="st15" d="M704,581.6c5.9,3.9,9.7,9.6,11.3,16.5c1.5-0.6,3-1.3,4.6-1.9c-3.7-7.4-7.8-14.6-15-18.9
					c-0.6,1.5-1.3,3-1.9,4.6c8.4,3.1,11.8,18.1,11.6,26c-0.1,3.2,4.9,3.2,5,0c0.4-10.5-4.4-26.8-15.2-30.8c-2.7-1-4.3,3.2-1.9,4.6
					c6.5,3.9,9.9,10.5,13.2,17.1c1.3,2.6,5.2,0.7,4.6-1.9c-1.9-8.1-6.6-14.8-13.6-19.5C703.8,575.5,701.3,579.8,704,581.6L704,581.6
					z"/>
			</g>
		</g>
		<g>
			<g>
				<path class="st15" d="M719.6,581.2c-0.6-3.3-1.3-6.5-3.4-9.2c-1.9-2.4-4.4-4.1-7-5.8c-2.7-1.8-5.2,2.6-2.5,4.3
					c2,1.3,4.2,2.7,5.7,4.7c1.5,2.1,1.9,4.8,2.4,7.3C715.3,585.7,720.1,584.4,719.6,581.2L719.6,581.2z"/>
			</g>
		</g>
		<g>
			<g>
				<path class="st15" d="M713.2,516.7c-0.4-2.1-1.4-3.9-2.8-5.5c-0.9-1-2.6-0.9-3.5,0c-1,1-0.9,2.5,0,3.5c0.8,0.9,1.3,1.9,1.6,3.3
					c0.3,1.3,1.9,2.1,3.1,1.7C712.9,519.4,713.5,518,713.2,516.7L713.2,516.7z"/>
			</g>
		</g>
		<g>
			<g>
				<path class="st15" d="M711.4,510.5c0.3-4.2,1.1-8.5-0.6-12.5c-1.3-2.9-5.6-0.4-4.3,2.5c0.6,1.4,0.4,3.1,0.3,4.6
					c-0.1,1.8-0.2,3.6-0.3,5.3C706.2,513.7,711.2,513.7,711.4,510.5L711.4,510.5z"/>
			</g>
		</g>
	</g>
	<polygon class="st12" points="590.5,558.4 604.8,564.3 596.5,580 588.3,583.9 	"/>
	<polygon class="st16" points="695.9,412.1 701,392.9 722.3,372.8 746.9,371.4 767.4,376.9 783.6,397.8 790.9,428.2 781.2,456.1 
		758.1,480.8 728.3,484 716,479 699.6,465.7 691.7,446.5 691,419.1 	"/>
	<polygon class="st17" points="646.9,505.5 654.5,515.2 662.7,521.3 668.9,523.3 670,527.8 674.8,526 675.1,519.8 682.6,512 
		684.9,498.5 683.4,488.1 675.5,478.2 661.4,476.8 652.7,482.1 649.6,490.1 	"/>
	<polygon class="st18" points="736.8,504.9 719.8,525.4 716.5,539.9 724.4,572.6 734.1,586 735.6,590.9 744.8,590.6 772.5,581.3 
		787.6,565.3 790.1,542.3 787.7,525.7 772.8,504 752.4,499.2 	"/>
	<polygon class="st0" points="138.8,554.9 126.3,558.1 122.6,586.7 132.5,614.1 154.8,630.5 182.3,645.2 187.4,631.7 	"/>
	<path class="st19" d="M730.4,392.9c-3.3,1.6-10.1,5.7-15.3,13.7c-6.9,10.8-6.1,21.8-5.7,25.2"/>
	<path class="st20" d="M747.3,516.7c-2.1,1-6.4,3.6-9.6,8.7c-4.3,6.8-3.8,13.7-3.6,15.9"/>
	<path class="st21" d="M660.4,487.3c-0.9,0.5-2.8,1.6-4.2,3.8c-1.9,3-1.7,6-1.6,6.9"/>
	<polygon class="st3" points="421.5,775.4 461.3,760.2 544.1,729.9 630.2,709.9 629.1,727.4 605,742.7 515,775.4 432.5,780 	"/>
	<path class="st22" d="M644.3,471.6c1.1,2.5,2.5,6.4,2.7,11.3c0.2,5.3-1,9.6-3.7,16.1c-5.7,13.9-8.5,20.8-14,25.6
		c-2.8,2.5-10.3,8.3-23.4,9.5"/>
	<g>
		<g>
			<path class="st15" d="M714,587.3c3.2,0,3.2-5,0-5C710.7,582.3,710.7,587.3,714,587.3L714,587.3z"/>
		</g>
	</g>
	<g>
		<path class="st23" d="M619.7,720.1c-11.3,2.2-22.3,6-33.3,9.5c-48.4,15.3-98.8,23.5-146.5,40.8c24.5,4.5,50,1.6,74.1-4.9
			C538,759,561,749,583.8,739c9.9-4.3,19.8-8.7,28.5-15.1"/>
		<g>
			<path class="st4" d="M617,710.5c-15.6,3.1-30.6,8.9-45.9,13.3c-14.7,4.3-29.6,8.1-44.5,11.8c-30.1,7.5-60.2,14.7-89.4,25.2
				c-4.2,1.5-7.3,5-7.3,9.6c0,4.1,3.1,8.9,7.3,9.6c31.9,5.6,64.1,0.6,94.6-9.5c15-5,29.7-11.1,44.2-17.3
				c14.1-6.1,28.8-11.6,41.4-20.6c4.4-3.1,6.5-8.7,3.6-13.7c-2.5-4.3-9.3-6.8-13.7-3.6c-11.8,8.5-25.5,13.8-38.8,19.5
				c-13.2,5.7-26.6,11.2-40.3,15.8c-27.4,9.2-56.9,15.1-85.7,10c0,6.4,0,12.9,0,19.3c29.2-10.5,59.4-17.7,89.4-25.2
				c14.9-3.7,29.8-7.5,44.5-11.8c15.3-4.5,30.2-10.2,45.9-13.3c5.3-1.1,8.3-7.4,7-12.3C627.8,712,622.3,709.4,617,710.5L617,710.5z"
				/>
		</g>
	</g>
	<polygon class="st24" points="630.2,709.9 671.4,709.3 704.4,721.9 716.1,704.1 716.1,675.9 716.7,648.9 706.4,623.8 681.5,603.6 
		625.2,595.4 547.4,620.9 461.5,659.2 383.6,685.1 304.1,691.7 276.5,685.8 253.4,674.8 271.9,716.8 297.3,746.4 321.3,764.9 
		350.7,777.1 387.7,780 428.1,772.5 504.9,744 612.8,711.8 	"/>
	<g>
		<g>
			<path class="st4" d="M289.5,552.7c1.2,13.2,5.4,26.4,8.4,39.3c2.9,12.5,22.2,7.2,19.3-5.3c-1.4-6.1-2.8-12.1-4.2-18.2
				c-1.2-5.2-3-10.5-3.5-15.8c-0.5-5.4-4.2-10-10-10C294.5,542.7,289,547.3,289.5,552.7L289.5,552.7z"/>
		</g>
	</g>
	<polygon class="st25" points="415.7,323 384.5,310.5 367.3,341.8 358.7,342.4 328.9,329.7 318.5,370.1 277.7,376.4 283.3,412.4 
		296.3,429.9 252.3,456.7 251.5,465.2 263.7,483.5 295.1,516.3 267.8,545.8 265.3,553.9 287.6,581.9 306.6,593.6 285.4,618.8 
		283.2,633.4 321.2,661.4 325,665.1 306.7,690.3 332.4,690.9 317.1,619.5 298.5,520.1 297.4,470.9 302.6,408.9 319.5,374.6 349,351 
			"/>
	<g>
		<g>
			<path class="st4" d="M539.9,543.5c2.3,5.7,4.2,14.5,10.3,17.1c7.5,3.1,15-2.6,16.5-10c2.2-11.3-11.7-17.1-18.3-7.7
				c-3,4.3-5.1,9.4-6,14.6c-0.9,5.3,1.4,10.8,7,12.3c4.8,1.3,11.4-1.6,12.3-7c0.6-3.8,1.8-6.7,4-9.9c-6.1-2.6-12.2-5.1-18.3-7.7
				c-0.1,1.2-0.2,1.4-0.3,0.6c1.2-1.2,2.4-2.4,3.6-3.6c-0.3,0.2-0.5,0.4-0.8,0.6c1.7-0.5,3.4-0.9,5-1.4c-0.3,0-0.6,0-0.9-0.1
				c2.9,1.7,5.8,3.3,8.6,5c-1.1-1.7-2.5-5.7-3.5-8.2c-2.1-5-6.6-8.5-12.3-7C542.2,532.5,537.8,538.4,539.9,543.5L539.9,543.5z"/>
		</g>
	</g>
	<g>
		<g>
			<path class="st25" d="M269.7,553.8c6.5,6.8,13.6,13,21.3,18.5c4.9,3.5,10.3,6.9,12.8,12.4"/>
			<g>
				<path class="st26" d="M264.4,559.1c5.5,5.8,11.5,11,17.8,15.9c5.2,4,12,7.3,15.1,13.4c4.4,8.6,17.4,1,13-7.6
					c-3.6-7-10-11.1-16.2-15.6c-6.9-5-13.2-10.6-19.1-16.8C268.3,541.5,257.7,552.1,264.4,559.1L264.4,559.1z"/>
			</g>
		</g>
		<g>
			<path class="st26" d="M278.2,632.1c2.4,6.6,8.8,11.7,14.8,15.1c3,1.7,6.3,3,9.5,4.3c1.5,0.6,3.1,1.2,4.6,1.9
				c0.9,0.4,4.3,2.9,3.1,1.2c5.5,7.9,18.5,0.4,13-7.6c-3.7-5.4-10-7.3-15.9-9.6c-2.6-1-5.1-2.1-7.4-3.5c-1.7-1.1-6.5-3.9-7.1-5.7
				C289.4,619.1,274.9,623,278.2,632.1L278.2,632.1z"/>
		</g>
		<g>
			<path class="st26" d="M248.1,462.7c3.1,9.7,9.9,17.1,18.5,22.5c3.7,2.4,7.8,4,11.6,6.2c4.7,2.8,5,6.8,5.2,11.9
				c4.7-1.3,9.3-2.5,14-3.8c-4-5.7-8.5-10.8-13.7-15.4c-7.3-6.3-17.9,4.3-10.6,10.6c4.3,3.7,8.1,7.7,11.4,12.4
				c4,5.7,14.2,4.2,14-3.8c-0.2-5.8-0.7-11.7-3.8-16.7c-2.6-4.3-7-7.2-11.4-9.5c-8.3-4.3-17.6-8.7-20.7-18.4
				C259.6,449.6,245.2,453.5,248.1,462.7L248.1,462.7z"/>
		</g>
		<g>
			<path class="st26" d="M275.4,395.2c3.9,5.3,8.6,9.5,14.6,12c0.4,0.2,3.7,1.7,4.1,1.5c-1.9-2.4-2.6-2.4-2.1-0.1c0,0.5,0,1,0,1.6
				c0,3.9-0.5,7.3-2.5,10.7c3,0.4,6.1,0.8,9.1,1.2c-1.2-5.8-3.2-11.2-5.7-16.6c-2.7-5.8-11.3-0.8-8.6,5c2.1,4.6,3.6,9.3,4.6,14.2
				c0.9,4.4,7,4.6,9.1,1.2c3.6-5.8,5.7-15.9,3.4-22.6c-1.2-3.7-4.7-4-7.8-5.3c-3.8-1.7-7.2-4.5-9.7-7.8
				C280.2,385.1,271.5,390,275.4,395.2L275.4,395.2z"/>
		</g>
		<g>
			<path class="st26" d="M332.7,354.9c-3,0.3-2-11.1-2-13.1c0.2-5.5-8.9-7-9.8-1.3c-1.3,8.2-4.6,15.7-2.6,24.1
				c1.5,6.3,11.1,3.6,9.6-2.7c-1.5-6.3,1.6-12.7,2.6-18.8c-3.3-0.4-6.5-0.9-9.8-1.3c-0.3,8.3-0.4,24.1,12,23.1
				C339.1,364.4,339.1,354.4,332.7,354.9L332.7,354.9z"/>
		</g>
		<g>
			<path class="st26" d="M389.5,327.2c-1.8,0.2-3.6,0.4-5.4,0.6c-0.9,0.1-1.8,0.2-2.7,0.3c-0.3,0-0.6,0.1-0.9,0.1
				c-1.1,0-0.8,0.2,0.9,0.7c0.4,0.7,0.9,1.5,1.3,2.2c-0.4-0.9-0.4-2.7-0.4-4.2c-0.1-1.9-0.1-3.9-0.1-5.8c0-5.7-8.3-6.8-9.8-1.3
				c-2.1,7.4,2.2,14.8,9.2,17.4c2.5,0.9,5.5-1,6.2-3.5c0.8-2.8-1-5.2-3.5-6.2c-2.1-0.8-2.7-3.4-2.2-5.1c-3.3-0.4-6.5-0.9-9.8-1.3
				c0,2.7,0,5.5,0.2,8.2c0.2,2.6,0.4,5.1,2.3,7.1c1.8,1.8,4.4,2,6.8,1.7c2.7-0.3,5.4-0.6,8.1-0.9c2.7-0.3,5-2.1,5-5
				C394.5,329.7,392.2,326.9,389.5,327.2L389.5,327.2z"/>
		</g>
		<g>
			<path class="st26" d="M327,687.8c0.4-3.8-0.1-7.6-1.3-11.2c-1.8-5.2-9.7-4.5-9.8,1.3c0.3-0.8,0.3-1,0.1-0.7
				c-0.3,0.4-0.6,0.8-0.9,1.1c-0.5,0.7-1.1,1.3-1.7,1.9c-1.2,1.4-2.4,2.7-3.7,4c-4.5,4.6,2.6,11.7,7.1,7.1c1.8-1.8,3.5-3.7,5.1-5.6
				c2-2.4,3.9-4.5,4-7.8c-3.3,0.4-6.5,0.9-9.8,1.3c1,2.9,1.3,5.5,0.9,8.6c-0.3,2.7,2.5,5,5,5C325,692.8,326.8,690.5,327,687.8
				L327,687.8z"/>
		</g>
	</g>
	<g>
		<g>
			<g>
				<line class="st27" x1="203.2" y1="368.1" x2="203.2" y2="406.2"/>
				<line class="st27" x1="203.2" y1="354.5" x2="203.2" y2="358.2"/>
			</g>
			<g>
				<line class="st27" x1="158.2" y1="412.5" x2="196.3" y2="412.5"/>
				<line class="st27" x1="144.6" y1="412.5" x2="148.2" y2="412.5"/>
			</g>
			<g>
				<line class="st27" x1="247.9" y1="412.5" x2="209.9" y2="412.5"/>
				<line class="st27" x1="261.5" y1="412.5" x2="257.9" y2="412.5"/>
			</g>
			<g>
				<line class="st27" x1="203.2" y1="456.7" x2="203.2" y2="418.6"/>
				<line class="st27" x1="203.2" y1="470.3" x2="203.2" y2="466.6"/>
			</g>
		</g>
		<g>
			<line class="st27" x1="168.6" y1="377.8" x2="195.5" y2="404.7"/>
			<line class="st27" x1="159" y1="368.2" x2="161.5" y2="370.8"/>
		</g>
		<g>
			<line class="st27" x1="168.6" y1="447.5" x2="195.5" y2="420.5"/>
			<line class="st27" x1="159" y1="457.1" x2="161.5" y2="454.5"/>
		</g>
		<g>
			<line class="st27" x1="238.3" y1="378.5" x2="211.4" y2="405.4"/>
			<line class="st27" x1="247.9" y1="368.9" x2="245.4" y2="371.5"/>
		</g>
		<g>
			<line class="st27" x1="237.5" y1="446.8" x2="210.6" y2="419.9"/>
			<line class="st27" x1="247.2" y1="456.4" x2="244.6" y2="453.8"/>
		</g>
	</g>
	<g>
		<g>
			<line class="st6" x1="163.9" y1="414.9" x2="163.9" y2="434"/>
		</g>
		<g>
			<line class="st6" x1="139.8" y1="439.8" x2="158.9" y2="439.8"/>
		</g>
		<g>
			<line class="st6" x1="188.7" y1="439.8" x2="169.6" y2="439.8"/>
		</g>
		<g>
			<line class="st6" x1="163.9" y1="464.4" x2="163.9" y2="445.4"/>
		</g>
		<g>
			<line class="st6" x1="146.6" y1="422.4" x2="160.1" y2="435.9"/>
		</g>
		<g>
			<line class="st6" x1="146.6" y1="457.3" x2="160.1" y2="443.8"/>
		</g>
		<g>
			<line class="st6" x1="181.5" y1="422.7" x2="168.1" y2="436.2"/>
		</g>
		<g>
			<line class="st6" x1="181.2" y1="456.9" x2="167.7" y2="443.5"/>
		</g>
		<circle class="st28" cx="164" cy="439.8" r="1.6"/>
	</g>
</g>
<g id="LINE">
	<g id="Layer_3" class="st29">
		<rect class="st30" width="897.9" height="897.9"/>
	</g>
	<g id="Layer_2" class="st29">
		
			<image style="display:inline;overflow:visible;opacity:0.14;" width="1668" height="2224" id="Background_xA0_Image_2_" xlink:href="85D97FAD211B4A8B.png"  transform="matrix(0.5455 0 0 0.5455 -9.9091 -140.8854)">
		</image>
		
			<image style="display:inline;overflow:visible;opacity:0.14;" width="1668" height="2224" id="Layer_3_xA0_Image_2_" xlink:href="85D97FAD211B4A89.png"  transform="matrix(0.5455 0 0 0.5455 -9.9091 -140.8854)">
		</image>
		
			<image style="display:inline;overflow:visible;opacity:0.14;" width="1668" height="2224" id="Layer_6_xA0_Image_2_" xlink:href="85D97FAD211B4A8F.png"  transform="matrix(0.5455 0 0 0.5455 -9.9091 -140.8854)">
		</image>
		
			<image style="display:inline;overflow:visible;opacity:0.14;" width="1668" height="2224" id="Layer_2_xA0_Image_2_" xlink:href="85D97FAD211B4A88.png"  transform="matrix(0.5455 0 0 0.5455 -9.9091 -140.8854)">
		</image>
		
			<image style="display:inline;overflow:visible;opacity:0.14;" width="1668" height="2224" id="Layer_1_xA0_Image_2_" xlink:href="85D97FAD211B4A86.png"  transform="matrix(0.5455 0 0 0.5455 -9.9091 -140.8854)">
		</image>
		
			<image style="display:inline;overflow:visible;opacity:0.14;" width="1668" height="2224" id="Layer_4_xA0_Image_2_" xlink:href="85D97FAD211B4A87.png"  transform="matrix(0.5455 0 0 0.5455 -9.9091 -140.8854)">
		</image>
		
			<image style="display:inline;overflow:visible;opacity:0.14;" width="1668" height="2224" id="Layer_5_xA0_Image_2_" xlink:href="85D97FAD211B4A97.png"  transform="matrix(0.5455 0 0 0.5455 -9.9091 -140.8854)">
		</image>
		
			<image style="display:inline;overflow:visible;opacity:0.14;" width="1668" height="2224" id="Layer_8_xA0_Image_2_" xlink:href="85D97FAD211B4A99.png"  transform="matrix(0.5455 0 0 0.5455 -9.9091 -140.8854)">
		</image>
		
			<image style="display:inline;overflow:visible;opacity:0.14;" width="1668" height="2224" id="Layer_9_xA0_Image_2_" xlink:href="85D97FAD211B4A9B.png"  transform="matrix(0.5455 0 0 0.5455 -9.9091 -140.8854)">
		</image>
		
			<image style="display:inline;overflow:visible;opacity:0.14;" width="1668" height="2224" id="Layer_10_xA0_Image_2_" xlink:href="586F7405C8F1C628.png"  transform="matrix(0.5455 0 0 0.5455 -9.9091 -140.8854)">
		</image>
	</g>
	<g id="line">
		<g>
			<path class="st11" d="M781.5,385.6c-1.1-5.6-2.3-11.2-3.6-16.8C756.6,280.7,702.3,206.2,625,159
				c-77.3-47.2-168.4-61.5-256.4-40.3C280.5,140,206,194.2,158.8,271.5c-47.2,77.3-61.5,168.4-40.3,256.4c1.3,5.5,2.8,11,4.4,16.4
				l0,0c0.2,0.7,0.4,1.3,0.6,2c0.5,1.8,1.1,3.6,1.6,5.3c0.3,1,0.7,2.1,1,3.1c0.4,1.2,0.8,2.3,1.2,3.5c0.5,1.5,1,3,1.5,4.5
				c0,0,0,0.1,0,0.1v0c2,0.6,4.2,0.7,6.3,0.3c1.5-0.3,3-0.7,4.5-1.3c-2,14,0.5,28.4,8.2,41.1c0.8,1.3,1.6,2.6,2.5,3.9l-1.5,1.2
				c0.8,1.5,1.6,3,2.4,4.5l2.2-1.7c5.6,6.7,12.5,12,20.2,15.8c-2-3-3.9-6.1-5.8-9.2c-3.9-2.8-7.4-6-10.6-9.7l3.5-2.8
				c-0.8-1.5-1.6-3-2.4-4.5l-4.1,3.3c-0.8-1.1-1.5-2.2-2.2-3.3c-5.8-9.7-8.4-20.5-8.1-31.3c-1-2.6-2-5.2-3-7.8
				c-0.3-0.8-0.6-1.7-0.9-2.5c0,0,0-0.1,0-0.1c-0.5-1.3-0.9-2.6-1.4-4c-0.1-0.3-0.2-0.7-0.4-1c-0.2-0.5-0.3-1-0.5-1.5
				c-0.4-1.3-0.8-2.5-1.2-3.8l-4.3-0.7c0.7-2.1,1.4-4.1,2.3-6.1c-0.4-1.2-0.7-2.4-1-3.6c-1-3.6-2-7.2-2.9-10.9
				c-0.2-0.7-0.3-1.4-0.5-2.1c-20.5-85-6.7-172.8,38.9-247.4c45.6-74.6,117.4-126.9,202.4-147.4c84.9-20.5,172.8-6.7,247.4,38.8
				c74.4,45.5,126.7,117.2,147.3,202l0.1,0.4c1.2,5,2.3,10.1,3.3,15.2c1.5,1.5,2.8,3.2,4.1,5c7.8,10.8,11.4,24.6,10.3,38.9
				c-0.8,10-3.9,19.3-8.5,27c-0.1,5.7-0.4,11.5-0.9,17.2c-0.7,8.5-1.7,16.9-3,25.3c-0.4,2.8-0.9,5.6-1.4,8.3
				c4,2.4,7.4,5.8,10.2,10.1c0.7-3.4,1.4-6.9,2-10.3c3.1-17.2,4.8-34.5,5.2-52C787.9,432.8,786,409.1,781.5,385.6z M747.1,583.1
				c-0.2,0-0.5-0.1-0.7-0.1c-1.1,2.5-2.3,5-3.5,7.4c-0.8,1.8-1.7,3.5-2.6,5.2c-0.7,1.4-1.4,2.8-2.1,4.2c-3.4,6.5-7,12.9-10.9,19.2
				c-3.2,5.2-6.5,10.3-9.9,15.3c-2.4,3.5-4.9,7-7.5,10.4c1.1,5.1,1.8,10.2,2.4,15.1c0,0.4,0.1,0.8,0.1,1.3c2.9-3.6,5.8-7.3,8.6-11.1
				c5.8-7.9,11.4-16.2,16.6-24.7c2.2-3.6,4.3-7.2,6.4-10.8c1.1-2,2.2-4,3.3-6c3-5.7,5.9-11.4,8.6-17.2c1.4-3,2.7-6,4.1-9
				C755.7,583.5,751.4,583.8,747.1,583.1z M624,724.5c-30,19.1-63.4,33.3-99,41.9c-29.1,7-58.6,10-87.8,9.1
				c-9.9-0.3-19.8-1.1-29.6-2.3c-0.4,0.1-0.9,0.2-1.3,0.3c-17.1,3.2-35,4-52.1,0c-15.6-3.7-30-11.3-42.5-21.4
				c-5.1-4.1-9.8-8.5-14.1-13.1c-6.8-3.5-13.5-7.3-20-11.3c-1.3-0.8-2.6-1.6-3.8-2.4c-2.7-1.7-5.3-3.4-7.9-5.1l0.7,2.2l-10.1,3.2
				c-2.5-1.8-4.9-3.5-7.3-5.3l0,0l-4.9-15.8c-1.8-1.4-3.6-2.9-5.3-4.3l0,0c-13.7-11.3-26.3-23.6-37.8-36.8c-2.8-3.2-5.5-6.4-8.1-9.7
				c-1.2-1.5-2.4-3-3.6-4.5c-1.8-2.4-3.6-4.8-5.4-7.2c-7.2-1.7-13.9-4.4-20-7.9c3.5,5.3,7.1,10.6,10.9,15.7c0.9,1.2,1.8,2.4,2.6,3.6
				c2.9,3.8,5.8,7.6,8.9,11.2c0.5,0.6,1.1,1.3,1.6,1.9c1.1,1.4,2.3,2.7,3.5,4.1c0.7,0.8,1.4,1.6,2.1,2.3
				c15.4,17.5,32.7,33.4,51.6,47.5l0,0c2.4,1.8,4.8,3.6,7.3,5.3c6.1,4.3,12.4,8.5,18.9,12.4c8.2,5,16.5,9.6,25,13.9
				c33.2,16.7,68.5,27.7,104.7,32.7c41.7,5.9,84.6,3.8,126.8-6.3c31.6-7.6,61.4-19.5,88.9-35.2c5.1-2.9,10.2-6,15.1-9.1
				c1.8-5.4,2.9-11,3.4-16.7C631.5,719.6,627.8,722.1,624,724.5z M651.8,704.7c-4.5,3.6-9.1,7.1-13.8,10.4
				c6.9-0.5,13.7-0.7,20.6-0.4c3.7-2.9,7.3-5.9,10.9-9C663.6,705,657.7,704.7,651.8,704.7z"/>
		</g>
	</g>
	<g id="Layer_4">
		<g>
			<g>
				<path class="st11" d="M517.4,509.4c15.9,33.3,31.8,66.5,47.7,99.8c2.8,5.8,11.4,0.7,8.6-5c-15.9-33.3-31.8-66.5-47.7-99.8
					C523.2,498.5,514.6,503.6,517.4,509.4L517.4,509.4z"/>
			</g>
		</g>
		<g>
			<g>
				<path class="st11" d="M524.5,508.4c15.3-14.2,30.7-28.4,45.9-42.7c6-5.7,11.5-12.2,13.1-20.6c1.8-9.1-0.1-18.2-2.1-27
					c-1.5-6.3-11.1-3.6-9.6,2.7c1.8,7.7,4,16.3,1.6,24.1c-2.4,7.8-9.5,13.3-15.2,18.6c-13.5,12.6-27.1,25.2-40.6,37.8
					C512.7,505.7,519.8,512.8,524.5,508.4L524.5,508.4z"/>
			</g>
		</g>
		<g>
			<g>
				<path class="st11" d="M311.6,377.2c-18.7,34.2-19.6,74-19,112c0.3,21.3,1.1,42.3,5.1,63.3c4.2,21.7,9.2,43.3,13.8,65
					c5.2,24.4,10.5,48.8,15.7,73.2c1.3,6.3,11,3.6,9.6-2.7c-8.9-41.7-17.9-83.5-26.8-125.2c-4.5-20.9-6.8-41.3-7.3-62.7
					c-0.4-18.9-0.8-37.9,0.8-56.8c1.8-21.2,6.4-42.3,16.6-61.1C323.3,376.6,314.6,371.5,311.6,377.2L311.6,377.2z"/>
			</g>
		</g>
		<g>
			<g>
				<path class="st11" d="M320.2,382.2c11-16.8,29-27,46.9-35c20.7-9.2,42.4-15.8,64.5-20.2c6.3-1.3,3.6-10.9-2.7-9.6
					c-23.6,4.7-46.6,12.1-68.6,22c-19,8.6-37.2,20.1-48.8,37.8C308,382.6,316.7,387.6,320.2,382.2L320.2,382.2z"/>
			</g>
		</g>
		<g>
			<g>
				<path class="st11" d="M431.7,327.1c17.3-4,34.9-7.1,52.7-6.9c15.7,0.2,35.1,1.7,46.6,13.5c10.5,10.7,16.5,26.4,22.5,39.8
					c6.9,15.4,12.8,31.2,18.1,47.2c2,6.1,11.7,3.5,9.6-2.7c-5.8-17.4-12.3-34.6-19.9-51.3c-6.6-14.6-13.3-31.4-25.5-42.3
					c-13.1-11.6-32.7-13.9-49.6-14.3c-19.3-0.5-38.5,2.9-57.3,7.2C422.7,318.9,425.4,328.5,431.7,327.1L431.7,327.1z"/>
			</g>
		</g>
		<g>
			<g>
				<path class="st11" d="M492.1,563c5.7-1.4,11.4-2.5,17.3-3c3.5-0.3,17.6-1,13.6,6.6c-1,1.9,0.7,4.2,2.8,3.7
					c2.8-0.7,4.6,2.1,4.9,4.3c0.2,1.7-0.1,3.3-0.5,4.9c-0.8,3.2-2.2,6.4-3.5,9.4c-2.3,5.2-4.9,10.3-7.5,15.3
					c-1.5,2.9,2.8,5.4,4.3,2.5c4.6-8.8,10.7-18.8,12.2-28.8c1-6.8-3.5-14.4-11.2-12.5c0.9,1.2,1.9,2.4,2.8,3.7
					c3.3-6.2-1.3-12.5-7.6-14c-9-2-20.2,0.8-28.9,3C487.7,558.9,489,563.7,492.1,563L492.1,563z"/>
			</g>
		</g>
		<g>
			<g>
				<path class="st11" d="M539.2,540.6c2.5-0.7,5.1-1.5,7.6-2.2c2-0.6,5.1-2.2,7.1-1.5c1.7,0.6,1.7,3.2,3.2,4.6
					c1.4,1.3,3.3,1.2,4.6,2.2c3.8,2.9-0.5,10.2-2,13.4c-2.3,5.1-4.9,10.1-7.8,14.9c-3.3,5.6,5.4,10.6,8.6,5
					c4.2-7.2,8.4-14.8,11.1-22.7c2-5.8,2.1-12.7-2.4-17.4c-0.8-0.9-1.9-1.7-3-2.3c-0.8-0.4-1.6-0.7-2.4-0.9c0.6,1,0.8,1,0.5,0.1
					c-1.7-2.7-2.2-4.9-5.4-6.4c-6.7-3.1-16.1,1.6-22.6,3.5C530.3,532.7,533,542.4,539.2,540.6L539.2,540.6z"/>
			</g>
		</g>
		<g>
			<g>
				<path class="st11" d="M466.2,452.2c36.9-6.6,73.5-14.6,109.8-23.9c3.1-0.8,1.8-5.6-1.3-4.8c-36.3,9.3-72.9,17.3-109.8,23.9
					C461.7,447.9,463,452.8,466.2,452.2L466.2,452.2z"/>
			</g>
		</g>
		<g>
			<g>
				<path class="st11" d="M464,452c4.1,4.3,11.3,11.7,17.8,11.4c2.7-0.1,4.1-1.7,5.6-3.8c2.8-3.9,4.8-8.5,6.9-12.8
					c1.4-2.9-2.9-5.4-4.3-2.5c-1.4,2.8-5.5,14.2-9.5,13.9c-1.9-0.1-4.6-2.5-6.1-3.6c-2.5-1.8-4.8-3.9-6.9-6.2
					C465.3,446.2,461.8,449.7,464,452L464,452z"/>
			</g>
		</g>
		<g>
			<g>
				<path class="st11" d="M491.2,447.5c5.2,3.7,14.4,9.5,21.2,8.5c2.5-0.4,4.2-1.9,5.7-3.8c3.1-3.8,5.7-8,8.5-12.1
					c1.9-2.6-2.5-5.1-4.3-2.5c-3.3,4.7-7.4,13.8-14,12.8c-5.1-0.8-10.4-4.3-14.5-7.2C491.1,441.3,488.6,445.7,491.2,447.5
					L491.2,447.5z"/>
			</g>
		</g>
		<g>
			<g>
				<path class="st11" d="M523.5,441.7c5.5,1.8,12.4,5.5,18.3,4.4c5.5-1,8.2-7,10.6-11.4c1.6-2.8-2.8-5.3-4.3-2.5
					c-2.4,4.4-4.7,10-10.7,8.7c-4.2-0.9-8.5-2.7-12.6-4.1C521.8,435.9,520.5,440.7,523.5,441.7L523.5,441.7z"/>
			</g>
		</g>
		<g>
			<g>
				<path class="st11" d="M549.3,435.3c4,2.2,10.7,6.6,15.5,5.3c5-1.4,9-7.9,11.6-12c1.7-2.7-2.6-5.2-4.3-2.5
					c-1.8,2.8-5.3,9-8.9,9.6c-3.4,0.5-8.3-3-11.3-4.6C549,429.4,546.5,433.7,549.3,435.3L549.3,435.3z"/>
			</g>
		</g>
		<g>
			<g>
				<path class="st11" d="M371.8,341.7c1.8-4.8,3.9-9.6,6.2-14.2c1.4-2.8,4.4-11.4,7.9-12.2c1.9-0.4,5.1,1.9,6.7,2.6
					c2.2,1.1,4.4,2.2,6.6,3.3c4.9,2.5,9.7,5.2,14.5,8c5.6,3.2,10.6-5.4,5-8.6c-6.4-3.7-12.8-7.2-19.4-10.4
					c-5.4-2.7-11.5-6.4-17.6-3.9c-5.7,2.3-8.5,8.8-11.1,13.9c-3.2,6.1-6,12.5-8.4,19C359.9,345.1,369.6,347.7,371.8,341.7
					L371.8,341.7z"/>
			</g>
		</g>
		<g>
			<g>
				<path class="st11" d="M362.9,338.9c-7.4-3.7-14.8-7.4-22.5-10.7c-5.8-2.5-12.3-3.6-16.7,2c-4,5.1-5,13.3-6.5,19.4
					c-2,7.7-3.4,15.5-4,23.4c-0.5,6.4,9.5,6.4,10,0c0.8-11.1,3.8-21.9,6.9-32.5c0.7-2.4,1.1-4.6,4.1-4.1c2.8,0.5,5.7,2.4,8.2,3.6
					c5.2,2.4,10.4,4.9,15.5,7.5C363.6,350.5,368.7,341.9,362.9,338.9L362.9,338.9z"/>
			</g>
		</g>
		<g>
			<g>
				<path class="st11" d="M318.9,366.9c-10.4-1.1-20.8-0.8-31.1,1c-8.8,1.5-16.1,5.2-16,15.2c0.1,9.2,4.8,19,8.1,27.4
					c3.9,10.1,8.3,20.1,12.7,30c2.6,5.9,11.2,0.8,8.6-5c-6.7-15.4-13.9-30.9-18.4-47c-0.6-2.1-1.9-6.2-0.4-8.3
					c1.9-2.7,8.3-2.7,11.2-3.1c8.4-1.1,17-1.1,25.4-0.2C325.3,377.6,325.2,367.6,318.9,366.9L318.9,366.9z"/>
			</g>
		</g>
		<g>
			<g>
				<path class="st11" d="M294.1,427c-10.7,4.8-21.1,10.5-30.9,17c-8.2,5.5-19.7,12.4-16.1,24.1c1.5,5.1,5.2,9.1,8.7,13
					c4.2,4.7,8.4,9.4,12.7,14c4.3,4.6,8.7,9.1,13.1,13.6c3.6,3.6,7.3,8.6,12.7,9.3c6.3,0.8,9-8.8,2.7-9.6c-4-0.5-7.6-6-10.3-8.7
					c-3.5-3.6-7-7.2-10.5-10.9c-3.4-3.7-6.8-7.4-10.2-11.1c-2.9-3.2-6.5-6.5-8.5-10.4c-2.6-5,1.2-7.6,5-10.4
					c3.8-2.8,7.7-5.4,11.7-7.9c8-5,16.3-9.3,24.9-13.2C305,433,299.9,424.4,294.1,427L294.1,427z"/>
			</g>
		</g>
		<g>
			<g>
				<path class="st11" d="M303.1,590.1c-6.3,6.4-12.1,13.4-17,20.9c-4.1,6.2-11.2,15.1-8.1,22.9c3.1,7.9,13.1,13,19.7,17.7
					c8.3,5.9,16.6,11.9,24.9,17.8c5.2,3.8,10.2-4.9,5-8.6c-6.5-4.6-13-9.3-19.5-13.9c-6.2-4.4-14-8.6-19.1-14.2
					c-1.7-1.9-2.3-2.2-1.2-4.7c0.7-1.5,1.6-3.1,2.4-4.5c1.7-3,3.5-5.9,5.4-8.8c4.3-6.3,9.2-12.1,14.5-17.5
					C314.7,592.6,307.6,585.5,303.1,590.1L303.1,590.1z"/>
			</g>
		</g>
		<g>
			<g>
				<path class="st11" d="M319.9,662.3c-5.6,7.6-11.3,15-17.2,22.3c-4,5,3,12.1,7.1,7.1c6.4-8,12.7-16.1,18.8-24.4
					C332.3,662.1,323.7,657.1,319.9,662.3L319.9,662.3z"/>
			</g>
		</g>
		<g>
			<g>
				<path class="st11" d="M608.2,531.8c-7.7-1.8-14.3-6.5-18.2-13.5c-4.3-7.7-3.6-16.5-1.3-24.8c2.5-9.1,6-19,11.2-26.9
					c4.5-6.9,15.2-11.2,23-8.6c7.2,2.4,16.8,8.9,20.2,16c4,8.5,0.5,19-1.8,27.4c-2.2,7.8-4.2,17-9.7,23.2
					c-5.5,6.2-14.1,8.8-22.1,7.1c-6.3-1.3-9,8.3-2.7,9.6c17.5,3.7,32.8-6,39.3-22.1c3.5-8.8,6.3-18.4,7.8-27.7
					c1.5-8.7,1.4-17.9-3.8-25.3c-5-7.2-13.6-13.3-21.7-16.7c-8.6-3.7-17-2.2-25.2,1.7c-8.7,4.1-13,11.3-16.8,19.9
					c-4,8.9-7.7,18.3-9.1,28c-2.6,19.3,8.7,37.8,28.2,42.3C611.8,542.9,614.4,533.3,608.2,531.8L608.2,531.8z"/>
			</g>
		</g>
		<g>
			<g>
				<path class="st11" d="M587.3,498.3c4.5-0.6,9.2-1.3,13.5,0.4c3.5,1.4,6.1,4.6,8.7,7.2c2.3,2.3,5.8-1.3,3.5-3.5
					c-3.4-3.4-6.6-7.1-11.3-8.7c-5.1-1.8-10.6-1-15.8-0.2C582.8,494,584.1,498.8,587.3,498.3L587.3,498.3z"/>
			</g>
		</g>
		<g>
			<g>
				<path class="st11" d="M591.1,484c9.5-1.8,18.1,2.3,25,8.7c2.3,2.2,5.9-1.3,3.5-3.5c-8.2-7.8-18.5-12.2-29.8-10
					C586.6,479.8,587.9,484.6,591.1,484L591.1,484z"/>
			</g>
		</g>
		<g>
			<g>
				<path class="st11" d="M597.7,470.1c4.4-0.8,9.9-0.7,14.3,0.5c4.1,1.1,6.6,3.9,9.2,7.1c2,2.5,5.5-1.1,3.5-3.5
					c-3.1-3.9-6.4-7.2-11.4-8.4c-5.4-1.3-11.5-1.5-17-0.5C593.2,465.9,594.6,470.7,597.7,470.1L597.7,470.1z"/>
			</g>
		</g>
		<g>
			<g>
				<path class="st11" d="M597.7,530.8c-20.2-0.4-17.7,34.5,0.3,35.9c19.3,1.5,23.8-32.1,5.1-36.1c-6.3-1.3-9,8.3-2.7,9.6
					c7,1.5,6.1,15.4-0.8,16.2c-6.3,0.7-9.5-15.8-1.9-15.7C604.1,540.9,604.1,530.9,597.7,530.8L597.7,530.8z"/>
			</g>
		</g>
		<g>
			<g>
				<path class="st11" d="M584.4,555.6c-2.2,6.4-7.3,36.3,6.3,33.5c5.4-1.1,10.7-6.3,13.8-10.6c3.9-5.3,6.2-11.6,4.8-18.2
					c-1.2-5.5-10-4.3-9.8,1.3c0,0.3,0,0.7,0,1c0.2,6.4,10.2,6.4,10,0c0-0.3,0-0.7,0-1c-3.3,0.4-6.5,0.9-9.8,1.3
					c1.3,6.1-6.1,15.4-12,16.6c1.6,0.4,3.2,0.9,4.9,1.3c0.7,1.7,0.7,1.6,0.1-0.6c-0.3-1.3-0.6-2.6-0.8-4c-0.2-1.8-0.3-3.6-0.3-5.4
					c0.1-4.4,1-8.5,2.4-12.7C596.2,552.2,586.5,549.6,584.4,555.6L584.4,555.6z"/>
			</g>
		</g>
		<g>
			<g>
				<path class="st11" d="M599,563.4c5,13,16.3,21.5,30.1,22.8c2.7,0.2,5-2.5,5-5c-0.1-16.7-1.8-35.9-18-45.1
					c-5.6-3.2-10.7,5.5-5,8.6c12.8,7.2,13,23.5,13.1,36.4c1.7-1.7,3.3-3.3,5-5c-9-0.8-17.2-7-20.5-15.5
					C606.3,554.8,596.7,557.4,599,563.4L599,563.4z"/>
			</g>
		</g>
		<g>
			<g>
				<path class="st11" d="M591.2,582c0,6.6,0,13.3,0,19.9c0,6.4,10,6.4,10,0c0-6.6,0-13.3,0-19.9C601.2,575.5,591.2,575.5,591.2,582
					L591.2,582z"/>
			</g>
		</g>
		<g>
			<g>
				<path class="st11" d="M607.3,576.2c0.1,7.4,0.1,14.9,0.2,22.3c0,6.4,10,6.4,10,0c-0.1-7.4-0.1-14.9-0.2-22.3
					C617.2,569.7,607.2,569.7,607.3,576.2L607.3,576.2z"/>
			</g>
		</g>
		<g>
			<g>
				<path class="st11" d="M428.5,406.2c-4.7-1.2-9.9-1.6-13.6,2c-3.6,3.4-4.1,8.9-2.5,13.4c1.6,4.6,4.5,8.6,9.7,9
					c4.1,0.3,9.1-0.8,12.1-3.8c6.8-6.8,4.2-20.5-5.8-22.4c-4.6-0.9-9.9,1.1-12.1,5.4c-2.1,4.1-0.8,10.7,3.3,13.1
					c4.7,2.7,12-0.1,11.7-6.1c-0.2-2.9-2.5-5.2-5.5-5.4c-3.1-0.2-5.4,1.6-6.8,4.3c-2.9,5.7,5.7,10.8,8.6,5c-0.6,0.2-1.2,0.4-1.9,0.7
					c-1.2-0.5-2.4-1-3.5-1.5c0.2,0.1,0.3,0.3,0.5,0.4c-0.5-1.2-1-2.4-1.5-3.5c0,0.3,0,0.5,0.1,0.8c0.2-0.8,0.5-1.7,0.7-2.5
					c0.5-0.4,1.1-0.8,1.6-1.2c1.6,1.7,2.2,2,1.9,0.9c0.7-0.1-0.8-0.3-0.2-0.4c0.9-0.1,1.5-0.4,2.2,0.4c1.4,1.6,0.4,4.7-1.3,5.4
					c-1,0.4-2.6,0.7-3.6,0.5c1,0.2,0.4,0.5,0.1-0.5c-0.2-0.8-0.7-1.5-0.9-2.2c-0.9-3.5,1.7-2.7,4.2-2.1
					C432.1,417.4,434.8,407.7,428.5,406.2L428.5,406.2z"/>
			</g>
		</g>
		<g>
			<g>
				<path class="st11" d="M726.8,485.6c0,2.8,0.1,5,2.3,7c2,1.7,4.8,2.2,7.3,2.6c5.6,0.8,9.9-2.3,9.5-8.2c-0.2-3.2-5.2-3.2-5,0
					c0.2,3.4-1.9,3.6-4.8,3.1c-1-0.2-2.4-0.4-3.3-1c-1.3-0.9-1-2.1-1-3.5C731.8,482.4,726.8,482.4,726.8,485.6L726.8,485.6z"/>
			</g>
		</g>
		<g>
			<path class="st11" d="M787.7,515.7c-1.6-2.7-3.5-5.2-5.5-7.4c-3.2-3.4-6.8-6.1-10.8-8.1c-3.2-1.6-6.6-2.7-10.2-3.3
				c-17.1-2.8-33.7,7.2-42.5,23.7c-0.7,1.3-1.4,2.7-2,4.2c-1.7,3.9-2.9,8.1-3.6,12.5c-4.1,24.8,9.2,47.9,29.8,53
				c0.9,0.2,1.9,0.4,2.9,0.6c3.3,0.6,6.7,0.6,10,0.2c1.4-0.2,2.9-0.4,4.3-0.8c6-1.4,11.7-4.4,16.8-8.8c8.9-7.6,15-18.7,17-31.1
				C796,538.1,793.8,525.7,787.7,515.7z M786.1,549.3c-1.7,10.6-6.8,19.9-14.3,26.3c-3.7,3.1-7.7,5.3-11.8,6.6
				c-4.2,1.3-8.5,1.6-12.8,0.9c-0.2,0-0.5-0.1-0.7-0.1c-9.1-1.7-16.6-7.9-21.2-16.5c-4.2-7.8-5.9-17.7-4.3-27.9
				c0.6-3.7,1.6-7.2,3-10.4c4.9-11.8,14.3-20.4,24.9-22.9c3.6-0.9,7.3-1.1,11.1-0.4c3.6,0.6,6.9,1.8,10,3.7c4,2.4,7.4,5.8,10.2,10.1
				c0.2,0.4,0.5,0.7,0.7,1.1c2.1,3.5,3.6,7.3,4.6,11.3C786.9,536.9,787.1,543.1,786.1,549.3z"/>
		</g>
		<g>
			<path class="st11" d="M781.7,385.9c-0.1-0.1-0.1-0.2-0.2-0.3c-4.4-6-9.6-10.9-15.4-14.4c-6.6-4.1-13.9-6.5-21.6-7.1
				c-14.6-1.1-28.9,4.5-40.1,15.8c-11,11.1-17.7,26.4-19,43.1c-1.3,16.7,3,32.9,12.2,45.6c9.3,12.9,22.5,20.7,37.2,21.8
				c5,0.4,10,0,14.8-1.2c9.3-2.2,17.9-7.3,25-14.3c5.2-5.2,9.6-11.5,13-18.6c3.5-7.5,5.8-15.9,6.5-24.8
				C795.2,414.7,790.8,398.5,781.7,385.9z M775.4,457.7c-9,14.8-23.8,24-39.9,22.7c-11.7-0.9-22.3-7.2-29.8-17.7
				c-7.8-10.7-11.4-24.6-10.3-38.9c1.1-14.4,6.9-27.4,16.2-36.9c6-6.1,13-10.1,20.5-11.9c3.8-0.9,7.8-1.2,11.7-0.9
				c9.7,0.8,18.6,5.2,25.7,12.7c1.4,1.5,2.8,3.2,4.1,4.9c7.8,10.7,11.4,24.6,10.3,38.9C783.1,440.7,780,450,775.4,457.7z"/>
		</g>
		<g>
			<path class="st11" d="M671.9,524.2c-0.8,0.2-1.6,0.3-2.4,0.4c-11.9,1.3-22.9-8.8-24.4-22.7c-0.7-6.6,0.8-13.1,4.2-18.3
				c3.6-5.3,8.7-8.6,14.6-9.2c5.9-0.7,11.6,1.4,16.3,5.8c4.5,4.3,7.4,10.3,8.2,16.9l0,0c0.7,6.6-0.8,13.1-4.2,18.3
				C681,520,676.7,523,671.9,524.2z M662.7,479.7c-3.7,0.9-6.9,3.2-9.3,6.7c-2.8,4.2-4,9.5-3.4,14.9c1.2,11.1,9.7,19.3,18.9,18.2
				c4.4-0.5,8.3-3,11-7c2.8-4.2,4-9.5,3.4-14.9l0,0c-0.6-5.4-3-10.4-6.6-13.8c-3.5-3.4-7.9-4.9-12.3-4.4
				C663.8,479.5,663.3,479.6,662.7,479.7z"/>
		</g>
		<g>
			<g>
				<path class="st11" d="M666.8,524c-0.1,3.7,3.6,6.4,7.1,5.4c3.6-1,5.2-5,4-8.4c-0.5-1.3-1.7-2.1-3.1-1.7
					c-1.2,0.3-2.2,1.8-1.7,3.1c0.3,0.7,0.5,1.9-0.5,2.2c-0.5,0.2-0.8-0.1-0.8-0.6C671.8,520.8,666.8,520.8,666.8,524L666.8,524z"/>
			</g>
		</g>
		<g>
			<g>
				<path class="st11" d="M668.9,528.2c7.1,13.9-8.6,26.8-13.5,38.6c-5.2,12.7,0.4,22.7,8.5,32.5c2.1,2.5,5.6-1.1,3.5-3.5
					c-4.6-5.5-9.6-11.6-9.3-19.2c0.2-7.4,4.9-13.8,8.9-19.8c6.2-9.3,11.8-20.2,6.2-31.2C671.7,522.8,667.4,525.3,668.9,528.2
					L668.9,528.2z"/>
			</g>
		</g>
		<g>
			<g>
				<path class="st11" d="M733.3,581.6c-3.4,3.8-2.6,9.6,2,12.1c5.4,2.8,10.3-0.4,14.1-4.1c2.3-2.3-1.2-5.8-3.5-3.5
					c-1.6,1.6-3.5,3.6-5.9,3.7c-2.5,0.1-5.2-2.2-3.2-4.6C739,582.7,735.4,579.1,733.3,581.6L733.3,581.6z"/>
			</g>
		</g>
		<g>
			<g>
				<path class="st11" d="M733.4,590.9c-4.4,7.1-12.1,11.5-17.1,18.2c-4.3,5.9-6.4,13-4.3,20.1c0.9,3.1,5.8,1.8,4.8-1.3
					c-4.8-15.6,14-23.4,20.8-34.5C739.4,590.6,735.1,588.1,733.4,590.9L733.4,590.9z"/>
			</g>
		</g>
		<g>
			<g>
				<path class="st11" d="M735.1,491.9c-1.8,4.7-3.1,9.6-0.5,14.2c1.6,2.8,5.9,0.3,4.3-2.5c-1.9-3.3-0.3-7.1,1-10.4
					C741.1,490.3,736.3,489,735.1,491.9L735.1,491.9z"/>
			</g>
		</g>
	</g>
	<g id="Layer_6">
		<g>
			<path class="st31" d="M291.1,521.9c-0.4-0.6-0.7-1.2-1.1-1.9c-6.6-11.1-15.6-20-26-26.6c-1.4-0.9-2.8-1.8-4.3-2.6
				c-20.6-11.3-45.9-14-69.9-6.7c-1.6,0.5-3.2,1-4.7,1.6c-5.8,2.1-11.5,4.8-17,8.1c-14,8.4-25.4,19.9-33.3,33.4
				c-3.1,5.4-5.7,11-7.7,16.9v0c0,0.1,0,0.1-0.1,0.2c-0.2,0.6-0.4,1.2-0.6,1.8c-0.1,0.2-0.1,0.4-0.2,0.6l0,0c0,0,0,0,0,0
				c0,0,0,0,0,0c-0.1,0.4-0.3,0.9-0.4,1.3c-0.3,0.9-0.5,1.9-0.8,2.8c-5,19.9-2.9,40.1,6.1,57.7c0.9,1.7,1.8,3.4,2.8,5
				c1.3,2.1,2.7,4.2,4.1,6.2c0.4,0.5,0.8,1.1,1.2,1.6c0.6,0.8,1.2,1.5,1.8,2.2c0,0,0.1,0.1,0.1,0.1c1,1.2,2,2.4,3.1,3.5
				c0.6,0.7,1.3,1.4,2,2.1c9,9,20.1,15.8,32.7,19.9c1.8,0.6,3.6,1.1,5.5,1.6h0c1.2,0.3,2.4,0.6,3.6,0.9c3,0.6,6,1.1,9,1.4
				c0.4,0,0.7,0.1,1.1,0.1c1.5,0.1,2.9,0.2,4.4,0.3l0.6,0c8.3,0.3,16.6-0.5,24.7-2.3c0.3-0.1,0.6-0.1,0.9-0.2
				c2.8-0.7,5.6-1.5,8.3-2.4c1.3-0.4,2.5-0.9,3.8-1.4c0.8-0.3,1.5-0.6,2.2-0.9c1.2-0.5,2.4-1,3.5-1.5c0-0.3-0.1-0.6-0.1-1
				c0-0.3-0.1-0.6-0.1-0.9c-0.3-3-0.4-6-0.3-9c-2,1-4,2-6,2.8c0,0,0,0,0,0c-1.3,0.6-2.6,1.1-4,1.6c-3.7,1.4-7.5,2.5-11.3,3.3
				c-6.7,1.5-13.6,2.1-20.4,1.9c-1.7,0-3.4-0.2-5-0.3c-3.1-0.3-6.2-0.8-9.3-1.4c-0.7-0.1-1.4-0.3-2-0.5c-7.2-1.7-13.9-4.4-20-7.9
				c-6.1-3.5-11.7-7.9-16.4-13c-0.9-1-1.8-2-2.6-3c-1.1-1.3-2.1-2.6-3.1-3.9c-1.2-1.6-2.3-3.3-3.4-5.1c-0.4-0.6-0.8-1.3-1.1-1.9
				c-7.5-13.3-10.3-28.5-8.4-43.9v0c0,0,0-0.1,0-0.1c0.2-1.3,0.4-2.6,0.6-4c0.2-1,0.4-2.1,0.6-3.1c0.1-0.6,0.3-1.2,0.4-1.9
				c0.1-0.4,0.2-0.8,0.3-1.2c0.1-0.5,0.3-1,0.4-1.6c0.3-1.1,0.7-2.2,1-3.3c0.7-2.1,1.4-4.1,2.3-6.1c0.6-1.3,1.2-2.6,1.8-3.9
				c7-14.4,18.4-26.7,32.8-35.4c4.8-2.9,9.7-5.2,14.7-7c1.6-0.6,3.2-1.1,4.7-1.6c1-0.3,2-0.6,3.1-0.9c0.6-0.2,1.2-0.3,1.8-0.5
				c14.1-3.4,28.6-3.1,41.8,0.7c5.2,1.5,10.1,3.5,14.8,6c1.5,0.8,2.9,1.6,4.3,2.5c0.2,0.1,0.4,0.2,0.5,0.4c1.4,0.9,2.7,1.8,4,2.8
				c7.3,5.4,13.6,12.2,18.5,20.3c1,1.7,1.9,3.3,2.7,5l0,0c0.2,0.4,0.4,0.9,0.6,1.3c2.3-2.8,4.6-5.5,7.1-8.2
				C291.6,522.8,291.3,522.3,291.1,521.9z"/>
			<path class="st8" d="M250.3,643.1c-1.2,0.7-2.5,1.3-3.8,1.9c0-0.3-0.1-0.6-0.1-1c0-0.3-0.1-0.6-0.1-0.9c-0.3-3-0.4-6-0.3-9
				c1.4-0.7,2.8-1.5,4.1-2.3C249.8,635.5,249.9,639.3,250.3,643.1z"/>
		</g>
		<g>
			<path class="st31" d="M272,530.8c-4.3-7.2-9.9-13.3-16.6-18.1c-1-0.7-2-1.5-3.1-2.1c-1.4-0.9-2.8-1.7-4.3-2.5
				c-0.8-0.4-1.7-0.9-2.5-1.3c-0.9-0.4-1.7-0.8-2.6-1.2c-2-0.9-4.1-1.7-6.3-2.3c-2-0.6-4-1.2-6.1-1.6c-10.6-2.3-21.6-2-32.1,0.7
				c-1,0.3-2,0.5-3,0.8c-1.6,0.5-3.2,1-4.7,1.6l0,0c-3.3,1.2-6.5,2.7-9.7,4.4c-0.9,0.5-1.8,1-2.7,1.5c-0.6,0.4-1.2,0.7-1.8,1.1
				c-12.3,7.8-21.5,18.7-27,30.8c-1,2.2-1.9,4.4-2.7,6.7c-0.2,0.7-0.5,1.3-0.7,2c-0.3,1-0.6,1.9-0.8,2.9c0,0.1-0.1,0.3-0.1,0.4
				c-0.4,1.4-0.7,2.8-0.9,4.1c0,0,0,0.1,0,0.1c-0.2,1-0.4,2.1-0.5,3.1c-2,14,0.5,28.4,8.2,41.1c0.8,1.3,1.6,2.6,2.5,3.9
				c1,1.4,2,2.7,3.1,4c5.6,6.7,12.5,12,20.2,15.8c7.1,3.5,14.9,5.7,23,6.6c1.7,0.2,3.3,0.3,5,0.3c5.3,0.2,10.7-0.3,16.1-1.3
				c1-0.2,2-0.4,3-0.7c4-1,7.9-2.3,11.8-3.9c0.1-0.1,0.3-0.1,0.4-0.2h0c1.3-0.6,2.5-1.2,3.8-1.8c1.6-0.8,3.2-1.7,4.8-2.6
				c0.6-0.4,1.3-0.8,1.9-1.2c0.2-1.1,0.5-2.2,0.8-3.4c0.3-1.4,0.8-2.8,1.2-4.2c-2,1.6-4.2,3-6.5,4.4c-0.4,0.2-0.7,0.4-1.1,0.6
				c-1.5,0.9-3,1.7-4.5,2.4c-0.6,0.3-1.3,0.6-1.9,0.9c-3.9,1.7-7.9,3.1-11.9,4.1c-1.1,0.3-2.2,0.5-3.4,0.7c-4.7,0.9-9.4,1.3-14,1.2
				c-1.7,0-3.3-0.2-5-0.3c-10.6-1.1-20.8-4.8-29.4-10.8c-3.9-2.8-7.4-6-10.6-9.7c-1.1-1.3-2.1-2.6-3-4c-0.8-1.1-1.5-2.2-2.2-3.3
				c-5.8-9.7-8.4-20.5-8.1-31.3c0.1-3.3,0.5-6.6,1.1-9.8c0.3-1.5,0.6-2.9,1-4.4c0.4-1.6,0.9-3.2,1.5-4.8c0,0,0-0.1,0.1-0.1
				c0,0,0,0,0,0c5-13.9,15-26.4,29-34.9c0.8-0.5,1.6-1,2.5-1.4c0,0,0,0,0,0c2.8-1.5,5.7-2.9,8.7-4c1.6-0.6,3.2-1.1,4.8-1.6
				c0.2,0,0.4-0.1,0.6-0.2c1-0.3,2-0.6,3-0.8c9.6-2.3,19.5-2.5,29.1-0.5c2.8,0.6,5.4,1.4,8,2.3c2.7,0.9,5.2,2.1,7.7,3.4
				c1.4,0.7,2.8,1.5,4.1,2.4c0.1,0.1,0.2,0.1,0.2,0.2c0.7,0.4,1.4,0.9,2.1,1.4c6.5,4.5,12,10.4,16.1,17.3c2.1,3.6,3.9,7.3,5.1,11.1
				c0.1-0.1,0.2-0.3,0.3-0.4c1.1-1.4,2.2-2.9,3.3-4.3C275.2,536.8,273.7,533.8,272,530.8z M277,566.8c-0.1-0.1-0.1-0.1-0.2-0.2
				c-0.4-0.3-0.7-0.7-1.1-1c0,0.6-0.1,1.3-0.1,1.9c-0.1,1.5-0.3,3-0.5,4.4c-0.3,2.2-0.8,4.4-1.4,6.5c0.5-0.4,0.9-0.8,1.4-1.2h0
				c1-0.8,2-1.6,3.1-2.3c0.7-0.5,1.1-1,1.5-1.6l0.2,0.1c0-0.2,0.1-0.4,0.1-0.5c0.2-1.1,0.3-2.1,0.4-3.2
				C279.3,568.7,278.1,567.8,277,566.8z"/>
			<path class="st8" d="M253.6,614.1c-0.5,1.4-0.9,2.9-1.3,4.4c-1.5,1.2-3.2,2.3-4.8,3.4c0.2-1.1,0.5-2.2,0.8-3.4
				c0.3-1.4,0.8-2.8,1.2-4.2c0.8-0.6,1.7-1.3,2.5-2L253.6,614.1z"/>
		</g>
		<g>
			<path class="st31" d="M230.4,551.4c-0.9-1.5-2-2.9-3.2-4.1c-1.2-1.2-2.5-2.2-3.9-3.1c-2.2-1.4-4.7-2.4-7.3-2.9
				c-3.3-0.7-6.6-0.7-9.8,0c-1.6,0.3-3.2,0.8-4.8,1.5c-1.1,0.5-2.1,1-3.2,1.6c-4.5,2.7-8,6.7-10,11.4c-0.4,0.9-0.7,1.9-1,2.8
				c-0.2,0.7-0.3,1.3-0.5,2c-1.1,5.4-0.1,10.8,2.7,15.5c0.4,0.7,0.8,1.3,1.3,1.9c1,1.3,2.2,2.6,3.5,3.6c2.7,2.3,6,3.8,9.7,4.6
				c1,0.2,1.9,0.4,2.9,0.4c0.3,0,0.5,0,0.7,0c1.4,0.1,2.9,0,4.3-0.1c0.9-0.1,1.8-0.3,2.7-0.5c2.4-0.6,4.8-1.6,7.1-2.9
				c0.4-0.3,0.9-0.6,1.3-0.9c0.2-0.1,0.4-0.3,0.6-0.4c1.4-1,2.6-2.1,3.7-3.3c0.7-0.7,1.3-1.5,1.8-2.3c1.6-2.2,2.8-4.7,3.6-7.4
				c0.6-1.9,0.9-3.9,0.9-5.9c0-1.5-0.1-2.9-0.3-4.3c0-0.2-0.1-0.4-0.1-0.7C232.6,555.7,231.7,553.4,230.4,551.4z M216.6,574.4
				c0,0-0.1,0.1-0.1,0.1c-1,0.6-2.1,1.1-3.2,1.5c-1.7,0.5-3.4,0.8-5.1,0.7c-0.7,0-1.4-0.1-2.2-0.3c-1.3-0.3-2.5-0.7-3.6-1.3
				c-1.5-0.8-2.8-2-3.8-3.4c-0.2-0.3-0.4-0.5-0.5-0.8c-1.6-2.6-2-5.7-1.3-8.9c0.1-0.2,0.1-0.5,0.2-0.7c0.4-1.4,1-2.8,1.9-4
				c1.2-1.7,2.8-3.3,4.7-4.4c0.3-0.2,0.5-0.3,0.8-0.5c1.1-0.6,2.3-1,3.4-1.3c0.4-0.1,0.9-0.2,1.3-0.2c1.6-0.2,3.3-0.2,4.9,0.1
				c1.3,0.3,2.6,0.8,3.7,1.4c0.3,0.2,0.6,0.3,0.9,0.5c1.1,0.8,2.1,1.7,2.9,2.8c0.2,0.2,0.3,0.5,0.5,0.7c0.5,0.8,0.8,1.6,1.1,2.4
				c0.5,1.6,0.7,3.3,0.5,5c-0.1,0.7-0.2,1.5-0.4,2.2c-0.5,1.9-1.5,3.6-2.7,5.1C219.3,572.4,218,573.5,216.6,574.4z"/>
		</g>
		<g>
			<path class="st11" d="M266.6,722.2l-10.1,3.2c-2.5-1.8-4.9-3.5-7.3-5.3l0,0l-4.9-15.8c5.4,4.3,10.9,8.4,16.6,12.4
				c1.7,1.2,3.4,2.3,5.1,3.5L266.6,722.2z"/>
			<path class="st31" d="M265.9,720.1c-1.7-1.1-3.4-2.3-5.1-3.5c-5.7-4-11.2-8.1-16.6-12.4l-1.3-4.3l0,0l-15.1-48.5l-3-9.6l-3-9.5
				l-1.5-4.8l-9.7-31.1l-3-9.7L207,585l0,0l-0.6-1.9l0.9-0.3l5.3-1.6l7.9-2.5l1.2-0.4l0.8,2.5l0.5,1.5l12.6,40.5l1.5,4.8h0l2.9,9.4
				l3,9.6l21.8,70.1L265.9,720.1z"/>
		</g>
		<g>
			<path class="st8" d="M273.7,578.4c-0.4,1.7-1,3.5-1.6,5.2c-1.5,1.5-3,3.2-4.4,4.9l-3.2-1c1.1-1.3,2.3-2.6,3.5-3.9
				C269.9,581.8,271.8,580,273.7,578.4z"/>
			<path class="st8" d="M279.9,573.4c-0.2,1.3-0.5,2.6-0.7,3.8c-0.8,0.7-1.7,1.3-2.5,2c-0.3,0.2-0.6,0.5-0.9,0.8c0,0-0.1,0-0.1,0.1
				c-0.3,0.3-0.7,0.6-1,0.9c-0.1,0.1-0.2,0.2-0.3,0.2c-0.4,0.3-0.8,0.7-1.1,1.1c-0.4,0.4-0.8,0.8-1.3,1.3c0.6-1.7,1.2-3.4,1.6-5.2
				c0.5-0.4,0.9-0.8,1.4-1.2h0c1-0.8,2-1.6,3.1-2.3c0.7-0.5,1.1-1,1.5-1.6L279.9,573.4z"/>
			<path class="st31" d="M279.7,573.4c-0.3,0.6-0.8,1.1-1.5,1.6c-1,0.7-2.1,1.5-3.1,2.3h0c-0.5,0.4-1,0.8-1.4,1.2
				c-2,1.6-3.8,3.3-5.6,5.2c-1.2,1.2-2.4,2.5-3.5,3.9l-6.9-2.2l-3.2-1l-25.4-8l-3.7-1.2l3.7-11.7l1.6-5.2l0.1-0.3l0.7,0.2l1.7,0.5
				l10.8,3.4h0l24.6,7.8l2.9,0.9l3.6,1.1L279.7,573.4z"/>
		</g>
		<g>
			<path class="st32" d="M141.8,553.3"/>
		</g>
		<g>
			<path class="st31" d="M198.7,557.3c-0.8,1.2-1.5,2.6-1.9,4c-0.1,0.3-0.1,0.5-0.2,0.7l-9.9-1.5l-34.7-5.3l-1.8-0.3l-2-0.3
				l-1.4-0.2l-1.5-0.2l-2.8-0.4l-4.4-0.7l-3.2-0.5l-5.7-0.9l-3.3-0.5l-0.9-0.1c0.2-0.9,0.5-1.9,0.8-2.8c0.1-0.5,0.3-0.9,0.4-1.4
				c0,0,0,0,0,0c0,0,0,0,0,0l0,0c0.1-0.2,0.1-0.4,0.2-0.6l1.2,0.2l8.8,1.3l4.4,0.7l6,0.9l5,0.8l0.1,0l36.5,5.6L198.7,557.3z"/>
		</g>
		<g>
			<path class="st31" d="M209,550.8c-0.4,0.1-0.9,0.1-1.3,0.2c-1.2,0.3-2.3,0.7-3.4,1.3l-2.8-9.7l-9.5-33l-1.4-4.8l-2.7-9.5
				l-2.8-9.6c1.6-0.6,3.2-1.1,4.7-1.6l2.8,9.6l2.7,9.4l1.4,4.8l9.6,33.2L209,550.8z"/>
		</g>
		<g>
			<path class="st31" d="M202.4,575l-8.2,6.5L164.8,605l-3.5,2.7l-3.9,3.1l-2.2,1.7l-4.7,3.7l-1.8,1.4l-3.1,2.5l-4.5,3.6
				c0,0,0,0,0,0L141,624c0,0-0.1-0.1-0.1-0.1c-0.6-0.7-1.2-1.5-1.8-2.2c-0.4-0.5-0.8-1.1-1.2-1.6l7.8-6.2l2.9-2.3l4.2-3.3l1.5-1.2
				l3.9-3.1l4.1-3.3l28.3-22.6l7.8-6.2C199.6,573.1,200.9,574.2,202.4,575z"/>
		</g>
		<g>
			<path class="st31" d="M213.2,576l-0.7,5.1l-0.7,5.4l-1.3,9.9l-4.3,32.3l-0.6,5l-1.3,10.1l-1.3,10c-1.7-0.1-3.3-0.2-5-0.3l1.3-9.9
				l1.3-10.2l0.6-4.9l5.5-41.7l0.2-1.6l0,0l0.3-2.2l0.8-6.1C209.8,576.7,211.6,576.5,213.2,576z"/>
		</g>
		<g>
			<path class="st31" d="M264,493.5l-5.6,8.3l-6.1,8.9l-2.8,4.1l-22.2,32.5l-5.8,8.5c-0.8-1.1-1.7-2.1-2.9-2.8
				c-0.3-0.2-0.6-0.4-0.9-0.5l5.7-8.3l21.8-31.9l2.8-4.2l6-8.9l5.7-8.3C261.1,491.7,262.6,492.6,264,493.5z"/>
		</g>
		<g>
			<path class="st31" d="M270.7,559.8l-26.7,2.3l0,0l-10.4,0.9l-4.5,0.4l-5.6,0.5c0.2-1.7,0-3.4-0.5-5l7.7-0.7l0.8-0.1l1.6-0.1
				l35.8-3.1C269.1,556.6,269.7,558.2,270.7,559.8z"/>
		</g>
		<g>
			<path class="st8" d="M255.3,609.4c-0.6,1.6-1.2,3.1-1.7,4.7l-1.6-1.7C253.1,611.4,254.2,610.4,255.3,609.4z"/>
			<path class="st8" d="M255.7,609l-0.4,0.4c0,0,0,0,0,0c-1.1,1-2.2,2-3.3,3l-1.3-1.4c0.2-0.5,0.4-1.1,0.6-1.6c0,0,0,0,0,0
				c0.1-0.2,0.1-0.3,0.2-0.5c0.4-1,0.8-2,1.3-2.9l2.7,2.9L255.7,609z"/>
			<path class="st31" d="M252.8,605.9c-0.5,1-0.9,2-1.3,2.9c-0.1,0.2-0.1,0.4-0.2,0.5c0,0,0,0,0,0c-0.2,0.5-0.4,1.1-0.6,1.6l-4.7-5
				l-2.8-3l-19.8-21.2l-1-1.1l-2-2.1l-3.9-4.2c1.5-0.9,2.7-2,3.8-3.3l6.9,7.4l18.3,19.7l2.6,2.8L252.8,605.9z"/>
		</g>
		<g>
			<path class="st31" d="M178.8,663.8c-0.3-3.8-0.1-8,2.5-10.7c1.7-1.8,4.1-2.7,6.5-3.3c3.6-1,7.7-1.6,11,0.3
				c3.8,2.2,5.2,6.9,6,11.3c0.5,2.7,0.7,5.9-1.2,7.9c-0.7,0.8-1.7,1.3-2.7,1.7c-2.8,1.4-5.7,2.8-8.7,3.3c-3.1,0.5-6.4,0.1-9-1.6
				c-2.6-1.7-4.5-4.7-4.3-7.9"/>
			<g>
				<path class="st11" d="M181.3,663.8c-0.3-5.8,1.1-9.9,7.2-11.7c6.4-1.8,11.3-0.2,13.2,6.5c0.5,1.9,1.3,4.5,0.9,6.5
					c-0.6,3-4.2,4.4-6.8,5.5c-5.4,2.1-14.1,1.9-14.3-5.8c-0.1-3.2-5.1-3.2-5,0c0.2,8.6,8.4,13.3,16.5,11.8c3.9-0.7,9.7-2.7,12.5-5.7
					c2.8-3,2.4-7.3,1.7-11c-1.7-8.7-7-14.7-16.4-13.4c-10.1,1.5-14.8,7.2-14.3,17.2C176.5,667,181.5,667,181.3,663.8L181.3,663.8z"
					/>
			</g>
		</g>
		<g>
			<path class="st31" d="M179.5,666.6c7.9-1.8,15.8-3.5,23.8-5.3"/>
			<g>
				<path class="st11" d="M180.2,669c7.9-1.8,15.8-3.5,23.8-5.3c3.1-0.7,1.8-5.5-1.3-4.8c-7.9,1.8-15.8,3.5-23.8,5.3
					C175.7,664.9,177.1,669.7,180.2,669L180.2,669z"/>
			</g>
		</g>
		<g>
			<path class="st31" d="M183.3,669c2.7,0.8,5.5,1.3,8.3,1.4c2,0.1,4-0.1,5.9-0.9s3.4-2.4,3.8-4.3c-4.2,0.4-8.5,0.8-12.7,1.2
				c-1.1,0.1-2.4,0.3-3,1.3"/>
			<g>
				<path class="st11" d="M182.6,671.4c7,2,18.4,3.4,21-5.5c0.4-1.4-0.8-3.3-2.4-3.2c-3.8,0.4-7.5,0.7-11.3,1.1
					c-2.3,0.2-4.5,0.3-6.2,2.1c-2.2,2.4,1.3,5.9,3.5,3.5c1.1-1.2,5.2-0.9,6.8-1.1c2.3-0.2,4.7-0.4,7-0.7c-0.8-1.1-1.6-2.1-2.4-3.2
					c-1.6,5.5-11,3.2-14.8,2C180.9,665.7,179.5,670.5,182.6,671.4L182.6,671.4z"/>
			</g>
		</g>
		<g>
			<path class="st31" d="M125.3,621.8c-0.3-3.8-0.1-8,2.5-10.7c1.7-1.8,4.1-2.7,6.5-3.3c3.6-1,7.7-1.6,11,0.3
				c3.8,2.2,5.2,6.9,6,11.3c0.5,2.7,0.7,5.9-1.2,7.9c-0.7,0.8-1.7,1.3-2.7,1.7c-2.8,1.4-5.7,2.8-8.7,3.3c-3.1,0.5-6.4,0.1-9-1.6
				c-2.6-1.7-4.5-4.7-4.3-7.9"/>
			<g>
				<path class="st11" d="M127.8,621.8c-0.3-5.8,1.1-9.9,7.2-11.7c6.4-1.8,11.3-0.2,13.2,6.5c0.5,1.9,1.3,4.5,0.9,6.5
					c-0.6,3-4.2,4.4-6.8,5.5c-5.4,2.1-14.1,1.9-14.3-5.8c-0.1-3.2-5.1-3.2-5,0c0.2,8.6,8.4,13.3,16.5,11.8c3.9-0.7,9.7-2.7,12.5-5.7
					c2.8-3,2.4-7.3,1.7-11c-1.7-8.7-7-14.7-16.4-13.4c-10.1,1.5-14.8,7.2-14.3,17.2C122.9,625,127.9,625,127.8,621.8L127.8,621.8z"
					/>
			</g>
		</g>
		<g>
			<path class="st31" d="M126,624.6c7.9-1.8,15.8-3.5,23.8-5.3"/>
			<g>
				<path class="st11" d="M126.6,627c7.9-1.8,15.8-3.5,23.8-5.3c3.1-0.7,1.8-5.5-1.3-4.8c-7.9,1.8-15.8,3.5-23.8,5.3
					C122.2,622.9,123.5,627.7,126.6,627L126.6,627z"/>
			</g>
		</g>
		<g>
			<path class="st31" d="M129.7,627c2.7,0.8,5.5,1.3,8.3,1.4c2,0.1,4-0.1,5.9-0.9c1.8-0.8,3.4-2.4,3.8-4.3
				c-4.2,0.4-8.5,0.8-12.7,1.2c-1.1,0.1-2.4,0.3-3,1.3"/>
			<g>
				<path class="st11" d="M129.1,629.4c7,2,18.4,3.4,21-5.5c0.4-1.4-0.8-3.3-2.4-3.2c-3.8,0.4-7.5,0.7-11.3,1.1
					c-2.3,0.2-4.5,0.3-6.2,2.1c-2.2,2.4,1.3,5.9,3.5,3.5c1.1-1.2,5.2-0.9,6.8-1.1c2.3-0.2,4.7-0.4,7-0.7c-0.8-1.1-1.6-2.1-2.4-3.2
					c-1.6,5.5-11,3.2-14.8,2C127.3,623.7,126,628.5,129.1,629.4L129.1,629.4z"/>
			</g>
		</g>
		<g>
			<path class="st31" d="M125.9,553.8c-0.2,3.1,1.6,6.2,4.3,7.9c0.8,0.5,1.7,0.9,2.7,1.2l0,0c0,0,0,0,0.1,0l0,0"/>
			<g>
				<path class="st11" d="M123.4,553.8c-0.1,5.5,3.7,9.8,8.8,11.5c-0.6-0.6-1.2-1.2-1.7-1.7c0,0,0,0,0,0c0.2,0.8,0.9,1.6,1.7,1.7
					c0,0,0,0,0.1,0c-0.6-0.6-1.2-1.2-1.7-1.7c0,0,0,0,0,0c0.8,3.1,5.6,1.8,4.8-1.3c0,0,0,0,0,0c-0.2-0.8-0.9-1.6-1.7-1.7
					c0,0,0,0-0.1,0c0.6,0.6,1.2,1.2,1.7,1.7c-0.5-1.9-3.3-2.2-4.6-3.3c-1.5-1.3-2.3-3.1-2.2-5.1
					C128.5,550.6,123.5,550.6,123.4,553.8L123.4,553.8z"/>
			</g>
		</g>
		<g>
			<path class="st31" d="M126.6,555.6c7.9-1.8,15.8-3.5,23.8-5.3"/>
			<g>
				<path class="st11" d="M127.2,558c7.9-1.8,15.8-3.5,23.8-5.3c3.1-0.7,1.8-5.5-1.3-4.8c-7.9,1.8-15.8,3.5-23.8,5.3
					C122.8,553.9,124.1,558.7,127.2,558L127.2,558z"/>
			</g>
		</g>
		<g>
			<path class="st31" d="M130.3,558.1c2.7,0.8,5.5,1.3,8.3,1.4c2,0.1,4-0.1,5.9-0.9c1.8-0.8,3.4-2.4,3.8-4.3
				c-4.2,0.4-8.5,0.8-12.7,1.2c-1.1,0.1-2.4,0.3-3,1.3"/>
			<g>
				<path class="st11" d="M129.7,560.5c7,2,18.4,3.4,21-5.5c0.4-1.4-0.8-3.3-2.4-3.2c-3.8,0.4-7.5,0.7-11.3,1.1
					c-2.3,0.2-4.5,0.3-6.2,2.1c-2.2,2.4,1.3,5.9,3.5,3.5c1.1-1.2,5.2-0.9,6.8-1.1c2.3-0.2,4.7-0.4,7-0.7c-0.8-1.1-1.6-2.1-2.4-3.2
					c-1.6,5.5-11,3.2-14.8,2C127.9,554.7,126.6,559.6,129.7,560.5L129.7,560.5z"/>
			</g>
		</g>
		<g>
			<path class="st31" d="M172.1,503c-0.3-3.8-0.1-8,2.5-10.7c1.7-1.8,4.1-2.7,6.5-3.3c3.6-1,7.7-1.6,11,0.3c3.8,2.2,5.2,6.9,6,11.3
				c0.5,2.7,0.7,5.9-1.2,7.9c-0.7,0.8-1.7,1.3-2.7,1.7c-2.8,1.4-5.7,2.8-8.7,3.3c-3.1,0.5-6.4,0.1-9-1.6c-2.6-1.7-4.5-4.7-4.3-7.9"
				/>
			<g>
				<path class="st11" d="M174.6,503c-0.3-5.8,1.1-9.9,7.2-11.7c6.4-1.8,11.3-0.2,13.2,6.5c0.5,1.9,1.3,4.5,0.9,6.5
					c-0.6,3-4.2,4.4-6.8,5.5c-5.4,2.1-14.1,1.9-14.3-5.8c-0.1-3.2-5.1-3.2-5,0c0.2,8.6,8.4,13.3,16.5,11.8c3.9-0.7,9.7-2.7,12.5-5.7
					c2.8-3,2.4-7.3,1.7-11c-1.7-8.7-7-14.7-16.4-13.4c-10.1,1.5-14.8,7.2-14.3,17.2C169.7,506.2,174.7,506.2,174.6,503L174.6,503z"
					/>
			</g>
		</g>
		<g>
			<path class="st31" d="M172.8,505.8c7.9-1.8,15.8-3.5,23.8-5.3"/>
			<g>
				<path class="st11" d="M173.5,508.2c7.9-1.8,15.8-3.5,23.8-5.3c3.1-0.7,1.8-5.5-1.3-4.8c-7.9,1.8-15.8,3.5-23.8,5.3
					C169,504.1,170.3,508.9,173.5,508.2L173.5,508.2z"/>
			</g>
		</g>
		<g>
			<path class="st31" d="M176.5,508.2c2.7,0.8,5.5,1.3,8.3,1.4c2,0.1,4-0.1,5.9-0.9c1.8-0.8,3.4-2.4,3.8-4.3
				c-4.2,0.4-8.5,0.8-12.7,1.2c-1.1,0.1-2.4,0.3-3,1.3"/>
			<g>
				<path class="st11" d="M175.9,510.7c7,2,18.4,3.4,21-5.5c0.4-1.4-0.8-3.3-2.4-3.2c-3.8,0.4-7.5,0.7-11.3,1.1
					c-2.3,0.2-4.5,0.3-6.2,2.1c-2.2,2.4,1.3,5.9,3.5,3.5c1.1-1.2,5.2-0.9,6.8-1.1c2.3-0.2,4.7-0.4,7-0.7c-0.8-1.1-1.6-2.1-2.4-3.2
					c-1.6,5.5-11,3.2-14.8,2C174.1,504.9,172.8,509.8,175.9,510.7L175.9,510.7z"/>
			</g>
		</g>
		<g>
			<path class="st31" d="M236.6,504c-0.3-3.8-0.1-8,2.5-10.7c1.7-1.8,4.1-2.7,6.5-3.3c3.6-1,7.7-1.6,11,0.3c3.8,2.2,5.2,6.9,6,11.3
				c0.5,2.7,0.7,5.9-1.2,7.9c-0.7,0.8-1.7,1.3-2.7,1.7c-2.8,1.4-5.7,2.8-8.7,3.3c-3.1,0.5-6.4,0.1-9-1.6s-4.5-4.7-4.3-7.9"/>
			<g>
				<path class="st11" d="M239.1,504c-0.3-5.8,1.1-9.9,7.2-11.7c6.4-1.8,11.3-0.2,13.2,6.5c0.5,1.9,1.3,4.5,0.9,6.5
					c-0.6,3-4.2,4.4-6.8,5.5c-5.4,2.1-14.1,1.9-14.3-5.8c-0.1-3.2-5.1-3.2-5,0c0.2,8.6,8.4,13.3,16.5,11.8c3.9-0.7,9.7-2.7,12.5-5.7
					c2.8-3,2.4-7.3,1.7-11c-1.7-8.7-7-14.7-16.4-13.4c-10.1,1.5-14.8,7.2-14.3,17.2C234.3,507.2,239.3,507.2,239.1,504L239.1,504z"
					/>
			</g>
		</g>
		<g>
			<path class="st31" d="M237.3,506.8c7.9-1.8,15.8-3.5,23.8-5.3"/>
			<g>
				<path class="st11" d="M238,509.2c7.9-1.8,15.8-3.5,23.8-5.3c3.1-0.7,1.8-5.5-1.3-4.8c-7.9,1.8-15.8,3.5-23.8,5.3
					C233.5,505.1,234.8,509.9,238,509.2L238,509.2z"/>
			</g>
		</g>
		<g>
			<path class="st31" d="M241.1,509.3c2.7,0.8,5.5,1.3,8.3,1.4c2,0.1,4-0.1,5.9-0.9c1.8-0.8,3.4-2.4,3.8-4.3
				c-4.2,0.4-8.5,0.8-12.7,1.2c-1.1,0.1-2.4,0.3-3,1.3"/>
			<g>
				<path class="st11" d="M240.4,511.7c7,2,18.4,3.4,21-5.5c0.4-1.4-0.8-3.3-2.4-3.2c-3.8,0.4-7.5,0.7-11.3,1.1
					c-2.3,0.2-4.5,0.3-6.2,2.1c-2.2,2.4,1.3,5.9,3.5,3.5c1.1-1.2,5.2-0.9,6.8-1.1c2.3-0.2,4.7-0.4,7-0.7c-0.8-1.1-1.6-2.1-2.4-3.2
					c-1.6,5.5-11,3.2-14.8,2C238.6,506,237.3,510.8,240.4,511.7L240.4,511.7z"/>
			</g>
		</g>
		<g>
			<path class="st31" d="M125.3,554.7c-0.3-3.8-0.1-8,2.5-10.7c1.7-1.8,4.1-2.7,6.5-3.3c3.6-1,7.7-1.6,11,0.3
				c3.8,2.2,5.2,6.9,6,11.3c0.5,2.7,0.7,5.9-1.2,7.9c-0.7,0.8-1.7,1.3-2.7,1.7c-2.8,1.4-5.7,2.8-8.7,3.3c-3.1,0.5-6.4,0.1-9-1.6
				c-2.6-1.7-4.5-4.7-4.3-7.9"/>
			<g>
				<path class="st11" d="M127.8,554.7c-0.3-5.8,1.1-9.9,7.2-11.7c6.4-1.8,11.3-0.2,13.2,6.5c0.5,1.9,1.3,4.5,0.9,6.5
					c-0.6,3-4.2,4.4-6.8,5.5c-5.4,2.1-14.1,1.9-14.3-5.8c-0.1-3.2-5.1-3.2-5,0c0.2,8.6,8.4,13.3,16.5,11.8c3.9-0.7,9.7-2.7,12.5-5.7
					c2.8-3,2.4-7.3,1.7-11c-1.7-8.7-7-14.7-16.4-13.4c-10.1,1.5-14.8,7.2-14.3,17.2C122.9,557.9,127.9,558,127.8,554.7L127.8,554.7z
					"/>
			</g>
		</g>
		<g>
			<path class="st11" d="M287.1,521.9c-0.4-0.6-0.7-1.3-1.1-1.9c-6.7-11.1-15.6-20-26-26.6c-1.4-0.9-2.9-1.7-4.3-2.6
				c-20.6-11.3-45.9-14-69.9-6.7c-1.6,0.5-3.2,1-4.7,1.6c-5.8,2.1-11.5,4.8-17,8.1c-14,8.4-25.4,19.9-33.3,33.4
				c-3.1,5.3-5.7,11-7.7,16.9l0,0c0,0.1-0.1,0.1-0.1,0.2c-0.2,0.6-0.4,1.2-0.6,1.8c-0.1,0.2-0.1,0.4-0.2,0.6l0,0c0,0,0,0,0,0
				c0,0,0,0,0,0c-0.1,0.4-0.3,0.9-0.4,1.4c-0.3,0.9-0.5,1.9-0.8,2.8c-5,19.9-2.9,40.1,6.1,57.7c0.9,1.7,1.8,3.4,2.8,5
				c1.3,2.1,2.6,4.2,4.1,6.2c0.4,0.5,0.8,1.1,1.2,1.6c0.6,0.7,1.2,1.5,1.8,2.2c0,0,0.1,0.1,0.1,0.1c1,1.2,2,2.4,3.1,3.5
				c0.7,0.7,1.3,1.4,2,2.1c9,9,20.2,15.8,32.7,19.8c1.8,0.6,3.6,1.1,5.5,1.6l0,0c1.2,0.3,2.4,0.6,3.6,0.8c3,0.6,6,1.1,9,1.4
				c0.4,0.1,0.7,0.1,1.1,0.1c1.5,0.1,2.9,0.2,4.4,0.3l0.6,0c8.3,0.3,16.6-0.4,24.7-2.3c0.3-0.1,0.6-0.1,0.9-0.2
				c4.1-1,8.1-2.3,12.1-3.8c0.7-0.3,1.5-0.6,2.2-0.9c2.5-1,4.9-2.2,7.3-3.4c-0.4-3.8-0.4-7.6-0.2-11.3c-3.3,1.9-6.7,3.7-10.1,5.1
				c0,0,0,0,0,0c-5,2.1-10.1,3.8-15.2,4.9c-6.7,1.5-13.6,2.1-20.4,1.9c-1.7,0-3.3-0.1-5-0.3c-3.1-0.3-6.2-0.8-9.3-1.4
				c-0.7-0.1-1.4-0.3-2-0.5c-7.2-1.7-13.9-4.4-20-7.9c-6.1-3.5-11.7-7.9-16.4-13c-0.9-1-1.8-2-2.6-3c-1.1-1.3-2.1-2.6-3.1-3.9
				c-1.2-1.6-2.3-3.3-3.4-5.1c-0.4-0.6-0.7-1.3-1.1-1.9c-7.5-13.3-10.3-28.5-8.4-43.9l0,0c0,0,0-0.1,0-0.1c0.2-1.3,0.4-2.6,0.6-3.9
				c0.2-1.1,0.4-2.1,0.6-3.1c0.1-0.6,0.3-1.2,0.4-1.9c0.1-0.4,0.2-0.8,0.3-1.2c0.1-0.5,0.3-1.1,0.4-1.6c0.3-1.1,0.7-2.2,1-3.3
				c0.7-2,1.4-4.1,2.3-6c0.6-1.3,1.1-2.6,1.8-3.9c7-14.4,18.4-26.7,32.8-35.4c4.8-2.9,9.7-5.2,14.7-7c1.6-0.6,3.1-1.1,4.7-1.6
				c1-0.3,2-0.6,3.1-0.9c0.6-0.2,1.2-0.3,1.8-0.5c14.1-3.4,28.6-3.1,41.8,0.7c5.2,1.5,10.1,3.5,14.8,6c1.5,0.8,2.9,1.6,4.3,2.5
				c0.2,0.1,0.4,0.2,0.5,0.4c1.4,0.9,2.7,1.8,4,2.7c7.3,5.4,13.6,12.2,18.5,20.3c1,1.6,1.9,3.3,2.7,5l0,0c0.2,0.4,0.4,0.9,0.6,1.3
				c2.3-2.8,4.6-5.5,7.1-8.2C287.6,522.8,287.3,522.3,287.1,521.9z"/>
		</g>
		<g>
			<path class="st11" d="M268,530.8c-4.3-7.2-9.9-13.3-16.6-18.1c-1-0.7-2-1.5-3.1-2.1c-1.4-0.9-2.8-1.7-4.3-2.5
				c-0.8-0.4-1.7-0.9-2.5-1.3c-0.9-0.4-1.7-0.8-2.6-1.2c-2-0.9-4.1-1.6-6.3-2.3c-2-0.6-4-1.2-6.1-1.6c-10.6-2.3-21.6-2-32.1,0.7
				c-1,0.3-2,0.5-3,0.8c-1.6,0.5-3.2,1-4.7,1.6l0,0c-3.3,1.2-6.5,2.7-9.7,4.4c-0.9,0.5-1.8,1-2.7,1.5c-0.6,0.4-1.2,0.7-1.8,1.1
				c-12.3,7.8-21.4,18.7-27,30.8c-1,2.2-1.9,4.4-2.7,6.7c-0.2,0.7-0.4,1.3-0.6,2c-0.3,0.9-0.6,1.9-0.8,2.9c0,0.1-0.1,0.3-0.1,0.4
				c-0.4,1.4-0.7,2.8-0.9,4.2c0,0,0,0.1,0,0.1c-0.2,1-0.4,2.1-0.5,3.1c-2,14,0.6,28.4,8.2,41.1c0.8,1.3,1.7,2.6,2.5,3.9
				c1,1.4,2,2.7,3.1,4c5.6,6.7,12.6,12,20.2,15.8c7.1,3.5,14.9,5.7,23,6.6c1.7,0.2,3.3,0.3,5,0.3c5.3,0.2,10.7-0.3,16.1-1.3
				c1-0.2,2-0.4,3-0.7c4.1-1,8.2-2.4,12.2-4.1l0,0c1.3-0.6,2.6-1.2,3.8-1.8c1.6-0.8,3.2-1.7,4.8-2.6c2.3-1.4,4.6-2.9,6.7-4.5
				c0.4-1.5,0.8-3,1.3-4.4c0.5-1.6,1.1-3.2,1.7-4.7c-1.1,1-2.2,2-3.3,3c-2.8,2.3-5.7,4.4-8.9,6.4c-0.4,0.2-0.7,0.4-1.1,0.6
				c-2.1,1.2-4.2,2.3-6.4,3.3c-3.9,1.7-7.9,3.1-11.9,4.1c-1.1,0.3-2.2,0.5-3.4,0.7c-4.7,0.9-9.3,1.3-14,1.1c-1.7,0-3.3-0.1-5-0.3
				c-10.7-1.1-20.8-4.8-29.4-10.8c-3.9-2.8-7.4-6-10.6-9.7c-1.1-1.3-2.1-2.6-3-4c-0.8-1.1-1.5-2.2-2.2-3.3
				c-5.8-9.7-8.4-20.5-8.1-31.3c0.1-3.3,0.5-6.6,1.1-9.8c0.3-1.5,0.6-2.9,1-4.4c0.4-1.6,0.9-3.2,1.5-4.8c0,0,0-0.1,0.1-0.1
				c0,0,0,0,0,0c5-13.9,15-26.4,29-34.9c0.8-0.5,1.6-1,2.5-1.4c0,0,0,0,0,0c2.8-1.5,5.7-2.9,8.7-4c1.6-0.6,3.2-1.1,4.7-1.6
				c0.2-0.1,0.4-0.1,0.6-0.2c1-0.3,2-0.6,3-0.8c9.6-2.3,19.5-2.5,29.1-0.5c2.8,0.6,5.4,1.3,8,2.3c2.7,0.9,5.3,2.1,7.7,3.4
				c1.4,0.7,2.8,1.5,4.1,2.4c0.1,0.1,0.2,0.1,0.2,0.1c0.7,0.4,1.4,0.9,2.1,1.4c6.5,4.5,12,10.4,16.1,17.3c2.1,3.6,3.8,7.3,5.1,11.1
				c0.1-0.1,0.2-0.3,0.3-0.4c1.1-1.4,2.2-2.9,3.3-4.3C271.2,536.8,269.7,533.7,268,530.8z M273,566.8c-0.1-0.1-0.1-0.1-0.2-0.2
				c-0.4-0.3-0.7-0.7-1.1-1c0,0.6-0.1,1.3-0.1,1.9c-0.1,1.5-0.3,2.9-0.5,4.4c-0.6,4-1.6,7.9-3,11.7c2.2-2.3,4.6-4.4,7-6.3l0,0
				c0.3-1.3,0.5-2.5,0.7-3.8c0.2-1.2,0.4-2.5,0.5-3.7C275.3,568.7,274.1,567.8,273,566.8z"/>
		</g>
		<g>
			<path class="st11" d="M226.4,551.4c-0.9-1.5-2-2.9-3.2-4.1c-1.2-1.2-2.5-2.2-3.9-3.1c-2.2-1.4-4.7-2.4-7.3-2.9
				c-3.3-0.7-6.6-0.7-9.8,0c-1.6,0.3-3.2,0.8-4.8,1.5c-1.1,0.5-2.1,1-3.2,1.6c-4.5,2.7-8,6.7-10,11.4c-0.4,0.9-0.7,1.9-1,2.8
				c-0.2,0.7-0.3,1.3-0.5,2c-1.1,5.4-0.1,10.8,2.7,15.5c0.4,0.7,0.8,1.3,1.3,1.9c1,1.3,2.2,2.6,3.5,3.6c2.7,2.3,6,3.8,9.7,4.6
				c1,0.2,1.9,0.4,2.9,0.4c0.3,0,0.5,0,0.7,0c1.4,0.1,2.9,0,4.3-0.1c0.9-0.1,1.8-0.3,2.7-0.5c2.4-0.6,4.8-1.6,7.1-2.9
				c0.4-0.3,0.9-0.6,1.3-0.9c0.2-0.1,0.4-0.3,0.6-0.4c1.4-1,2.6-2.1,3.7-3.3c0.7-0.7,1.3-1.5,1.8-2.3c1.6-2.2,2.8-4.7,3.6-7.4
				c0.6-1.9,0.9-3.9,0.9-5.9c0-1.5-0.1-2.9-0.3-4.3c0-0.2-0.1-0.4-0.1-0.7C228.6,555.7,227.7,553.4,226.4,551.4z M212.6,574.4
				c0,0-0.1,0.1-0.1,0.1c-1,0.6-2.1,1.1-3.2,1.5c-1.7,0.5-3.4,0.8-5.1,0.7c-0.7,0-1.4-0.1-2.2-0.3c-1.3-0.3-2.5-0.7-3.6-1.3
				c-1.5-0.8-2.8-2-3.8-3.4c-0.2-0.3-0.4-0.5-0.5-0.8c-1.6-2.6-2-5.7-1.3-8.9c0.1-0.2,0.1-0.5,0.2-0.7c0.4-1.4,1-2.8,1.9-4
				c1.2-1.7,2.8-3.3,4.7-4.4c0.3-0.2,0.5-0.3,0.8-0.5c1.1-0.6,2.3-1,3.4-1.3c0.4-0.1,0.9-0.2,1.3-0.2c1.6-0.2,3.3-0.2,4.9,0.1
				c1.3,0.3,2.6,0.8,3.7,1.4c0.3,0.2,0.6,0.3,0.9,0.5c1.1,0.8,2.1,1.7,2.9,2.8c0.2,0.2,0.3,0.5,0.5,0.7c0.5,0.8,0.8,1.6,1.1,2.4
				c0.5,1.6,0.7,3.3,0.5,5c-0.1,0.7-0.2,1.5-0.4,2.2c-0.5,1.9-1.5,3.6-2.7,5.1C215.3,572.4,214,573.5,212.6,574.4z"/>
		</g>
		<g>
			<path class="st11" d="M262.6,722.2l-10.1,3.1c-2.5-1.7-4.9-3.5-7.3-5.3l0,0l-6.3-20.2l0,0l-15.1-48.4l-3-9.6l-3-9.5l-1.5-4.8
				l-9.7-31.1l-3-9.7L203,585l0,0l-0.6-1.9l0.9-0.3l5.3-1.6l7.9-2.5l1.2-0.4l0.8,2.5l0.5,1.5l12.6,40.5l1.5,4.8l0,0l2.9,9.4l3,9.6
				l21.9,70.1L262.6,722.2z"/>
		</g>
		<g>
			<path class="st11" d="M275.9,573.4c-0.2,1.3-0.5,2.6-0.7,3.8c-4.2,3.3-8,7.1-11.4,11.2l-10.1-3.2l-28.6-9l-3.7-1.2l3.7-11.7
				l1.6-5.2l0.1-0.3l0.7,0.2l1.7,0.5l10.8,3.4l0,0l27.5,8.7l3.6,1.1L275.9,573.4z"/>
		</g>
		<g>
			<path class="st33" d="M137.8,553.3"/>
		</g>
		<g>
			<path class="st11" d="M194.7,557.3c-0.8,1.2-1.5,2.6-1.9,4c-0.1,0.3-0.1,0.5-0.2,0.7l-9.9-1.5l-34.7-5.3l-1.8-0.3l-2-0.3
				l-1.4-0.2l-1.5-0.2l-2.8-0.4l-4.4-0.7l-3.2-0.5l-5.7-0.9l-3.3-0.5l-0.9-0.1c0.2-0.9,0.5-1.9,0.8-2.8c0.1-0.5,0.3-0.9,0.4-1.4
				c0,0,0,0,0,0c0,0,0,0,0,0l0,0c0.1-0.2,0.1-0.4,0.2-0.6l1.2,0.2l8.8,1.3l4.4,0.7l6,0.9l5,0.8l0.1,0l36.5,5.6L194.7,557.3z"/>
		</g>
		<g>
			<path class="st11" d="M205,550.8c-0.4,0.1-0.9,0.1-1.3,0.2c-1.2,0.3-2.3,0.7-3.4,1.3l-2.8-9.7l-9.5-33l-1.4-4.8l-2.7-9.5
				l-2.8-9.6c1.6-0.6,3.2-1.1,4.7-1.6l2.8,9.6l2.7,9.4l1.4,4.8l9.6,33.2L205,550.8z"/>
		</g>
		<g>
			<path class="st11" d="M198.4,575l-8.2,6.5L160.8,605l-3.5,2.7l-3.9,3.1l-2.2,1.7l-4.7,3.7l-1.8,1.4l-3.1,2.5l-4.5,3.6
				c0,0,0,0,0,0L137,624c0,0-0.1-0.1-0.1-0.1c-0.6-0.7-1.2-1.5-1.8-2.2c-0.4-0.5-0.8-1.1-1.2-1.6l7.8-6.2l2.9-2.3l4.2-3.3l1.5-1.2
				l3.9-3.1l4.1-3.3l28.3-22.6l7.8-6.2C195.6,573.1,196.9,574.2,198.4,575z"/>
		</g>
		<g>
			<path class="st11" d="M209.2,576l-0.7,5.1l-0.7,5.4l-1.3,9.9l-4.3,32.3l-0.6,5l-1.3,10.1l-1.3,10c-1.7-0.1-3.3-0.2-5-0.3l1.3-9.9
				l1.3-10.2l0.6-4.9l5.5-41.7l0.2-1.6l0,0l0.3-2.2l0.8-6.1C205.8,576.7,207.6,576.5,209.2,576z"/>
		</g>
		<g>
			<path class="st11" d="M260,493.5l-5.6,8.3l-6.1,8.9l-2.8,4.1l-22.2,32.5l-5.8,8.5c-0.8-1.1-1.7-2.1-2.9-2.8
				c-0.3-0.2-0.6-0.4-0.9-0.5l5.7-8.3l21.8-31.9l2.8-4.2l6-8.9l5.7-8.3C257.1,491.7,258.6,492.6,260,493.5z"/>
		</g>
		<g>
			<path class="st11" d="M266.7,559.8l-26.7,2.3l0,0l-10.4,0.9l-4.5,0.4l-5.6,0.5c0.2-1.7,0-3.4-0.5-5l7.7-0.7l0.8-0.1l1.6-0.1
				l35.8-3.1C265.1,556.6,265.7,558.2,266.7,559.8z"/>
		</g>
		<g>
			<path class="st11" d="M251.7,609c-0.1,0.1-0.2,0.2-0.4,0.4c0,0,0,0,0,0c-0.6,1.6-1.2,3.1-1.7,4.7l-1.6-1.7l-6-6.4l-22.5-24.1
				l-1-1.1l-2-2.1l-3.9-4.2c1.5-0.9,2.7-2,3.8-3.3l6.9,7.4l21,22.5l7.4,7.9L251.7,609z"/>
		</g>
		<g>
			<g>
				<path class="st34" d="M187.9,669.2c12.9,0,12.9-20,0-20C175.1,649.2,175.1,669.2,187.9,669.2L187.9,669.2z"/>
			</g>
		</g>
		<g>
			<g>
				<path class="st11" d="M177.3,663.8c-0.3-5.8,1.1-9.9,7.2-11.7c6.4-1.8,11.3-0.2,13.2,6.5c0.5,1.9,1.3,4.5,0.9,6.5
					c-0.6,3-4.2,4.4-6.8,5.5c-5.4,2.1-14.1,1.9-14.3-5.8c-0.1-3.2-5.1-3.2-5,0c0.2,8.6,8.4,13.3,16.5,11.8c3.9-0.7,9.7-2.7,12.5-5.7
					c2.8-3,2.4-7.3,1.7-11c-1.7-8.7-7-14.7-16.4-13.4c-10.1,1.5-14.8,7.2-14.3,17.2C172.5,667,177.5,667,177.3,663.8L177.3,663.8z"
					/>
			</g>
		</g>
		<g>
			<g>
				<path class="st11" d="M176.2,669c7.9-1.8,15.8-3.5,23.8-5.3c3.1-0.7,1.8-5.5-1.3-4.8c-7.9,1.8-15.8,3.5-23.8,5.3
					C171.7,664.9,173.1,669.7,176.2,669L176.2,669z"/>
			</g>
		</g>
		<g>
			<g>
				<path class="st11" d="M178.6,671.4c7,2,18.4,3.4,21-5.5c0.4-1.4-0.8-3.3-2.4-3.2c-3.8,0.4-7.5,0.7-11.3,1.1
					c-2.3,0.2-4.5,0.3-6.2,2.1c-2.2,2.4,1.3,5.9,3.5,3.5c1.1-1.2,5.2-0.9,6.8-1.1c2.3-0.2,4.7-0.4,7-0.7c-0.8-1.1-1.6-2.1-2.4-3.2
					c-1.6,5.5-11,3.2-14.8,2C176.9,665.7,175.5,670.5,178.6,671.4L178.6,671.4z"/>
			</g>
		</g>
		<g>
			<g>
				<path class="st35" d="M135.3,627.1c12.9,0,12.9-20,0-20C122.4,607.1,122.4,627.1,135.3,627.1L135.3,627.1z"/>
			</g>
		</g>
		<g>
			<g>
				<path class="st11" d="M123.8,621.8c-0.3-5.8,1.1-9.9,7.2-11.7c6.4-1.8,11.3-0.2,13.2,6.5c0.5,1.9,1.3,4.5,0.9,6.5
					c-0.6,3-4.2,4.4-6.8,5.5c-5.4,2.1-14.1,1.9-14.3-5.8c-0.1-3.2-5.1-3.2-5,0c0.2,8.6,8.4,13.3,16.5,11.8c3.9-0.7,9.7-2.7,12.5-5.7
					c2.8-3,2.4-7.3,1.7-11c-1.7-8.7-7-14.7-16.4-13.4c-10.1,1.5-14.8,7.2-14.3,17.2C118.9,625,123.9,625,123.8,621.8L123.8,621.8z"
					/>
			</g>
		</g>
		<g>
			<g>
				<path class="st11" d="M122.6,627c7.9-1.8,15.8-3.5,23.8-5.3c3.1-0.7,1.8-5.5-1.3-4.8c-7.9,1.8-15.8,3.5-23.8,5.3
					C118.2,622.9,119.5,627.7,122.6,627L122.6,627z"/>
			</g>
		</g>
		<g>
			<g>
				<path class="st11" d="M125.1,629.4c7,2,18.4,3.4,21-5.5c0.4-1.4-0.8-3.3-2.4-3.2c-3.8,0.4-7.5,0.7-11.3,1.1
					c-2.3,0.2-4.5,0.3-6.2,2.1c-2.2,2.4,1.3,5.9,3.5,3.5c1.1-1.2,5.2-0.9,6.8-1.1c2.3-0.2,4.7-0.4,7-0.7c-0.8-1.1-1.6-2.1-2.4-3.2
					c-1.6,5.5-11,3.2-14.8,2C123.3,623.7,122,628.5,125.1,629.4L125.1,629.4z"/>
			</g>
		</g>
		<g>
			<g>
				<path class="st11" d="M119.4,553.8c-0.1,5.5,3.7,9.8,8.8,11.5c-0.6-0.6-1.2-1.2-1.7-1.7c0,0,0,0,0,0c0.2,0.8,0.9,1.6,1.7,1.7
					c0,0,0,0,0.1,0c-0.6-0.6-1.2-1.2-1.7-1.7c0,0,0,0,0,0c0.8,3.1,5.6,1.8,4.8-1.3c0,0,0,0,0,0c-0.2-0.8-0.9-1.6-1.7-1.7
					c0,0,0,0-0.1,0c0.6,0.6,1.2,1.2,1.7,1.7c-0.5-1.9-3.3-2.2-4.6-3.3c-1.5-1.3-2.3-3.1-2.2-5.1
					C124.5,550.6,119.5,550.6,119.4,553.8L119.4,553.8z"/>
			</g>
		</g>
		<g>
			<g>
				<path class="st36" d="M137.9,562.2c12.9,0,12.9-20,0-20C125,542.2,125,562.2,137.9,562.2L137.9,562.2z"/>
			</g>
		</g>
		<g>
			<g>
				<path class="st11" d="M123.2,558c7.9-1.8,15.8-3.5,23.8-5.3c3.1-0.7,1.8-5.5-1.3-4.8c-7.9,1.8-15.8,3.5-23.8,5.3
					C118.8,553.9,120.1,558.7,123.2,558L123.2,558z"/>
			</g>
		</g>
		<g>
			<g>
				<path class="st11" d="M125.7,560.5c7,2,18.4,3.4,21-5.5c0.4-1.4-0.8-3.3-2.4-3.2c-3.8,0.4-7.5,0.7-11.3,1.1
					c-2.3,0.2-4.5,0.3-6.2,2.1c-2.2,2.4,1.3,5.9,3.5,3.5c1.1-1.2,5.2-0.9,6.8-1.1c2.3-0.2,4.7-0.4,7-0.7c-0.8-1.1-1.6-2.1-2.4-3.2
					c-1.6,5.5-11,3.2-14.8,2C123.9,554.7,122.6,559.6,125.7,560.5L125.7,560.5z"/>
			</g>
		</g>
		<g>
			<g>
				<path class="st11" d="M170.6,503c-0.3-5.8,1.1-9.9,7.2-11.7c6.4-1.8,11.3-0.2,13.2,6.5c0.5,1.9,1.3,4.5,0.9,6.5
					c-0.6,3-4.2,4.4-6.8,5.5c-5.4,2.1-14.1,1.9-14.3-5.8c-0.1-3.2-5.1-3.2-5,0c0.2,8.6,8.4,13.3,16.5,11.8c3.9-0.7,9.7-2.7,12.5-5.7
					c2.8-3,2.4-7.3,1.7-11c-1.7-8.7-7-14.7-16.4-13.4c-10.1,1.5-14.8,7.2-14.3,17.2C165.7,506.2,170.7,506.2,170.6,503L170.6,503z"
					/>
			</g>
		</g>
		<g>
			<g>
				<path class="st12" d="M182.3,509.9c12.9,0,12.9-20,0-20C169.5,489.9,169.5,509.9,182.3,509.9L182.3,509.9z"/>
			</g>
		</g>
		<g>
			<g>
				<path class="st11" d="M169.5,508.2c7.9-1.8,15.8-3.5,23.8-5.3c3.1-0.7,1.8-5.5-1.3-4.8c-7.9,1.8-15.8,3.5-23.8,5.3
					C165,504.1,166.3,508.9,169.5,508.2L169.5,508.2z"/>
			</g>
		</g>
		<g>
			<g>
				<path class="st16" d="M247,509.9c12.9,0,12.9-20,0-20C234.1,489.9,234.1,509.9,247,509.9L247,509.9z"/>
			</g>
		</g>
		<g>
			<g>
				<path class="st11" d="M171.9,510.7c7,2,18.4,3.4,21-5.5c0.4-1.4-0.8-3.3-2.4-3.2c-3.8,0.4-7.5,0.7-11.3,1.1
					c-2.3,0.2-4.5,0.3-6.2,2.1c-2.2,2.4,1.3,5.9,3.5,3.5c1.1-1.2,5.2-0.9,6.8-1.1c2.3-0.2,4.7-0.4,7-0.7c-0.8-1.1-1.6-2.1-2.4-3.2
					c-1.6,5.5-11,3.2-14.8,2C170.1,504.9,168.8,509.8,171.9,510.7L171.9,510.7z"/>
			</g>
		</g>
		<g>
			<g>
				<path class="st11" d="M235.1,504c-0.3-5.8,1.1-9.9,7.2-11.7c6.4-1.8,11.3-0.2,13.2,6.5c0.5,1.9,1.3,4.5,0.9,6.5
					c-0.6,3-4.2,4.4-6.8,5.5c-5.4,2.1-14.1,1.9-14.3-5.8c-0.1-3.2-5.1-3.2-5,0c0.2,8.6,8.4,13.3,16.5,11.8c3.9-0.7,9.7-2.7,12.5-5.7
					c2.8-3,2.4-7.3,1.7-11c-1.7-8.7-7-14.7-16.4-13.4c-10.1,1.5-14.8,7.2-14.3,17.2C230.3,507.2,235.3,507.2,235.1,504L235.1,504z"
					/>
			</g>
		</g>
		<g>
			<g>
				<path class="st11" d="M234,509.2c7.9-1.8,15.8-3.5,23.8-5.3c3.1-0.7,1.8-5.5-1.3-4.8c-7.9,1.8-15.8,3.5-23.8,5.3
					C229.5,505.1,230.8,509.9,234,509.2L234,509.2z"/>
			</g>
		</g>
		<g>
			<g>
				<path class="st11" d="M236.4,511.7c7,2,18.4,3.4,21-5.5c0.4-1.4-0.8-3.3-2.4-3.2c-3.8,0.4-7.5,0.7-11.3,1.1
					c-2.3,0.2-4.5,0.3-6.2,2.1c-2.2,2.4,1.3,5.9,3.5,3.5c1.1-1.2,5.2-0.9,6.8-1.1c2.3-0.2,4.7-0.4,7-0.7c-0.8-1.1-1.6-2.1-2.4-3.2
					c-1.6,5.5-11,3.2-14.8,2C234.6,506,233.3,510.8,236.4,511.7L236.4,511.7z"/>
			</g>
		</g>
		<g>
			<g>
				<path class="st11" d="M123.8,554.7c-0.3-5.8,1.1-9.9,7.2-11.7c6.4-1.8,11.3-0.2,13.2,6.5c0.5,1.9,1.3,4.5,0.9,6.5
					c-0.6,3-4.2,4.4-6.8,5.5c-5.4,2.1-14.1,1.9-14.3-5.8c-0.1-3.2-5.1-3.2-5,0c0.2,8.6,8.4,13.3,16.5,11.8c3.9-0.7,9.7-2.7,12.5-5.7
					c2.8-3,2.4-7.3,1.7-11c-1.7-8.7-7-14.7-16.4-13.4c-10.1,1.5-14.8,7.2-14.3,17.2C118.9,557.9,123.9,558,123.8,554.7L123.8,554.7z
					"/>
			</g>
		</g>
		<g>
			<g>
				<path class="st11" d="M293.6,507.4c-7.6,8.5-15.2,17.1-22.4,25.9c-5.8,7.2-14.7,15.8-9.2,25.6c4.4,8,11.6,15.5,17.8,22.2
					c6.8,7.2,14.4,13.6,23.2,18.2c5.7,3,10.7-5.6,5-8.6c-14.3-7.6-24.8-20-34.4-32.7c-1.3-1.7-2.9-3.2-3.1-5.4
					c-0.2-2.3,1.3-4,2.7-5.8c2.8-3.7,5.8-7.3,8.8-10.9c6.1-7.3,12.5-14.4,18.8-21.5C305,509.7,297.9,502.6,293.6,507.4L293.6,507.4z
					"/>
			</g>
		</g>
		<path class="st31" d="M256.5,725.4"/>
	</g>
	<g id="Layer_5">
		<g>
			<path class="st11" d="M721.8,695.2c-1.6,10-4.9,19.3-9.7,27.7c-0.4,0.7-0.8,1.4-1.2,2.1c0,0,0,0,0,0c-6.3,10.1-15,18.5-26.2,24.7
				c-11.3,6.3-24.1,10.4-36.7,13.3c-12.8,3-26,4-38.8,0.3c-3.7-1.1-4.7-5.8-2-8.4c3.7-3.7,6.9-7.7,9.5-12.1
				c3.4-5.7,5.9-11.9,7.3-18.4c0.6-2.6,1-5.3,1.2-8c0.1-1.1,0.2-2.2,0.2-3.3c0.2-6.4,10.2-6.1,10,0.3c0,0.6,0,1.2-0.1,1.9
				c0,0.6-0.1,1.2-0.1,1.8c-0.5,5.7-1.6,11.3-3.4,16.7c-2.6,7.8-6.5,15.1-11.6,21.6c11.9,1.4,23.8-1.3,35.3-4.7
				c14.5-4.3,29-10.3,39.7-21.3c1.7-1.8,3.3-3.7,4.8-5.6c2-2.7,3.8-5.5,5.2-8.5c8.3-16.4,9.3-36.3,7.3-54.3c0-0.4-0.1-0.9-0.1-1.3
				c-0.6-4.9-1.3-10-2.4-15.1c-1.5-7.1-3.8-14-7.6-19.9c-7.4-11.3-21.5-15.2-34-18.2c-27.5-6.4-55.9-4-82.4,5.3
				c-27.6,9.7-53.8,23.8-80.6,35.5c-26.5,11.6-53.4,22.3-81,30.9c-27.7,8.6-56,14.7-84.9,17.2c-25.7,2.2-55.1,3.3-77.8-11.1
				c0,0-0.1,0-0.1,0c-9.8-6.2-17.8-15-21.9-26c-0.5-1.4-1-2.9-1.4-4.4c-0.5-1.7-0.9-3.5-1.2-5.3c-0.1-0.5-0.2-0.9-0.2-1.4
				c-0.4-2.9-0.7-5.9-0.7-8.9c0-0.5,0-1.1,0-1.6c0-3.1,0.2-6.2,0.6-9.2c0.1-0.7,0.2-1.3,0.3-2c0.2-1.3,0.4-2.6,0.6-3.9
				c0-0.1,0-0.2,0-0.2c0.1-0.7,0.3-1.4,0.4-2.1c1-4.6,2.3-9.1,4.1-13.4c0.4-1,0.8-2,1.2-3c0.3-0.7,0.6-1.4,0.9-2
				c0.4-0.9,0.9-1.9,1.4-2.8c2.3-4.5,5-8.8,8.1-12.9c0.3-0.3,0.5-0.7,0.8-1c3.8-4.9,8.2-9.5,13-13.5c0.4-0.3,0.7-0.6,1.1-0.9
				c1-0.8,2-1.6,3-2.4c0.4-0.3,0.8-0.6,1.2-0.9c0.2-0.1,0.4-0.3,0.6-0.4c1.2-0.8,2.3-1,3.3-0.8c1.9,0.4,3.3,2.2,3.7,4.3
				c0.2,1,0.1,2.1-0.4,3.1c0,0,0,0.1-0.1,0.1c-0.1,0.2-0.2,0.3-0.3,0.5c-0.3,0.6-0.8,1.1-1.5,1.6c-1,0.7-2.1,1.5-3.1,2.3h0
				c-0.5,0.4-1,0.8-1.4,1.2c-2,1.6-3.8,3.3-5.6,5.2c-1.2,1.2-2.4,2.5-3.5,3.9c-0.3,0.3-0.6,0.7-0.8,1c-4.4,5.3-8.1,11.2-10.9,17.5
				c-0.5,1-0.9,2-1.3,2.9c-0.1,0.2-0.1,0.4-0.2,0.5c0,0,0,0,0,0c-0.2,0.5-0.4,1.1-0.6,1.6c-0.4,1-0.8,2.1-1.1,3.1
				c0,0.1,0,0.2-0.1,0.2c-0.5,1.4-0.9,2.8-1.2,4.2c-0.3,1.1-0.6,2.2-0.8,3.4c-0.7,3.3-1.2,6.6-1.4,9.9c0,0.8-0.1,1.5-0.1,2.3
				c-0.1,3,0,6,0.3,9c0,0.3,0,0.6,0.1,0.9c0,0.3,0.1,0.7,0.1,1c4.3,32.5,38.9,41.5,66.9,41.6c59.6,0.3,117.7-18.7,172-41.5
				c27.8-11.7,54.7-25.3,82.5-36.9c25.9-10.8,52.9-17.2,81.1-14.7c23.9,2.1,54.1,8,65.1,32.1c1.3,2.8,2.4,5.7,3.3,8.6
				c1.6,5.1,2.8,10.4,3.6,15.7c0.6,3.9,1.1,7.9,1.5,11.8C723.7,672.8,723.6,684.1,721.8,695.2z"/>
		</g>
		<g>
			<path class="st11" d="M712.1,722.9c-0.2,0.8-0.7,1.5-1.3,2.1c0,0,0,0,0,0c-1.5,1.6-3.8,2.4-6.2,1.1c-1.6-0.8-3.1-1.6-4.7-2.3
				c-13.2-5.9-27.2-8.5-41.4-9.2c-6.8-0.3-13.7-0.1-20.6,0.4c-0.9,0.1-1.8,0.1-2.7,0.2c-3.4,0.3-6.7,0.7-10.1,1.2
				c-8.8,1.2-17.6,2.9-26.1,4.8c-37.8,8.4-74.9,20.2-110.8,34.6c-16.8,6.7-33.7,14-51,19.6c-11.8,3.9-23.9,7.1-36.2,8.9
				c-6.4,1-12.9,1.6-19.4,1.7c-32.5,0.7-61.9-12.3-85.2-34.4c-0.6-0.6-1.3-1.2-1.9-1.8c-7.7-7.6-14.6-15.9-20.7-24.7
				c-14.5-20.8-25.3-44.3-35.4-67.5c-0.6-1.3-0.6-2.6-0.2-3.7c1.3-3.8,7-5.7,9-1.2c4.6,10.5,9.3,21.1,14.5,31.6
				c9.8,19.7,21.1,38.6,36.1,54.5c4.4,4.7,9.1,9.1,14.2,13.1c12.5,10,26.8,17.7,42.4,21.4c17,4,35,3.3,52.1,0
				c0.4-0.1,0.9-0.2,1.3-0.3c36.9-7.3,70.9-25.1,106.1-37.6c34.2-12.1,69.7-22.9,105.6-28.3c10.7-1.6,21.6-2.6,32.4-2.6
				c5.9,0,11.8,0.3,17.6,1c12.3,1.4,24.3,4.4,35.8,9.6c1.6,0.7,3.2,1.5,4.7,2.3C712.3,718.8,712.8,720.9,712.1,722.9z"/>
		</g>
		<g>
			<g>
				<path class="st37" d="M355.6,721.6c8.3,12.8,17.3,25.2,27,37c4,5,11.2-2,7.2-6.9c-9.1-11.2-17.6-22.9-25.4-35
					C360.8,711.4,352,716.2,355.6,721.6L355.6,721.6z"/>
			</g>
			<path class="st37" d="M415.9,742.5c-2.5-4.7-5.1-9.4-7.6-14.1c-2-3.8-4.6-7.6-6-11.8c1.7-0.5,3.4-1.1,5-1.7
				c6-2.1,3.7-11.9-2.3-9.7c-7.1,2.5-14.3,4.6-21.7,6.2c-6.3,1.4-3.9,11.1,2.3,9.7c2.4-0.5,4.7-1.1,7-1.7c1.4,4.3,3.8,8.2,6,12.2
				c2.8,5.3,5.7,10.5,8.5,15.8C410.2,753,419,748.2,415.9,742.5z"/>
			<path class="st37" d="M459.5,707.7c-3,0.7-6,1.4-9,2.2c-0.9-2.4-1.8-4.7-2.6-7.1c3.8-1.2,7.5-2.4,11.3-3.5
				c6.1-1.9,3.8-11.6-2.3-9.7c-5.5,1.7-11,3.5-16.6,5.2c-1.5,0.5-2.5,1.5-3.1,2.6c-0.6,1-0.8,2.2-0.3,3.7c0,0.1,0.1,0.2,0.1,0.3
				c0,0.1,0.1,0.2,0.1,0.3c3.8,12.2,8.8,23.9,15.1,35c3.2,5.6,11.9,0.8,8.7-4.8c-2.3-4.1-4.4-8.2-6.4-12.5c2.4-0.6,4.9-1.2,7.3-1.8
				C468.1,715.9,465.8,706.2,459.5,707.7z"/>
			<path class="st37" d="M511.5,701.5c-4.1-0.8-8.1-1.5-12.2-1.9c4.5-4.8,7.5-10.5,2.4-16.4c-6.6-7.5-18.1-4.9-25.6,0.2
				c-2.7,0.3-5.1,2.5-4.1,5.9c3.7,12,8.6,23.5,14.8,34.4c3.1,5.6,11.9,0.8,8.7-4.8c-1.8-3.2-3.5-6.5-5.1-9.9
				c6.1,0.2,12.2,0.9,18.2,2.1C514.9,712.4,517.8,702.8,511.5,701.5z M483,691c3.7-1.9,10.7-4.3,10.9-0.7c0.1,1.4-3.1,3.5-4,4.4
				c-1.4,1.3-2.8,2.6-4.1,3.8C484.8,696,483.9,693.5,483,691z"/>
			<path class="st37" d="M540,692.1c-0.9,0.3-7.3,1.4-9.4,2.3c-0.2-0.3-0.3-0.6-0.5-0.9c-0.9-1.7-1.8-3.4-2.7-5.1
				c-0.1-0.2-0.2-0.4-0.3-0.6c0.4-0.1,0.7-0.2,1.1-0.3c2.5-0.6,4.4-3.4,3.7-6c-0.8-2.6-3.3-4.3-6-3.7c-1.1,0.3-2.2,0.5-3.4,0.8
				c-0.9-1.9-1.8-3.7-2.7-5.6c3.2-1.3,6.3-2.6,9.3-4.2c5.7-2.9,0.9-11.7-4.8-8.7c-3.9,2-7.9,3.7-12.1,5.2c-2.8,0.7-5.3,3.9-3.6,7.3
				c4.3,9.3,8.8,18.5,13.8,27.4c1.6,3,3.3,5.3,7,5.1c4.3-0.2,8.9-2.2,13.1-3.4C548.5,700.1,546.2,690.4,540,692.1z"/>
			<g>
				<path class="st37" d="M570,643.6c-5.8-0.9-12.3-0.6-16,4.7c-3,4.3-4.4,10.3-1.4,15c3.2,5,9.5,6.7,14.5,9.2
					c1.9,0.9,6.4,2.7,6.3,5.3c-0.1,3.7-7,1.6-8.9,0.6c-5.6-3.1-10.8,5.4-5.2,8.5c5.3,3,11.8,4.1,17.5,1.5c5.7-2.6,9-9.2,6.1-15.1
					c-2.8-5.8-9.1-8.5-14.6-11c-2.1-1-7.1-2.3-7.5-5c-0.8-5,6.2-3.9,8.7-3.5C576.1,654.6,576.3,644.6,570,643.6L570,643.6z"/>
			</g>
			<path class="st37" d="M633.6,672.6c-2.1-12.8-4.8-25.6-7.9-38.2c-1.6-6.2-11.3-3.9-9.7,2.3c0.8,3.3,1.6,6.6,2.4,9.9
				c-4.5,0.4-8.9,1.1-13.2,2.2c-0.8-3.7-1.7-7.4-2.6-11.1c-1.5-6.3-11.2-3.9-9.7,2.3c3.1,12.9,5.9,25.9,8.3,39
				c1.2,6.3,10.9,4,9.7-2.3c-1.1-6.1-2.3-12.1-3.6-18.1c4.3-1.1,8.7-1.9,13.2-2.2c1.3,6.1,2.4,12.3,3.4,18.5
				C625,681.3,634.7,678.9,633.6,672.6z"/>
			<path class="st37" d="M663.4,634.2c-1.3,3.7-2.5,7.4-3.8,11.1c-4.1-3.9-7.8-8.1-11.2-12.6c-1.6-2.2-5.3-1.8-7.1-0.1
				c-2.2,2-1.7,4.9-0.1,7.1c4.2,5.6,8.9,10.7,14.1,15.4c0.3,0.2,0.5,0.4,0.8,0.6c-2,5.9-4,11.8-6,17.7c-2.1,6.1,7.5,9,9.6,2.9
				c4.4-13,8.8-26.1,13.2-39.1C675,630.9,665.4,628.1,663.4,634.2z"/>
			<path class="st37" d="M344.6,744.6c-0.7-1.7-2.2-3.2-3.8-4.5c0.5-1.1,0.9-2.2,1.1-3.3c0.3-1.7-0.5-3.3-2.2-3.8
				c-1.8-0.6-3.8,0.3-5.5,1.3c-0.9-0.8-1.9-1.5-2.9-2.1c-0.7-0.4-1.8-0.6-2.5-0.1c-2.2,1.6-1.7,3.6-1.4,6c-2.9,1.8-5.4,4.2-3.3,7
				c1,1.4,3,1.6,4.8,1.7c0.3,1.2,0.5,2.4,0.8,3.6c0,0.5-0.1,1-0.1,1.5c-0.1,2.7,3.3,3.3,4.6,1.4c1.3-1.7,2.1-3.7,3-5.6
				c1.7,0.2,3.4,0.4,5.1,0.6C344.4,748.5,345.3,746.2,344.6,744.6z"/>
			<path class="st37" d="M705.4,666.8c-0.6-2.7-3-4-5.5-4.7c-0.4-3.1-1.4-5.6-3.8-6.4c-3-1-5.3,1.7-7.1,3.7
				c-2.7-0.6-5.4-0.9-7.8-0.4c-0.9,0.2-1.6,0.9-1.8,1.7c-0.7,2.4,0.8,4.8,2.2,6.8c-1.5,1.6-2.9,3.2-4.4,4.9
				c-0.2,0.2-0.3,0.3-0.4,0.5c-1.4,1.7-0.2,4.7,2.4,4.1c2.7-0.7,5.4-1.4,8.1-2.1c1.3,1.5,2.6,2.9,3.8,4.3c1.4,1.6,2.9,3.7,5.3,2.9
				c2.7-0.9,2.5-4.7,2.7-6.9c0.1-1,0.3-2.5,0.5-4.2c1.3-0.4,2.6-0.9,3.9-1.3C704.8,669.4,705.7,668.2,705.4,666.8z M694.6,673.2
				c-0.1-0.1-0.1-0.2-0.2-0.3c0.1,0,0.2-0.1,0.2-0.1C694.7,672.9,694.6,673,694.6,673.2z"/>
		</g>
		<g>
			<g>
				<path class="st35" d="M353.6,717.8c8.3,12.8,17.3,25.2,27,37c4,5,11.2-2,7.2-6.9c-9.1-11.2-17.6-22.9-25.4-35
					C358.9,707.6,350.1,712.4,353.6,717.8L353.6,717.8z"/>
			</g>
			<path class="st35" d="M414,738.7c-2.5-4.7-5.1-9.4-7.6-14.1c-2-3.8-4.6-7.6-6-11.8c1.7-0.5,3.4-1.1,5-1.7c6-2.1,3.7-11.9-2.3-9.7
				c-7.1,2.5-14.3,4.6-21.7,6.2c-6.3,1.4-3.9,11.1,2.3,9.7c2.4-0.5,4.7-1.1,7-1.7c1.4,4.3,3.8,8.2,6,12.2c2.8,5.3,5.7,10.5,8.5,15.8
				C408.3,749.2,417,744.4,414,738.7z"/>
			<path class="st35" d="M457.6,703.9c-3,0.7-6,1.4-9,2.2c-0.9-2.4-1.8-4.7-2.6-7.1c3.8-1.2,7.5-2.4,11.3-3.5
				c6.1-1.9,3.8-11.6-2.3-9.7c-5.5,1.7-11,3.5-16.6,5.2c-1.5,0.5-2.5,1.5-3.1,2.6c-0.6,1-0.8,2.2-0.3,3.7c0,0.1,0.1,0.2,0.1,0.3
				c0,0.1,0.1,0.2,0.1,0.3c3.8,12.2,8.8,23.9,15.1,35c3.2,5.6,11.9,0.8,8.7-4.8c-2.3-4.1-4.4-8.2-6.4-12.5c2.4-0.6,4.9-1.2,7.3-1.8
				C466.2,712.1,463.9,702.4,457.6,703.9z"/>
			<path class="st35" d="M509.6,697.7c-4.1-0.8-8.1-1.5-12.2-1.9c4.5-4.8,7.5-10.5,2.4-16.4c-6.6-7.5-18.1-4.9-25.6,0.2
				c-2.7,0.3-5.1,2.5-4.1,5.9c3.7,12,8.6,23.5,14.8,34.4c3.1,5.6,11.9,0.8,8.7-4.8c-1.8-3.2-3.5-6.5-5.1-9.9
				c6.1,0.2,12.2,0.9,18.2,2.1C513,708.6,515.9,699,509.6,697.7z M481.1,687.2c3.7-1.9,10.7-4.3,10.9-0.7c0.1,1.4-3.1,3.5-4,4.4
				c-1.4,1.3-2.8,2.6-4.1,3.8C482.9,692.2,481.9,689.7,481.1,687.2z"/>
			<path class="st35" d="M538.1,688.3c-0.9,0.3-7.3,1.4-9.4,2.3c-0.2-0.3-0.3-0.6-0.5-0.9c-0.9-1.7-1.8-3.4-2.7-5.1
				c-0.1-0.2-0.2-0.4-0.3-0.6c0.4-0.1,0.7-0.2,1.1-0.3c2.5-0.6,4.4-3.4,3.7-6c-0.8-2.6-3.3-4.3-6-3.7c-1.1,0.3-2.2,0.5-3.4,0.8
				c-0.9-1.9-1.8-3.7-2.7-5.6c3.2-1.3,6.3-2.6,9.3-4.2c5.7-2.9,0.9-11.7-4.8-8.7c-3.9,2-7.9,3.7-12.1,5.2c-2.8,0.7-5.3,3.9-3.6,7.3
				c4.3,9.3,8.8,18.5,13.8,27.4c1.6,3,3.3,5.3,7,5.1c4.3-0.2,8.9-2.2,13.1-3.4C546.6,696.3,544.3,686.6,538.1,688.3z"/>
			<g>
				<path class="st35" d="M568.1,639.7c-5.8-0.9-12.3-0.6-16,4.7c-3,4.3-4.4,10.3-1.4,15c3.2,5,9.5,6.7,14.5,9.2
					c1.9,0.9,6.4,2.7,6.3,5.3c-0.1,3.7-7,1.6-8.9,0.6c-5.6-3.1-10.8,5.4-5.2,8.5c5.3,3,11.8,4.1,17.5,1.5c5.7-2.6,9-9.2,6.1-15.1
					c-2.8-5.8-9.1-8.5-14.6-11c-2.1-1-7.1-2.3-7.5-5c-0.8-5,6.2-3.9,8.7-3.5C574.1,650.8,574.4,640.7,568.1,639.7L568.1,639.7z"/>
			</g>
			<path class="st35" d="M631.7,668.8c-2.1-12.8-4.8-25.6-7.9-38.2c-1.6-6.2-11.3-3.9-9.7,2.3c0.8,3.3,1.6,6.6,2.4,9.9
				c-4.5,0.4-8.9,1.1-13.2,2.2c-0.8-3.7-1.7-7.4-2.6-11.1c-1.5-6.3-11.2-3.9-9.7,2.3c3.1,12.9,5.9,25.9,8.3,39
				c1.2,6.3,10.9,4,9.7-2.3c-1.1-6.1-2.3-12.1-3.6-18.1c4.3-1.1,8.7-1.9,13.2-2.2c1.3,6.1,2.4,12.3,3.4,18.5
				C623,677.5,632.8,675.1,631.7,668.8z"/>
			<path class="st35" d="M661.5,630.3c-1.3,3.7-2.5,7.4-3.8,11.1c-4.1-3.9-7.8-8.1-11.2-12.6c-1.6-2.2-5.3-1.8-7.1-0.1
				c-2.2,2-1.7,4.9-0.1,7.1c4.2,5.6,8.9,10.7,14.1,15.4c0.3,0.2,0.5,0.4,0.8,0.6c-2,5.9-4,11.8-6,17.7c-2.1,6.1,7.5,9,9.6,2.9
				c4.4-13,8.8-26.1,13.2-39.1C673.1,627.1,663.5,624.2,661.5,630.3z"/>
			<path class="st35" d="M342.7,740.8c-0.7-1.7-2.2-3.2-3.8-4.5c0.5-1.1,0.9-2.2,1.1-3.3c0.3-1.7-0.5-3.3-2.2-3.8
				c-1.8-0.6-3.8,0.3-5.5,1.3c-0.9-0.8-1.9-1.5-2.9-2.1c-0.7-0.4-1.8-0.6-2.5-0.1c-2.2,1.6-1.7,3.6-1.4,6c-2.9,1.8-5.4,4.2-3.3,7
				c1,1.4,3,1.6,4.8,1.7c0.3,1.2,0.5,2.4,0.8,3.6c0,0.5-0.1,1-0.1,1.5c-0.1,2.7,3.3,3.3,4.6,1.4c1.3-1.7,2.1-3.7,3-5.6
				c1.7,0.2,3.4,0.4,5.1,0.6C342.5,744.7,343.4,742.3,342.7,740.8z"/>
			<path class="st35" d="M703.4,663c-0.6-2.7-3-4-5.5-4.7c-0.4-3.1-1.4-5.6-3.8-6.4c-3-1-5.3,1.7-7.1,3.7c-2.7-0.6-5.4-0.9-7.8-0.4
				c-0.9,0.2-1.6,0.9-1.8,1.7c-0.7,2.4,0.8,4.8,2.2,6.8c-1.5,1.6-2.9,3.2-4.4,4.9c-0.2,0.2-0.3,0.3-0.4,0.5
				c-1.4,1.7-0.2,4.7,2.4,4.1c2.7-0.7,5.4-1.4,8.1-2.1c1.3,1.5,2.6,2.9,3.8,4.3c1.4,1.6,2.9,3.7,5.3,2.9c2.7-0.9,2.5-4.7,2.7-6.9
				c0.1-1,0.3-2.5,0.5-4.2c1.3-0.4,2.6-0.9,3.9-1.3C702.9,665.5,703.7,664.4,703.4,663z M692.7,669.3c-0.1-0.1-0.1-0.2-0.2-0.3
				c0.1,0,0.2-0.1,0.2-0.1C692.7,669.1,692.7,669.2,692.7,669.3z"/>
		</g>
	</g>
	<g id="Layer_7">
		<g>
			<path class="st11" d="M743.9,614.4c-0.6-5.7-2.7-10.5-5.7-14.6c-9.4-12.5-28-17.8-43-20.1c-19.1-2.9-48.4-3.7-54.4,20.1
				c-0.7,2.8-5,1.5-4.3-1.3c6.7-26.8,38.9-26.5,60.5-23.1c15.5,2.4,33.2,8.2,43.3,20.1c3.1,3.7,5.5,7.9,6.9,12.8
				C746.2,610.4,745.1,612.4,743.9,614.4z"/>
		</g>
		<g>
			<path class="st11" d="M665.3,577.8c4.1-13.8,21.9-11,32.7-9.4c11.6,1.7,25.5,5.4,29.1,18.2c0.8,2.8,5.1,1.7,4.3-1
				c-4.2-15-19.5-19.5-33.3-21.6c-13.1-1.9-32.3-3.7-37.1,12.5C660.2,579.2,664.5,580.5,665.3,577.8L665.3,577.8z"/>
		</g>
		<g>
			<path class="st11" d="M679.8,562.9c-1.2-1.5-1.9-3.3-2.3-5.2c-0.6-2.8-4.9-1.8-4.3,1c0.5,2.7,1.7,5.1,3.4,7.2
				c0.7,0.9,2.3,0.8,3.2,0.1C680.7,565.1,680.6,563.8,679.8,562.9L679.8,562.9z"/>
		</g>
		<g>
			<path class="st11" d="M677.5,557.7c0.2-0.8,2.3-1.9,2.8-2.6c0.7-0.8,1.1-1.7,1.6-2.6c1.7-3.5,2.4-7.4,3-11.2
				c1.3-7.9,2.5-17.3,11-20.7c2.6-1.1,0.5-5-2.2-3.9c-7.2,3-10.6,10.2-12,17.4c-0.9,4.4-1.3,9-2.6,13.4c-0.9,2.8-2.1,4.4-4.1,6.4
				c-0.9,0.9-1.3,1.2-1.7,2.5C672.4,559.2,676.7,560.5,677.5,557.7L677.5,557.7z"/>
		</g>
		<g>
			<path class="st11" d="M721,538.6c-1.7,10.2,0.1,20,4.3,27.9c-1.2,0.7-2.9,0.4-3.1-1.3c-0.2-1.3-1.4-2.4-1.9-3.6
				c-0.5-1.2-0.7-2.5-0.9-3.8c-0.5-4,0.1-7.9,0.6-11.9c1-7.2,2.2-15.5-3.3-21.1c-0.3-0.4-0.7-0.7-1.1-1c-2.2-1.8,1-4.8,3.1-3.2
				c0,0,0.1,0,0.1,0.1c2.5,2.1,4.1,4.6,5.2,7.5C722.6,531.5,721.6,535,721,538.6z"/>
		</g>
		<g>
			<path class="st11" d="M696,520.7c5.3-1,14.5-1.1,18.9,2.6c2.2,1.8,5.4-1.2,3.2-3.1c-5.8-4.9-16.1-5.3-23.2-3.9
				C692.1,517,693.2,521.3,696,520.7L696,520.7z"/>
		</g>
		<g>
			<path class="st11" d="M697.5,518.1c0.4-7.9,16.5-5.5,15.2,2.5c-0.4,2.8,4,2.9,4.5,0.1c2.1-13.4-23.5-16.8-24.1-2.7
				C692.9,520.9,697.4,521,697.5,518.1L697.5,518.1z"/>
		</g>
		<g>
			<path class="st11" d="M703.2,510.1c0.8-5.2,3.2-9.7,6.8-13.4c-1.2-0.2-2.3-0.4-3.5-0.5c2.8,4.9,3.9,10.2,3.5,15.8
				c-0.2,2.9,4.2,3,4.5,0.1c0.5-6.4-0.9-12.5-4.1-18.1c-0.7-1.2-2.5-1.6-3.5-0.5c-4.5,4.6-7.3,10.1-8.2,16.5
				C698.3,512.8,702.8,512.9,703.2,510.1L703.2,510.1z"/>
		</g>
	</g>
</g>
<g id="_x32_019">
</g>
</svg>
