<svg xmlns="http://www.w3.org/2000/svg" viewBox="0 0 685.79 678.58"><defs><style>.cls-1{fill:#699;}.cls-15,.cls-2{fill:#ffe6a9;}.cls-14,.cls-20,.cls-21,.cls-22,.cls-28,.cls-3,.cls-32,.cls-7{fill:none;}.cls-3{stroke:#f17b7f;stroke-width:4.04px;}.cls-14,.cls-15,.cls-20,.cls-21,.cls-22,.cls-23,.cls-28,.cls-29,.cls-3,.cls-7{stroke-linecap:round;}.cls-14,.cls-15,.cls-28,.cls-29,.cls-3,.cls-7{stroke-linejoin:round;}.cls-4{fill:#fdb93f;}.cls-5{fill:#efa224;}.cls-6{fill:#f58345;}.cls-29,.cls-7{stroke:#f9bb98;stroke-width:2.73px;}.cls-8{fill:#fff;}.cls-9{fill:#bb3838;}.cls-10{fill:#f89938;}.cls-11,.cls-23{fill:#cccccb;}.cls-12{fill:#414042;}.cls-13{fill:#b89bc9;}.cls-14,.cls-15,.cls-28{stroke:#ffe6a9;}.cls-14,.cls-15{stroke-width:4.41px;}.cls-16{fill:#d67b2b;}.cls-17{fill:#72c8f1;}.cls-18{fill:#8bcfb7;}.cls-19{fill:#c878b1;}.cls-20,.cls-21,.cls-22{stroke:#fff;opacity:0.8;}.cls-20,.cls-21,.cls-22,.cls-23,.cls-31,.cls-32,.cls-36{stroke-miterlimit:10;}.cls-20{stroke-width:16px;}.cls-21{stroke-width:10.08px;}.cls-22{stroke-width:4.41px;}.cls-23{stroke:#ababab;stroke-width:12px;}.cls-24{fill:#efa225;}.cls-25{fill:#f2696a;}.cls-26{fill:#f49351;}.cls-27{fill:#ea833c;}.cls-28{stroke-width:5.44px;}.cls-29{fill:#f9bb97;}.cls-30,.cls-31{fill:#a9d9bc;}.cls-31,.cls-32{stroke:#414042;stroke-width:5px;}.cls-33{fill:#f17b7f;}.cls-34{fill:#fc6;}.cls-35{fill:#a8d48c;}.cls-36{fill:#333;stroke:#333;stroke-width:7px;}</style></defs><title>LOGO สายรหัสll</title><g id="COLOR"><circle class="cls-1" cx="339.29" cy="339.29" r="330.7"/><polygon class="cls-2" points="331.63 345.62 261.67 17.83 295.21 11.51 352.19 8.51 383.57 11.48 394.5 13.14 331.63 345.62"/><polygon class="cls-2" points="333.17 341.89 515.48 60.63 543.66 79.88 586.07 118.05 606.17 142.34 612.72 151.24 333.17 341.89"/><polygon class="cls-2" points="333.85 342.84 661.65 272.88 667.96 306.41 670.96 363.39 667.99 394.78 666.33 405.7 333.85 342.84"/><polygon class="cls-2" points="336.87 338.3 618.13 520.61 598.88 548.79 560.71 591.2 536.42 611.3 527.51 617.85 336.87 338.3"/><polygon class="cls-2" points="335.23 345.81 53.97 163.49 73.22 135.32 111.39 92.91 135.68 72.81 144.58 66.26 335.23 345.81"/><polygon class="cls-2" points="341.67 343.74 13.88 413.71 7.57 380.17 4.56 323.19 7.53 291.8 9.2 280.88 341.67 343.74"/><polygon class="cls-2" points="341.08 338.74 158.77 620 130.59 600.75 88.18 562.59 68.08 538.29 61.53 529.39 341.08 338.74"/><line class="cls-3" x1="143.21" y1="342.37" x2="143.21" y2="370.64"/><line class="cls-3" x1="143.21" y1="332.27" x2="143.21" y2="334.96"/><line class="cls-3" x1="109.82" y1="375.36" x2="138.09" y2="375.36"/><line class="cls-3" x1="99.72" y1="375.36" x2="102.41" y2="375.36"/><line class="cls-3" x1="176.45" y1="375.36" x2="148.18" y2="375.36"/><line class="cls-3" x1="186.55" y1="375.36" x2="183.86" y2="375.36"/><line class="cls-3" x1="143.21" y1="408.13" x2="143.21" y2="379.86"/><line class="cls-3" x1="143.21" y1="418.23" x2="143.21" y2="415.54"/><line class="cls-3" x1="117.53" y1="349.58" x2="137.52" y2="369.57"/><line class="cls-3" x1="110.39" y1="342.44" x2="112.29" y2="344.34"/><line class="cls-3" x1="117.53" y1="401.29" x2="137.52" y2="381.3"/><line class="cls-3" x1="110.39" y1="408.44" x2="112.29" y2="406.53"/><line class="cls-3" x1="169.31" y1="350.09" x2="149.32" y2="370.07"/><line class="cls-3" x1="176.45" y1="342.94" x2="174.55" y2="344.84"/><line class="cls-3" x1="168.74" y1="400.79" x2="148.75" y2="380.8"/><line class="cls-3" x1="175.88" y1="407.93" x2="173.98" y2="406.03"/><polygon class="cls-4" points="222.6 577.01 208.18 510.41 191.54 430.15 188.54 361.78 191.98 315.66 204.03 271.34 218.27 257.63 240.08 241.93 277.67 224.79 333.36 209.97 366.29 205.2 402.2 208.42 420.56 216.59 431.23 227.83 441.82 246.8 452.59 269.8 462.83 296.55 469.67 319.06 469.26 336.64 463.64 348.66 412.16 396.29 427.06 429.17 437.2 422.94 447.51 421.57 450.75 425.92 458.22 433.17 455.39 450.08 447.44 465.38 461.95 503.66 422.19 520.92 380.14 538.58 333.48 558.09 295.34 568.97 255.01 578.68 233.85 580.71 223.48 581.85 222.6 577.01"/><path class="cls-5" d="M301,609.3c.33,33.13,19.69,65,49.42,79.86l5-18.63c-5.07-.16-12.66.21-15.89-4.54-2.26-3.35-3-8-4.17-11.84q-2-6.49-3.82-13-8-28-14-56.41c-1.13-5.29-7.31-8.36-12.3-7-5.72,1.57-7.79,6.94-7,12.3,4.32,28.69,9.83,58.34,29.93,80.61a70.45,70.45,0,0,0,35.32,21.2c14.29,3.53,29.14,3.18,43.73,2.6,12.82-.5,12.89-20.51,0-20-12.48.49-25.33,1.18-37.59-1.69a52.43,52.43,0,0,1-28.34-17.42c-16.61-19.22-20.12-46.44-23.77-70.61L298.29,590Q305.4,623.2,315,655.76c2.77,9.32,5,20.19,12.74,26.78s17.93,7.69,27.72,8,14-14.16,5-18.64C337,660.08,321.28,635.78,321,609.3c-.12-12.86-20.12-12.9-20,0Z" transform="translate(-108.9 -109.1)"/><path class="cls-5" d="M464.3,454.47a39.37,39.37,0,0,0,7.14,7.67c1.51,1.2,3,2.28,5,2.28,2.21,0,4.18-1.63,5.95-2.75,5.42-3.43.41-12.08-5.05-8.63a29.07,29.07,0,0,1-3.42,2.07l3.85-.51c.53.1.09,0-.47-.51s-1.15-1-1.69-1.57a26.54,26.54,0,0,1-2.7-3.1c-1.59-2.18-4.34-3.26-6.84-1.79-2.15,1.25-3.4,4.65-1.8,6.84Z" transform="translate(-108.9 -109.1)"/><path class="cls-5" d="M492.76,452.33c3.43,2.37,7.39,5.3,11.58,6.05s7.74-1.48,10.9-4.15c4.92-4.15-2.18-11.2-7.07-7.07-1.73,1.46-2,1.61-4,.5a74.45,74.45,0,0,1-6.33-4c-5.3-3.66-10.31,5-5,8.64Z" transform="translate(-108.9 -109.1)"/><path class="cls-5" d="M525.06,445.24c6.05,4.1,13.84,4.46,19.67-.12,2.13-1.67,1.75-5.32,0-7.07-2.1-2.1-4.94-1.67-7.07,0s-5.82-.27-7.55-1.45c-5.34-3.62-10.35,5-5.05,8.64Z" transform="translate(-108.9 -109.1)"/><path class="cls-5" d="M551.87,439.38a11.26,11.26,0,0,0,15.24.28,5.14,5.14,0,0,0,1.8-6.84c-1.28-2.18-4.63-3.36-6.84-1.8-.48.34-1.82,1.47-2.34,1.5-.73,0-2.17-1.29-2.81-1.77-2.16-1.63-5.59-.35-6.84,1.79-1.5,2.56-.37,5.21,1.79,6.84Z" transform="translate(-108.9 -109.1)"/><circle class="cls-6" cx="295.21" cy="354.42" r="37.48"/><line class="cls-7" x1="522.27" y1="325.83" x2="522.27" y2="344.89"/><line class="cls-7" x1="522.27" y1="319.02" x2="522.27" y2="320.83"/><line class="cls-7" x1="499.75" y1="348.07" x2="518.81" y2="348.07"/><line class="cls-7" x1="492.94" y1="348.07" x2="494.76" y2="348.07"/><line class="cls-7" x1="544.68" y1="348.07" x2="525.62" y2="348.07"/><line class="cls-7" x1="551.49" y1="348.07" x2="549.68" y2="348.07"/><line class="cls-7" x1="522.27" y1="370.17" x2="522.27" y2="351.11"/><line class="cls-7" x1="522.27" y1="376.98" x2="522.27" y2="375.17"/><line class="cls-7" x1="504.95" y1="330.69" x2="518.43" y2="344.17"/><line class="cls-7" x1="500.14" y1="325.87" x2="501.42" y2="327.16"/><line class="cls-7" x1="504.95" y1="365.56" x2="518.43" y2="352.08"/><line class="cls-7" x1="500.14" y1="370.38" x2="501.42" y2="369.09"/><line class="cls-7" x1="539.87" y1="331.03" x2="526.39" y2="344.51"/><line class="cls-7" x1="544.68" y1="326.21" x2="543.4" y2="327.5"/><line class="cls-7" x1="539.48" y1="365.22" x2="526" y2="351.74"/><line class="cls-7" x1="544.3" y1="370.04" x2="543.02" y2="368.75"/><polygon class="cls-8" points="358.15 340.87 382.3 335.57 396.73 332.41 449.79 320.83 468.85 315.67 460.32 325.01 455.43 328.97 447.02 326.74 441.32 324.02 435.17 333.87 428.02 333.96 415.57 329.83 404.41 344.22 392.83 342.46 385.02 336.63 379.62 343.71 373.87 351.59 367.18 350.4 358.15 340.87"/><polygon class="cls-9" points="149.62 564.49 172.41 575.56 194.84 579.65 205.51 564.03 212.31 552.32 191.76 540.11 174.27 524.31 171.58 513.16 193.31 485.61 168.25 463.75 163.05 463.09 138.95 495.82 132.78 526.61 137.6 546.58 149.62 564.49"/><polygon class="cls-9" points="521.29 600.81 516.59 628.61 505.38 648.09 514.29 651.08 548.72 646.47 579.59 630.17 598.54 616.9 595.49 612.84 548.74 599.99 521.29 600.81"/><polygon class="cls-10" points="529.7 488.25 535.05 479.49 543.43 472.92 555.81 467.66 556.67 462.55 562.98 457.53 570.1 455.81 565.87 447.74 570.63 443.79 575.8 424.8 580.39 412.4 586.15 409.32 586.77 404.2 592.15 402.21 593.23 394.61 599.4 385.24 602.9 393.32 602.85 403.84 606.78 411.25 610.92 416.32 607.6 443.82 617.78 468.79 621.48 480.31 634.75 493.23 608 529.92 588.95 505.14 557.26 489.87 529.7 488.25"/><path class="cls-11" d="M603.8,537l-15.17-12.64-6.32-24.88,7.17-17.73,11.31-21L615,453l19.94,7.83q3.84,4.16,7.69,8.32,3.21,3.48,6.43,7-1.08,14.69-2.15,29.36l-12.06,24-20.59,9.33Z" transform="translate(-108.9 -109.1)"/><polygon class="cls-12" points="487.25 491.12 487.61 470.89 495.91 460.76 503.99 465.56 502.8 490.74 487.25 491.12"/><polygon class="cls-13" points="480.81 431.34 482.3 443.58 487.38 452.16 495.51 450.2 499.69 437.98 493.52 426.28 480.81 431.34"/><polygon class="cls-13" points="508.38 433.92 520.67 450.83 519.27 472.31 503.99 465.56 495.51 450.2 502.33 433.92 508.38 433.92"/><line class="cls-14" x1="601.11" y1="226.81" x2="601.11" y2="257.66"/><line class="cls-14" x1="562.09" y1="267.03" x2="592.93" y2="267.03"/><line class="cls-14" x1="641.11" y1="267.03" x2="610.27" y2="267.03"/><line class="cls-14" x1="601.11" y1="306.91" x2="601.11" y2="276.07"/><line class="cls-14" x1="573.09" y1="238.9" x2="594.91" y2="260.71"/><line class="cls-14" x1="573.09" y1="295.33" x2="594.91" y2="273.52"/><line class="cls-14" x1="629.59" y1="239.45" x2="607.78" y2="261.26"/><line class="cls-14" x1="628.97" y1="294.78" x2="607.16" y2="272.96"/><circle class="cls-15" cx="601.22" cy="267.03" r="2.55"/><path class="cls-16" d="M721.19,568.26l.64-4.74a5.55,5.55,0,0,0-.5-3.86,5.18,5.18,0,0,0-3-2.3,5.09,5.09,0,0,0-6.15,3.5,19.85,19.85,0,0,0-.82,6.07c.19,2.6,2.16,5.12,5,5,2.55-.12,5.2-2.21,5-5a8.8,8.8,0,0,1,0-1c0-.22,0-.45,0-.68-.1.71-.12.87,0,.48.17-.72.31-1.46.49-2.18l-9.64-2.66-.64,4.74a5.53,5.53,0,0,0,.5,3.85,5.1,5.1,0,0,0,3,2.3,5,5,0,0,0,3.85-.51A4.77,4.77,0,0,0,721.19,568.26Z" transform="translate(-108.9 -109.1)"/><path class="cls-16" d="M714.25,545.56l-2.06,15.3c-.36,2.67.64,5.36,3.49,6.15a5.06,5.06,0,0,0,6.15-3.49,85.61,85.61,0,0,0,2.24-16.63c.25-6.44-9.75-6.43-10,0a71.56,71.56,0,0,1-1.88,14l9.64,2.66,2.06-15.3c.36-2.67-.64-5.37-3.49-6.15C718.07,541.43,714.61,542.87,714.25,545.56Z" transform="translate(-108.9 -109.1)"/><path class="cls-16" d="M719.53,524.16a16.88,16.88,0,0,0-5.13-5.66c-4.57-3.19-8.62,2.79-6.84,6.84l7.52,17.11c1.95,4.43,9.91,2.31,9.32-2.52a44.42,44.42,0,0,0-4.87-15.77c-3-5.68-11.66-.63-8.63,5.05a31.21,31.21,0,0,1,3.5,10.72l9.31-2.53-7.52-17.11-6.84,6.84a6.13,6.13,0,0,1,1.55,2.08C714.14,534.77,722.78,529.74,719.53,524.16Z" transform="translate(-108.9 -109.1)"/><path class="cls-16" d="M712,571.22l7.27,13.13c2.68,4.83,11.25,1.53,9.14-3.85a60.4,60.4,0,0,0-7.78-14.32c-1.6-2.17-4.32-3.27-6.84-1.8-2.13,1.25-3.41,4.66-1.79,6.84a52,52,0,0,1,6.77,11.94l9.14-3.85-7.28-13.13C717.52,560.55,708.88,565.58,712,571.22Z" transform="translate(-108.9 -109.1)"/><path class="cls-16" d="M728,579.36l0-.05a5,5,0,0,0-6.25-2,4.74,4.74,0,0,0-2.39,2,4.87,4.87,0,0,0-.5,3.85l.24.62a5.41,5.41,0,0,0,2.3,3,5,5,0,0,0,6.84-1.79,4.89,4.89,0,0,0,.5-3.86l-.21-.57a5.34,5.34,0,0,0-2.3-3,5,5,0,0,0-6.84,1.79,4.92,4.92,0,0,0-.5,3.85l.21.57,9.64-2.66c-.07-.21-.16-.41-.24-.62l-9.14,3.85,0,.06a5.12,5.12,0,0,0,3,2.29,5,5,0,0,0,5.65-7.34Z" transform="translate(-108.9 -109.1)"/><path class="cls-16" d="M736.44,594.66l-6.09-6.12c-4-4-10.84,1.15-7.85,6.06s2.25,10.94,1.38,16.52c-.53,3.38,2.18,7.59,6.15,6.15,5.15-1.88,9.85-5.26,11-10.93a11.43,11.43,0,0,0-5.64-12.46c-5.69-3-10.75,5.63-5,8.63,3,1.59-1.41,4.53-3,5.11l6.15,6.15c1.3-8.3,2.19-16.71-2.39-24.22l-7.85,6.06,6.09,6.12C733.91,606.3,741,599.23,736.44,594.66Z" transform="translate(-108.9 -109.1)"/><path class="cls-16" d="M725.25,582.82a9.76,9.76,0,0,0-3.89-2.39c-4.85-1.55-8.29,4.91-4.87,8.36l6.79,6.82a5,5,0,0,0,7.85-6.06,43.79,43.79,0,0,0-5.88-6.73,5,5,0,1,0-7.07,7.07c.86.84,1.73,1.68,2.55,2.56.38.41.74.83,1.11,1.25s.41.49.11.11c.19.26.37.52.55.79l7.85-6.06-6.79-6.83-4.86,8.36c-.27-.08-1.2-.82-.52-.18a5,5,0,0,0,7.07-7.07Z" transform="translate(-108.9 -109.1)"/><path class="cls-16" d="M722.59,634.5c2.26-3.82,4.85-7.6,6.51-11.73s1.8-8.57,1.53-13.06a79.68,79.68,0,0,0-6.51-26.64c-2.07-4.87-9.17-2-9.32,2.52L713.27,632c-.21,6.44,9.79,6.43,10,0l1.53-46.39-9.32,2.53a65.45,65.45,0,0,1,5.15,21.59c.23,3.78.33,7.26-1.4,10.72-1.55,3.1-3.51,6.05-5.28,9C710.67,635,719.31,640,722.59,634.5Z" transform="translate(-108.9 -109.1)"/><path class="cls-16" d="M704,581.61a26.52,26.52,0,0,1,11.27,16.46l4.57-1.93c-3.71-7.36-7.76-14.56-15.05-18.88l-1.92,4.57c8.42,3.08,11.84,18.1,11.56,25.95-.11,3.22,4.89,3.21,5,0,.38-10.5-4.36-26.79-15.23-30.77-2.72-1-4.31,3.16-1.93,4.57,6.52,3.86,10,10.54,13.25,17.09,1.31,2.61,5.19.74,4.57-1.93a31.61,31.61,0,0,0-13.57-19.45c-2.68-1.79-5.19,2.54-2.52,4.32Z" transform="translate(-108.9 -109.1)"/><path class="cls-16" d="M719.58,581.23c-.57-3.31-1.31-6.52-3.4-9.23a26.76,26.76,0,0,0-7-5.78c-2.7-1.76-5.21,2.56-2.52,4.32,2,1.32,4.23,2.67,5.69,4.67s1.94,4.82,2.37,7.35c.54,3.16,5.36,1.82,4.82-1.33Z" transform="translate(-108.9 -109.1)"/><path class="cls-16" d="M713.24,516.66a11.18,11.18,0,0,0-2.84-5.48,2.5,2.5,0,0,0-3.53,3.54,6.18,6.18,0,0,1,1.55,3.27,2.52,2.52,0,0,0,3.08,1.74,2.55,2.55,0,0,0,1.74-3.07Z" transform="translate(-108.9 -109.1)"/><path class="cls-16" d="M711.39,510.47c.25-4.15,1.08-8.53-.63-12.46-1.29-2.94-5.6-.4-4.32,2.52.61,1.41.36,3.13.28,4.61l-.33,5.33c-.19,3.22,4.81,3.21,5,0Z" transform="translate(-108.9 -109.1)"/><polygon class="cls-13" points="481.6 449.31 495.87 455.19 487.61 470.89 479.45 474.78 481.6 449.31"/><polygon class="cls-17" points="587.03 302.99 592.07 283.84 613.37 263.67 638 262.3 658.54 267.79 674.68 288.69 682.02 319.07 672.27 347 649.18 371.75 619.38 374.92 607.08 369.88 590.69 356.58 582.84 337.44 582.11 309.99 587.03 302.99"/><polygon class="cls-18" points="537.97 396.4 545.58 406.12 553.79 412.17 560.04 414.17 561.13 418.68 565.89 416.92 566.16 410.73 573.67 402.86 576 389.42 574.54 378.97 566.59 369.09 552.52 367.69 543.79 373.05 540.75 381.04 537.97 396.4"/><polygon class="cls-19" points="627.91 395.82 610.92 416.32 607.57 430.85 615.47 463.54 625.16 476.87 626.73 481.8 635.95 481.51 663.6 472.16 678.72 456.22 681.18 433.22 678.77 416.61 663.91 394.91 643.51 390.06 627.91 395.82"/><polygon class="cls-1" points="29.92 445.81 17.43 448.96 13.68 477.57 23.64 505.03 45.91 521.37 73.45 536.14 78.53 522.57 29.92 445.81"/><path class="cls-20" d="M730.42,392.93a38.79,38.79,0,0,0-15.27,13.74,39.32,39.32,0,0,0-5.72,25.18" transform="translate(-108.9 -109.1)"/><path class="cls-21" d="M747.3,516.7a24.47,24.47,0,0,0-9.62,8.65,24.77,24.77,0,0,0-3.6,15.87" transform="translate(-108.9 -109.1)"/><path class="cls-22" d="M660.37,487.25a10.73,10.73,0,0,0-4.2,3.78,10.88,10.88,0,0,0-1.58,6.94" transform="translate(-108.9 -109.1)"/><polygon class="cls-4" points="312.6 666.32 352.4 651.08 435.17 620.8 521.29 600.81 520.23 618.29 496.06 633.57 406.13 666.32 323.62 670.89 312.6 666.32"/><path class="cls-23" d="M644.31,471.57A31,31,0,0,1,647,482.88c.23,5.29-1,9.63-3.65,16.11-5.68,13.88-8.52,20.82-14,25.65-2.78,2.47-10.27,8.3-23.4,9.49" transform="translate(-108.9 -109.1)"/><path class="cls-16" d="M714,587.32c3.22,0,3.22-5,0-5s-3.22,5,0,5Z" transform="translate(-108.9 -109.1)"/><path class="cls-24" d="M619.66,720.13c-11.34,2.19-22.27,6-33.28,9.52C538,745,487.55,753.18,439.84,770.4c24.54,4.51,50,1.63,74.08-4.86S561,749,583.85,739c9.86-4.3,19.82-8.66,28.48-15" transform="translate(-108.9 -109.1)"/><path class="cls-5" d="M617,710.48c-15.62,3.15-30.59,8.9-45.86,13.35-14.73,4.3-29.61,8.07-44.51,11.77-30.07,7.46-60.24,14.69-89.45,25.16-4.19,1.5-7.34,5-7.34,9.64,0,4.1,3.07,8.9,7.34,9.65,31.91,5.61,64.09.64,94.61-9.45,15-5,29.68-11.07,44.22-17.33,14.1-6.06,28.83-11.63,41.37-20.64,4.38-3.15,6.5-8.71,3.59-13.69-2.53-4.32-9.27-6.75-13.68-3.58-11.81,8.48-25.53,13.8-38.79,19.53s-26.58,11.22-40.25,15.83c-27.41,9.24-56.88,15.12-85.75,10v19.29c29.2-10.47,59.38-17.7,89.45-25.17,14.89-3.7,29.77-7.47,44.51-11.77,15.27-4.45,30.24-10.19,45.86-13.34,5.3-1.07,8.34-7.36,7-12.3-1.51-5.52-7-8.06-12.3-7Z" transform="translate(-108.9 -109.1)"/><polygon class="cls-25" points="521.29 600.81 562.55 600.18 595.49 612.84 607.19 595.04 607.18 566.79 607.81 539.83 597.52 514.75 572.65 494.46 516.34 486.31 438.5 511.79 352.62 550.08 274.67 576.04 195.23 582.63 167.62 576.72 144.47 565.74 163 607.7 188.43 637.32 212.41 655.8 241.78 667.98 278.8 670.89 319.22 663.36 395.98 634.94 503.93 602.7 521.29 600.81"/><path class="cls-5" d="M289.49,552.75c1.24,13.22,5.39,26.39,8.38,39.3,2.9,12.54,22.19,7.23,19.28-5.32L313,568.56c-1.2-5.16-3-10.53-3.46-15.81s-4.24-10-10-10c-5,0-10.51,4.59-10,10Z" transform="translate(-108.9 -109.1)"/><polygon class="cls-26" points="306.81 213.9 275.61 201.41 258.42 232.67 249.83 233.32 220.03 220.63 209.56 261.02 168.84 267.29 174.43 303.3 187.38 320.8 143.44 347.58 142.63 356.14 154.83 374.38 186.18 407.24 158.87 436.7 156.38 444.82 178.69 472.83 197.72 484.55 176.49 509.67 174.27 524.31 212.31 552.32 216.08 556.02 197.83 581.19 223.48 581.85 208.18 510.41 189.57 410.98 188.54 361.78 193.69 299.76 210.64 265.48 240.08 241.93 306.81 213.9"/><path class="cls-5" d="M539.89,543.47c2.34,5.69,4.17,14.51,10.34,17.11,7.47,3.15,15-2.56,16.46-10,2.17-11.26-11.69-17.14-18.28-7.71a35.94,35.94,0,0,0-6,14.63c-.87,5.32,1.39,10.76,7,12.3,4.78,1.31,11.43-1.62,12.31-7a22.48,22.48,0,0,1,4-9.85l-18.28-7.71c-.13,1.24-.21,1.44-.25.61l3.59-3.59-.81.6,5-1.36-.89-.06,8.64,4.95c-1.09-1.66-2.5-5.7-3.55-8.24-2.06-5-6.64-8.54-12.3-7-4.72,1.3-9,7.28-7,12.31Z" transform="translate(-108.9 -109.1)"/><path class="cls-26" d="M269.74,553.76a144.79,144.79,0,0,0,21.33,18.46c4.9,3.46,10.27,6.91,12.76,12.37" transform="translate(-108.9 -109.1)"/><path class="cls-27" d="M264.44,559.07A157.25,157.25,0,0,0,282.26,575c5.24,4,12,7.33,15.09,13.4,4.42,8.59,17.36,1,12.95-7.57-3.59-7-10-11.12-16.16-15.57A139.62,139.62,0,0,1,275,548.46c-6.7-7-17.3,3.64-10.6,10.61Z" transform="translate(-108.9 -109.1)"/><path class="cls-27" d="M278.24,632.08c2.4,6.55,8.82,11.72,14.77,15.12a75.81,75.81,0,0,0,9.5,4.29c1.55.62,3.11,1.2,4.64,1.87.89.39,4.29,2.89,3.11,1.18,5.45,7.89,18.46.4,12.95-7.57-3.74-5.42-10-7.27-15.92-9.63a48.69,48.69,0,0,1-7.45-3.51c-1.71-1.06-6.46-3.88-7.14-5.74-3.3-9-17.8-5.1-14.46,4Z" transform="translate(-108.9 -109.1)"/><path class="cls-27" d="M248.09,462.71c3.1,9.75,9.93,17.09,18.47,22.49,3.72,2.36,7.82,4,11.62,6.19,4.72,2.76,5,6.75,5.18,11.92l14-3.78a84.15,84.15,0,0,0-13.73-15.4c-7.27-6.29-17.93,4.28-10.61,10.61a68.43,68.43,0,0,1,11.38,12.36c4,5.7,14.21,4.19,14-3.79-.17-5.76-.65-11.7-3.75-16.73-2.65-4.3-7-7.23-11.36-9.49-8.35-4.27-17.63-8.74-20.69-18.37-2.92-9.16-17.4-5.25-14.47,4Z" transform="translate(-108.9 -109.1)"/><path class="cls-27" d="M275.36,395.24a35.33,35.33,0,0,0,14.64,12c.42.19,3.7,1.75,4.06,1.49-1.89-2.38-2.59-2.43-2.12-.15l0,1.57c0,3.87-.46,7.34-2.55,10.68l9.14,1.19a77.92,77.92,0,0,0-5.66-16.59c-2.71-5.83-11.33-.75-8.63,5a66.32,66.32,0,0,1,4.65,14.2c.94,4.39,7,4.65,9.14,1.2,3.61-5.78,5.69-15.9,3.42-22.56-1.24-3.65-4.74-3.95-7.81-5.32a24.18,24.18,0,0,1-9.67-7.85c-3.77-5.13-12.45-.15-8.63,5.05Z" transform="translate(-108.9 -109.1)"/><path class="cls-27" d="M332.72,354.92c-3,.25-2-11.12-2-13.07.19-5.51-8.94-7-9.82-1.33-1.27,8.22-4.57,15.71-2.57,24.13,1.48,6.26,11.13,3.61,9.64-2.66s1.62-12.65,2.58-18.81l-9.83-1.33c-.28,8.33-.42,24.1,12,23.07,6.37-.53,6.43-10.54,0-10Z" transform="translate(-108.9 -109.1)"/><path class="cls-27" d="M389.54,327.16l-5.41.61-2.71.3-.9.1c-1.14,0-.85.22.86.65l1.29,2.21a16.19,16.19,0,0,1-.44-4.19c-.08-1.93-.1-3.87-.08-5.81,0-5.66-8.29-6.76-9.83-1.33a14.45,14.45,0,0,0,9.22,17.41c2.54.94,5.48-1,6.15-3.49.77-2.79-.95-5.21-3.49-6.15-2.05-.76-2.72-3.39-2.23-5.11L372.15,321c0,2.75,0,5.49.21,8.23.16,2.57.36,5.13,2.29,7.06s4.36,2,6.77,1.75c2.71-.29,5.41-.61,8.12-.91s5-2.08,5-5c0-2.47-2.3-5.3-5-5Z" transform="translate(-108.9 -109.1)"/><path class="cls-27" d="M327,687.8a26.18,26.18,0,0,0-1.3-11.21c-1.8-5.22-9.73-4.51-9.82,1.33.27-.76.3-1,.09-.73s-.61.75-.92,1.13c-.54.65-1.09,1.29-1.65,1.93q-1.8,2-3.71,4c-4.49,4.61,2.57,11.68,7.08,7.07q2.65-2.73,5.12-5.64c2-2.36,3.94-4.52,4-7.75l-9.82,1.33a19.08,19.08,0,0,1,.94,8.55c-.28,2.69,2.5,5,5,5,2.94,0,4.72-2.31,5-5Z" transform="translate(-108.9 -109.1)"/><line class="cls-28" x1="94.26" y1="259.03" x2="94.26" y2="297.09"/><line class="cls-28" x1="94.26" y1="245.43" x2="94.26" y2="249.06"/><line class="cls-28" x1="49.31" y1="303.44" x2="87.37" y2="303.44"/><line class="cls-28" x1="35.71" y1="303.44" x2="39.33" y2="303.44"/><line class="cls-28" x1="139.02" y1="303.44" x2="100.96" y2="303.44"/><line class="cls-28" x1="152.62" y1="303.44" x2="149" y2="303.44"/><line class="cls-28" x1="94.26" y1="347.56" x2="94.26" y2="309.5"/><line class="cls-28" x1="94.26" y1="361.16" x2="94.26" y2="357.54"/><line class="cls-28" x1="59.69" y1="268.74" x2="86.61" y2="295.65"/><line class="cls-28" x1="50.08" y1="259.12" x2="52.64" y2="261.68"/><line class="cls-28" x1="59.69" y1="338.36" x2="86.61" y2="311.45"/><line class="cls-28" x1="50.08" y1="347.98" x2="52.64" y2="345.42"/><line class="cls-28" x1="129.4" y1="269.42" x2="102.49" y2="296.33"/><line class="cls-28" x1="139.02" y1="259.8" x2="136.46" y2="262.36"/><line class="cls-28" x1="128.64" y1="337.68" x2="101.73" y2="310.77"/><line class="cls-28" x1="138.25" y1="347.3" x2="135.69" y2="344.74"/><line class="cls-7" x1="55.05" y1="305.84" x2="55.05" y2="324.9"/><line class="cls-7" x1="30.94" y1="330.69" x2="50" y2="330.69"/><line class="cls-7" x1="79.77" y1="330.69" x2="60.71" y2="330.69"/><line class="cls-7" x1="55.05" y1="355.34" x2="55.05" y2="336.28"/><line class="cls-7" x1="37.74" y1="313.31" x2="51.22" y2="326.79"/><line class="cls-7" x1="37.74" y1="348.18" x2="51.22" y2="334.7"/><line class="cls-7" x1="72.65" y1="313.65" x2="59.17" y2="327.13"/><line class="cls-7" x1="72.27" y1="347.84" x2="58.79" y2="334.36"/><circle class="cls-29" cx="55.12" cy="330.69" r="1.58"/></g><g id="LINE"><g id="line-2" data-name="line"><path class="cls-12" d="M781.5,385.59q-1.61-8.43-3.63-16.81A339.16,339.16,0,0,0,118.5,528q2,8.26,4.37,16.36v0l.61,2c.53,1.78,1.08,3.56,1.64,5.32.33,1,.67,2.08,1,3.11s.78,2.34,1.18,3.51c.51,1.49,1,3,1.55,4.46a.31.31,0,0,0,0,.12h0a13.87,13.87,0,0,0,6.31.33,21.7,21.7,0,0,0,4.45-1.33A62.39,62.39,0,0,0,147.84,603c.81,1.34,1.65,2.63,2.54,3.89l-1.52,1.22c.78,1.5,1.58,3,2.4,4.46l2.18-1.73a61.83,61.83,0,0,0,20.25,15.82c-2-3-3.89-6.09-5.76-9.2a56.91,56.91,0,0,1-10.58-9.73L160.8,605c-.82-1.49-1.62-3-2.4-4.49l-4.1,3.27c-.77-1.08-1.49-2.19-2.18-3.34a56.88,56.88,0,0,1-8.06-31.31q-1.53-3.87-3-7.8c-.31-.83-.61-1.68-.91-2.51l0-.08c-.47-1.31-.93-2.63-1.38-4-.12-.34-.23-.7-.36-1-.16-.5-.34-1-.51-1.52-.42-1.27-.83-2.54-1.24-3.81l-4.35-.66c.67-2,1.44-4.07,2.29-6-.36-1.19-.7-2.39-1-3.59q-1.53-5.39-2.89-10.85c-.18-.7-.35-1.4-.52-2.1a327.16,327.16,0,0,1,635.94-154l.11.44q1.83,7.57,3.28,15.18a47.47,47.47,0,0,1,4.1,5c7.76,10.75,11.41,24.57,10.3,38.93a61.29,61.29,0,0,1-8.54,27q-.23,8.61-.91,17.2-1,12.74-3.05,25.35-.66,4.18-1.44,8.34a32,32,0,0,1,10.21,10.1q1.11-5.16,2-10.35a334.56,334.56,0,0,0,5.2-52A339.75,339.75,0,0,0,781.5,385.59ZM747.13,583.11l-.7-.13c-1.12,2.48-2.28,5-3.49,7.42q-1.26,2.63-2.58,5.21c-.7,1.41-1.41,2.8-2.14,4.19q-5.09,9.72-10.86,19.17-4.77,7.8-9.92,15.27c-2.42,3.53-4.92,7-7.47,10.41,1.08,5.05,1.77,10.18,2.37,15.08,0,.42.1.84.14,1.27,2.92-3.62,5.77-7.34,8.55-11.11q8.76-11.91,16.56-24.67,3.28-5.37,6.36-10.84c1.11-2,2.21-4,3.28-6q4.56-8.5,8.62-17.19c1.4-3,2.74-6,4-9A28.2,28.2,0,0,1,747.13,583.11ZM624,724.51a330.59,330.59,0,0,1-186.77,51c-9.9-.31-19.78-1.08-29.58-2.31l-1.31.26c-17.1,3.24-35,4-52.06,0-15.62-3.7-30-11.35-42.45-21.39a142.53,142.53,0,0,1-14.15-13.15c-6.77-3.52-13.47-7.29-20-11.31q-2-1.18-3.84-2.38-4-2.52-7.88-5.12l.68,2.18-10.1,3.15c-2.49-1.75-4.93-3.51-7.34-5.33h0l-4.93-15.83c-1.8-1.44-3.58-2.88-5.35-4.35v0A325,325,0,0,1,201,663q-4.17-4.79-8.14-9.74-1.8-2.24-3.56-4.5-2.75-3.56-5.41-7.2a75,75,0,0,1-20-7.89c3.47,5.33,7.09,10.58,10.88,15.7q1.31,1.8,2.65,3.57,4.32,5.71,8.89,11.25l1.6,1.92q1.71,2.05,3.47,4.08c.69.79,1.37,1.58,2.07,2.35a337.65,337.65,0,0,0,51.65,47.51h0c2.41,1.82,4.85,3.58,7.34,5.33q9.2,6.48,18.88,12.4,12.27,7.5,25,13.89a336.71,336.71,0,0,0,231.45,26.39,340.62,340.62,0,0,0,88.89-35.16q7.68-4.38,15.1-9.15a70.64,70.64,0,0,0,3.37-16.69Q629.65,720.9,624,724.51Zm27.81-19.82Q645,710.09,638,715.11a168.18,168.18,0,0,1,20.56-.43q5.54-4.38,10.89-9A152.16,152.16,0,0,0,651.78,704.69Z" transform="translate(-108.9 -109.1)"/></g><g id="Layer_4" data-name="Layer 4"><path class="cls-12" d="M517.36,509.4l47.71,99.8c2.77,5.81,11.4.74,8.63-5L526,504.35c-2.78-5.8-11.4-.74-8.64,5Z" transform="translate(-108.9 -109.1)"/><path class="cls-12" d="M524.46,508.38c15.28-14.24,30.7-28.36,45.85-42.74,6-5.72,11.47-12.18,13.11-20.56,1.78-9.05-.09-18.16-2.14-27-1.46-6.26-11.1-3.61-9.65,2.66,1.79,7.69,4,16.3,1.58,24.1s-9.48,13.28-15.25,18.65l-40.57,37.82c-4.72,4.39,2.36,11.45,7.07,7.07Z" transform="translate(-108.9 -109.1)"/><path class="cls-12" d="M311.56,377.2c-18.69,34.23-19.6,73.95-19,112,.34,21.29,1.07,42.31,5.13,63.27,4.21,21.73,9.18,43.33,13.81,65l15.68,73.25c1.35,6.29,11,3.63,9.65-2.66Q323.41,625.43,310,562.83a328.17,328.17,0,0,1-7.26-62.71c-.38-18.92-.77-37.91.8-56.79,1.77-21.22,6.38-42.28,16.65-61.08,3.08-5.66-5.55-10.71-8.64-5.05Z" transform="translate(-108.9 -109.1)"/><path class="cls-12" d="M320.2,382.25c11-16.79,29-27,46.93-35a307.16,307.16,0,0,1,64.54-20.2c6.3-1.26,3.63-10.9-2.66-9.65a317.67,317.67,0,0,0-68.6,22c-19,8.58-37.19,20.08-48.85,37.82-3.54,5.39,5.11,10.41,8.64,5.05Z" transform="translate(-108.9 -109.1)"/><path class="cls-12" d="M431.67,327.07c17.3-4,34.87-7.13,52.71-6.93,15.65.18,35.08,1.7,46.64,13.53,10.47,10.72,16.47,26.39,22.48,39.85a500,500,0,0,1,18.13,47.22c2,6.08,11.68,3.48,9.65-2.66a526.45,526.45,0,0,0-19.9-51.3c-6.58-14.57-13.27-31.44-25.51-42.31-13.1-11.64-32.71-13.86-49.56-14.29-19.33-.5-38.55,2.88-57.3,7.24-6.27,1.46-3.62,11.11,2.66,9.65Z" transform="translate(-108.9 -109.1)"/><path class="cls-12" d="M492.15,563a112.28,112.28,0,0,1,17.27-3c3.51-.31,17.62-1,13.62,6.6a2.52,2.52,0,0,0,2.82,3.67c2.77-.68,4.57,2.07,4.9,4.3a12.28,12.28,0,0,1-.51,4.89,62.4,62.4,0,0,1-3.53,9.39c-2.28,5.22-4.9,10.29-7.51,15.35-1.48,2.85,2.84,5.38,4.31,2.52,4.57-8.85,10.7-18.78,12.18-28.78,1-6.85-3.49-14.38-11.17-12.49l2.82,3.67c3.27-6.22-1.25-12.51-7.62-13.95-9-2-20.19.84-28.91,3-3.12.79-1.8,5.61,1.33,4.82Z" transform="translate(-108.9 -109.1)"/><path class="cls-12" d="M539.16,540.6l7.64-2.21c2-.57,5.14-2.19,7.11-1.5,1.69.59,1.73,3.17,3.24,4.56s3.29,1.18,4.64,2.22c3.8,2.92-.54,10.2-2,13.36A166.6,166.6,0,0,1,552,571.9c-3.28,5.55,5.36,10.59,8.63,5.05a132.25,132.25,0,0,0,11.13-22.66c2-5.8,2.14-12.7-2.43-17.39a12.76,12.76,0,0,0-3-2.26,18.65,18.65,0,0,0-2.39-.91c.63.95.8,1,.52.12-1.71-2.66-2.19-4.9-5.35-6.37-6.74-3.12-16.06,1.57-22.62,3.48-6.17,1.79-3.55,11.44,2.65,9.64Z" transform="translate(-108.9 -109.1)"/><path class="cls-12" d="M466.15,452.2q55.34-9.87,109.79-23.89c3.11-.8,1.79-5.62-1.33-4.82q-54.43,14-109.79,23.89c-3.16.57-1.82,5.39,1.33,4.82Z" transform="translate(-108.9 -109.1)"/><path class="cls-12" d="M464,452c4.1,4.26,11.32,11.74,17.81,11.39,2.7-.15,4.13-1.67,5.61-3.77,2.75-3.9,4.84-8.5,6.92-12.78,1.4-2.89-2.91-5.43-4.32-2.53s-5.49,14.19-9.48,13.93c-1.87-.12-4.59-2.53-6.06-3.6a52.31,52.31,0,0,1-6.95-6.18c-2.23-2.32-5.77,1.22-3.53,3.54Z" transform="translate(-108.9 -109.1)"/><path class="cls-12" d="M491.21,447.52c5.19,3.69,14.37,9.47,21.19,8.51,2.48-.35,4.2-1.92,5.7-3.79,3.06-3.82,5.71-8.05,8.53-12.06,1.85-2.63-2.48-5.13-4.32-2.52-3.29,4.67-7.45,13.78-14,12.75-5.13-.8-10.41-4.26-14.55-7.21-2.62-1.87-5.12,2.47-2.52,4.32Z" transform="translate(-108.9 -109.1)"/><path class="cls-12" d="M523.53,441.69c5.48,1.81,12.43,5.54,18.33,4.44,5.46-1,8.17-7,10.6-11.4,1.55-2.82-2.76-5.35-4.32-2.52-2.44,4.44-4.72,10-10.7,8.72-4.25-.88-8.46-2.7-12.58-4.06-3.07-1-4.38,3.82-1.33,4.82Z" transform="translate(-108.9 -109.1)"/><path class="cls-12" d="M549.34,435.29c4,2.2,10.66,6.64,15.47,5.26,5-1.43,9-7.87,11.6-12,1.72-2.74-2.61-5.25-4.31-2.52s-5.31,9-8.94,9.57c-3.41.51-8.34-3-11.3-4.65s-5.35,2.78-2.52,4.32Z" transform="translate(-108.9 -109.1)"/><path class="cls-12" d="M371.81,341.74A150.34,150.34,0,0,1,378,327.52c1.39-2.79,4.44-11.42,7.85-12.17,1.86-.4,5.13,1.87,6.73,2.65q3.31,1.61,6.58,3.29c4.91,2.53,9.74,5.2,14.51,8,5.57,3.23,10.61-5.41,5.05-8.64-6.37-3.69-12.84-7.2-19.44-10.45-5.4-2.65-11.46-6.38-17.58-3.93-5.66,2.27-8.49,8.81-11.13,13.87a169.81,169.81,0,0,0-8.38,19c-2.27,6,7.4,8.63,9.64,2.65Z" transform="translate(-108.9 -109.1)"/><path class="cls-12" d="M362.93,339c-7.39-3.75-14.85-7.4-22.46-10.67-5.81-2.5-12.31-3.63-16.71,2-4,5.08-5,13.27-6.54,19.38a137.56,137.56,0,0,0-4,23.41c-.49,6.42,9.52,6.38,10,0,.85-11.09,3.78-21.86,6.88-32.5.7-2.41,1.05-4.61,4.06-4.1,2.78.47,5.69,2.41,8.25,3.59,5.21,2.41,10.36,4.93,15.48,7.52,5.73,2.91,10.79-5.72,5.05-8.63Z" transform="translate(-108.9 -109.1)"/><path class="cls-12" d="M318.89,366.9a114.11,114.11,0,0,0-31.1,1c-8.79,1.49-16.12,5.25-16,15.24.1,9.24,4.79,19,8.07,27.42,3.93,10.13,8.3,20.07,12.67,30,2.58,5.88,11.2.8,8.64-5-6.75-15.36-13.86-30.86-18.42-47-.6-2.14-1.92-6.2-.43-8.33,1.89-2.68,8.33-2.69,11.18-3.07a106.41,106.41,0,0,1,25.41-.17c6.39.68,6.35-9.33,0-10Z" transform="translate(-108.9 -109.1)"/><path class="cls-12" d="M294.09,427a207.73,207.73,0,0,0-30.86,17c-8.25,5.54-19.67,12.39-16.1,24.1,1.54,5.06,5.24,9.08,8.66,12.95q6.24,7.08,12.69,14t13.09,13.6c3.59,3.63,7.34,8.56,12.72,9.28,6.3.85,9-8.79,2.66-9.64-4-.53-7.62-6-10.3-8.72q-5.29-5.39-10.45-10.9T266,477.51c-2.91-3.25-6.47-6.52-8.49-10.43-2.58-5,1.21-7.64,5-10.41s7.72-5.38,11.71-7.86a209.06,209.06,0,0,1,24.94-13.19c5.86-2.62.78-11.24-5.05-8.63Z" transform="translate(-108.9 -109.1)"/><path class="cls-12" d="M303.08,590.11A136.47,136.47,0,0,0,286,611c-4.09,6.2-11.15,15.1-8.15,22.9s13.12,13,19.66,17.68l24.9,17.81c5.24,3.75,10.24-4.92,5.05-8.64L308,646.88c-6.19-4.43-14-8.58-19.09-14.24-1.68-1.85-2.25-2.21-1.19-4.69a46.07,46.07,0,0,1,2.44-4.54q2.54-4.49,5.43-8.75a122.7,122.7,0,0,1,14.52-17.48c4.54-4.58-2.53-11.65-7.07-7.07Z" transform="translate(-108.9 -109.1)"/><path class="cls-12" d="M319.89,662.27q-8.34,11.37-17.22,22.34c-4,5,3,12.08,7.08,7.07q9.66-12,18.78-24.36c3.81-5.2-4.87-10.19-8.64-5.05Z" transform="translate(-108.9 -109.1)"/><path class="cls-12" d="M608.16,531.82A27.44,27.44,0,0,1,590,518.33c-4.29-7.74-3.58-16.53-1.32-24.78,2.49-9.07,6-19,11.18-26.87,4.49-6.88,15.16-11.17,23-8.58,7.22,2.38,16.8,8.88,20.15,16,4,8.45.52,19-1.82,27.42-2.18,7.85-4.18,17-9.69,23.22a23.22,23.22,0,0,1-22.14,7.11c-6.28-1.34-9,8.3-2.66,9.64,17.52,3.74,32.76-6,39.27-22.14a136.27,136.27,0,0,0,7.84-27.72c1.46-8.66,1.37-17.86-3.83-25.34-5-7.23-13.64-13.27-21.66-16.71-8.57-3.67-17-2.19-25.16,1.72-8.68,4.14-13,11.34-16.77,19.86-4,8.94-7.74,18.3-9.07,28.05-2.63,19.29,8.74,37.83,28.16,42.29,6.26,1.43,8.93-8.2,2.65-9.65Z" transform="translate(-108.9 -109.1)"/><path class="cls-12" d="M587.27,498.33c4.46-.62,9.25-1.3,13.54.45,3.51,1.43,6.1,4.61,8.72,7.24,2.28,2.28,5.82-1.26,3.54-3.54-3.42-3.41-6.63-7.11-11.33-8.72-5.12-1.75-10.56-1-15.8-.25-3.17.45-1.82,5.26,1.33,4.82Z" transform="translate(-108.9 -109.1)"/><path class="cls-12" d="M591.07,484c9.54-1.83,18.15,2.25,24.95,8.74,2.33,2.22,5.87-1.31,3.54-3.53-8.18-7.8-18.47-12.2-29.82-10-3.16.6-1.82,5.42,1.33,4.82Z" transform="translate(-108.9 -109.1)"/><path class="cls-12" d="M597.71,470.14a35.34,35.34,0,0,1,14.33.46c4.11,1,6.63,3.94,9.21,7.13,2,2.5,5.54-1.06,3.53-3.54-3.14-3.88-6.41-7.2-11.41-8.41a41.41,41.41,0,0,0-17-.46c-3.15.6-1.82,5.42,1.33,4.82Z" transform="translate(-108.9 -109.1)"/><path class="cls-12" d="M597.68,530.76c-20.18-.35-17.72,34.54.32,36,19.32,1.51,23.84-32.12,5.06-36.09-6.27-1.33-9,8.31-2.66,9.64,7,1.48,6.15,15.44-.82,16.21-6.25.68-9.47-15.84-1.9-15.71,6.44.11,6.44-9.89,0-10Z" transform="translate(-108.9 -109.1)"/><path class="cls-12" d="M584.41,555.62c-2.22,6.37-7.3,36.3,6.33,33.48,5.42-1.13,10.69-6.3,13.84-10.59,3.9-5.31,6.23-11.63,4.79-18.2-1.2-5.5-10-4.3-9.82,1.33l0,1c.22,6.41,10.22,6.44,10,0l0-1L599.73,563c1.32,6.07-6.1,15.43-12,16.56l4.86,1.28c.71,1.75.73,1.56.07-.55a37.7,37.7,0,0,1-.76-4,38.41,38.41,0,0,1-.25-5.36,40.62,40.62,0,0,1,2.44-12.67c2.13-6.09-7.53-8.71-9.64-2.66Z" transform="translate(-108.9 -109.1)"/><path class="cls-12" d="M599,563.38a35.29,35.29,0,0,0,30.14,22.8c2.68.25,5-2.5,5-5-.12-16.7-1.83-35.94-18-45.08-5.61-3.17-10.66,5.47-5,8.63,12.79,7.23,13,23.53,13.06,36.45l5-5a24.76,24.76,0,0,1-20.49-15.46c-2.3-5.94-12-3.36-9.65,2.66Z" transform="translate(-108.9 -109.1)"/><path class="cls-12" d="M591.19,582l-.05,19.91c0,6.43,10,6.44,10,0l.05-19.91c0-6.43-10-6.44-10,0Z" transform="translate(-108.9 -109.1)"/><path class="cls-12" d="M607.27,576.18l.15,22.32c0,6.43,10,6.45,10,0l-.15-22.32c0-6.43-10-6.45-10,0Z" transform="translate(-108.9 -109.1)"/><path class="cls-12" d="M428.53,406.17c-4.67-1.17-9.87-1.61-13.64,2-3.6,3.45-4.12,8.94-2.52,13.45s4.45,8.55,9.68,9c4.15.35,9.09-.83,12.11-3.82,6.85-6.77,4.19-20.47-5.77-22.4-4.57-.89-9.9,1.13-12.08,5.4-2.07,4.05-.81,10.67,3.29,13.06,4.68,2.74,12-.12,11.66-6.05a5.83,5.83,0,0,0-5.49-5.42c-3.09-.19-5.4,1.62-6.78,4.28-2.94,5.71,5.69,10.78,8.64,5.05l-1.86.67-3.53-1.46.48.42-1.46-3.54.06.77L422,415l1.61-1.18c1.6,1.72,2.22,2,1.85.89.7-.11-.76-.3-.22-.37.88-.11,1.51-.4,2.2.36,1.41,1.56.44,4.71-1.31,5.44a7.49,7.49,0,0,1-3.65.48c1,.18.37.46.14-.47-.2-.77-.75-1.46-.95-2.25-.86-3.48,1.66-2.75,4.19-2.12,6.24,1.57,8.91-8.07,2.66-9.64Z" transform="translate(-108.9 -109.1)"/><path class="cls-12" d="M726.81,485.59c.05,2.79.07,5,2.34,7,2,1.69,4.81,2.22,7.3,2.58,5.64.81,9.87-2.31,9.46-8.17-.23-3.19-5.23-3.22-5,0,.24,3.43-1.93,3.62-4.81,3.05a9.2,9.2,0,0,1-3.31-1c-1.28-.87-.95-2.11-1-3.47,0-3.22-5-3.23-5,0Z" transform="translate(-108.9 -109.1)"/><path class="cls-12" d="M787.73,515.67a42.83,42.83,0,0,0-5.54-7.36,37.76,37.76,0,0,0-10.8-8.09A36.13,36.13,0,0,0,761.22,497c-17.09-2.8-33.75,7.19-42.5,23.68a44.83,44.83,0,0,0-2,4.19,54.76,54.76,0,0,0-3.62,12.54c-4.06,24.79,9.19,47.86,29.84,53,.94.24,1.91.44,2.89.6a36.21,36.21,0,0,0,10,.23,38.76,38.76,0,0,0,4.28-.77,40.72,40.72,0,0,0,16.8-8.76,53.41,53.41,0,0,0,10.8-66Zm-1.67,33.62a43.66,43.66,0,0,1-14.32,26.32,33.13,33.13,0,0,1-11.84,6.61,28.2,28.2,0,0,1-12.77.89l-.7-.13c-9.14-1.75-16.6-7.92-21.17-16.46A44.17,44.17,0,0,1,721,538.65a46.89,46.89,0,0,1,3-10.45c4.89-11.79,14.25-20.35,24.87-22.92A27.88,27.88,0,0,1,770,508.56a32,32,0,0,1,10.21,10.1c.25.37.48.75.71,1.13a40.37,40.37,0,0,1,4.59,11.3A46.23,46.23,0,0,1,786.06,549.29Z" transform="translate(-108.9 -109.1)"/><path class="cls-12" d="M781.7,385.87c-.06-.1-.14-.18-.2-.28a54.88,54.88,0,0,0-15.4-14.43,47.76,47.76,0,0,0-21.57-7.08c-14.65-1.14-28.88,4.47-40.1,15.79-11,11.11-17.74,26.42-19,43.13s3,32.89,12.17,45.56c9.32,12.93,22.53,20.66,37.17,21.8a47.24,47.24,0,0,0,14.76-1.18,53.35,53.35,0,0,0,25-14.31,64.74,64.74,0,0,0,12.95-18.6,71.91,71.91,0,0,0,6.47-24.84C795.16,414.72,790.84,398.54,781.7,385.87Zm-6.35,71.8c-9,14.77-23.83,24-39.86,22.72-11.67-.91-22.26-7.19-29.83-17.68-7.76-10.74-11.42-24.57-10.31-38.93s6.87-27.45,16.19-36.87A43.26,43.26,0,0,1,732,375a37.6,37.6,0,0,1,11.74-.94,39.45,39.45,0,0,1,25.74,12.73,47.47,47.47,0,0,1,4.1,5c7.76,10.75,11.41,24.57,10.3,38.93A61.29,61.29,0,0,1,775.35,457.67Z" transform="translate(-108.9 -109.1)"/><path class="cls-12" d="M671.86,524.19a18.8,18.8,0,0,1-2.38.42c-11.92,1.33-22.87-8.84-24.42-22.67a27.39,27.39,0,0,1,4.23-18.27,19.75,19.75,0,0,1,30.85-3.44,27.32,27.32,0,0,1,8.16,16.89h0a27.34,27.34,0,0,1-4.23,18.27A20.56,20.56,0,0,1,671.86,524.19Zm-9.16-44.46a15.62,15.62,0,0,0-9.25,6.73A22.34,22.34,0,0,0,650,501.39c1.24,11.09,9.72,19.27,18.9,18.25a15.34,15.34,0,0,0,11-7,22.28,22.28,0,0,0,3.41-14.93h0a22.34,22.34,0,0,0-6.62-13.81,15.31,15.31,0,0,0-12.27-4.43A12.65,12.65,0,0,0,662.7,479.73Z" transform="translate(-108.9 -109.1)"/><path class="cls-12" d="M666.76,524a5.57,5.57,0,0,0,7.1,5.39,6.41,6.41,0,0,0,4-8.39,2.56,2.56,0,0,0-3.07-1.74,2.52,2.52,0,0,0-1.75,3.07c.26.72.47,1.9-.47,2.23-.51.17-.82-.06-.81-.56.06-3.21-4.94-3.21-5,0Z" transform="translate(-108.9 -109.1)"/><path class="cls-12" d="M668.89,528.18C676,542.1,660.27,555,655.4,566.81c-5.22,12.71.41,22.73,8.55,32.47,2.06,2.47,5.59-1.08,3.53-3.54-4.57-5.46-9.59-11.61-9.34-19.15S663,562.77,667,556.82c6.21-9.3,11.82-20.19,6.22-31.16-1.47-2.87-5.78-.34-4.32,2.52Z" transform="translate(-108.9 -109.1)"/><path class="cls-12" d="M733.29,581.56a7.63,7.63,0,0,0,2,12.07c5.36,2.81,10.27-.41,14.07-4.13,2.31-2.26-1.23-5.79-3.53-3.54-1.63,1.59-3.47,3.57-5.88,3.72s-5.24-2.23-3.16-4.58-1.39-6-3.53-3.54Z" transform="translate(-108.9 -109.1)"/><path class="cls-12" d="M733.38,590.86c-4.4,7.11-12.12,11.47-17.08,18.22-4.31,5.86-6.43,13-4.26,20.1.94,3.07,5.77,1.76,4.82-1.33-4.75-15.58,14-23.43,20.84-34.47,1.7-2.75-2.63-5.26-4.32-2.52Z" transform="translate(-108.9 -109.1)"/><path class="cls-12" d="M735.15,492c-1.83,4.68-3.12,9.58-.5,14.23,1.59,2.8,5.91.28,4.32-2.53-1.89-3.34-.28-7.11,1-10.37,1.17-3-3.67-4.3-4.82-1.33Z" transform="translate(-108.9 -109.1)"/></g><g id="Layer_6" data-name="Layer 6"><path class="cls-30" d="M291.08,521.88c-.36-.63-.72-1.25-1.1-1.87a80.23,80.23,0,0,0-26-26.56c-1.41-.89-2.85-1.75-4.32-2.55-20.56-11.33-45.89-14-69.91-6.73-1.59.48-3.17,1-4.74,1.57a97.8,97.8,0,0,0-17,8.12,95.39,95.39,0,0,0-33.31,33.41A91.53,91.53,0,0,0,127,544.2h0c0,.07,0,.12-.07.18-.2.61-.4,1.23-.59,1.84-.07.21-.13.41-.18.62h0s0,0,0,0a.11.11,0,0,1,0,0c-.14.44-.27.9-.4,1.35-.27.94-.53,1.88-.76,2.82a82,82,0,0,0,6.1,57.73q1.29,2.55,2.79,5c1.29,2.14,2.65,4.2,4.11,6.18.4.54.8,1.09,1.22,1.62.57.75,1.16,1.49,1.76,2.21l.09.11q1.5,1.8,3.09,3.49c.65.71,1.32,1.39,2,2.06a82.21,82.21,0,0,0,32.7,19.85q2.7.89,5.47,1.6h0c1.21.31,2.42.59,3.64.85q4.48.95,9,1.44c.37,0,.73.09,1.1.12,1.45.14,2.91.25,4.38.31l.62,0a92.81,92.81,0,0,0,24.72-2.33l.9-.21c2.81-.68,5.59-1.48,8.34-2.43,1.27-.43,2.52-.9,3.77-1.39.75-.28,1.48-.57,2.22-.88,1.19-.49,2.36-1,3.53-1.54,0-.32-.09-.64-.13-1s-.06-.59-.09-.89a68.23,68.23,0,0,1-.29-9q-3,1.55-6,2.84h0q-2,.86-4,1.59a84.27,84.27,0,0,1-31.68,5.26c-1.68,0-3.35-.15-5-.3A82.24,82.24,0,0,1,190,642c-.68-.15-1.37-.3-2-.48a75,75,0,0,1-20-7.89,70.93,70.93,0,0,1-16.44-13q-1.36-1.44-2.64-3c-1.07-1.27-2.1-2.58-3.07-3.94-1.19-1.64-2.32-3.34-3.37-5.09-.38-.64-.75-1.27-1.1-1.92a71,71,0,0,1-8.41-43.86h0a.33.33,0,0,1,0-.1c.17-1.32.37-2.63.61-3.95.18-1.05.4-2.1.64-3.14.13-.62.28-1.24.44-1.87.09-.41.2-.83.31-1.25s.27-1.05.43-1.57q.47-1.63,1-3.27c.67-2,1.44-4.07,2.29-6,.56-1.32,1.15-2.62,1.78-3.91a84.92,84.92,0,0,1,32.76-35.37,86,86,0,0,1,14.66-7.05q2.35-.87,4.74-1.6c1-.3,2-.6,3.07-.86.59-.16,1.19-.32,1.78-.46a81.86,81.86,0,0,1,41.8.74,76.17,76.17,0,0,1,14.82,6c1.47.78,2.92,1.63,4.34,2.51l.54.35c1.37.86,2.71,1.79,4,2.75a69.92,69.92,0,0,1,18.51,20.34c1,1.65,1.9,3.31,2.74,5h0c.22.44.43.88.64,1.34,2.3-2.79,4.64-5.54,7.06-8.23Z" transform="translate(-108.9 -109.1)"/><path class="cls-9" d="M250.26,643.09q-1.87,1-3.78,1.86c0-.32-.09-.64-.13-1s-.06-.59-.09-.89a68.23,68.23,0,0,1-.29-9q2.09-1.08,4.13-2.29A67,67,0,0,0,250.26,643.09Z" transform="translate(-108.9 -109.1)"/><path class="cls-30" d="M272,530.84a61.57,61.57,0,0,0-16.55-18.11c-1-.74-2-1.46-3.12-2.14-1.4-.9-2.85-1.74-4.32-2.53-.83-.43-1.66-.86-2.51-1.26s-1.73-.82-2.62-1.18a58.46,58.46,0,0,0-6.26-2.3,62.91,62.91,0,0,0-6.14-1.62,70.74,70.74,0,0,0-32.13.69c-1,.26-2,.53-3,.84-1.59.47-3.18,1-4.74,1.6h0a71.09,71.09,0,0,0-9.66,4.43c-.91.48-1.81,1-2.7,1.53-.59.36-1.17.72-1.75,1.1a72.82,72.82,0,0,0-27,30.76,68.35,68.35,0,0,0-2.67,6.68c-.22.66-.45,1.32-.65,2-.29,1-.57,1.91-.82,2.87,0,.13-.07.26-.1.39-.36,1.37-.66,2.76-.92,4.15a.44.44,0,0,0,0,.1q-.3,1.56-.51,3.12A62.39,62.39,0,0,0,151.84,603c.81,1.34,1.65,2.63,2.54,3.89s2,2.69,3.06,4a61.83,61.83,0,0,0,20.25,15.82,67.44,67.44,0,0,0,23,6.58c1.66.17,3.32.29,5,.34a71.46,71.46,0,0,0,16.11-1.32c1-.2,2-.42,3-.67a70.86,70.86,0,0,0,11.78-3.94l.44-.19h0c1.28-.56,2.55-1.15,3.81-1.8,1.61-.81,3.21-1.69,4.78-2.63.64-.38,1.26-.77,1.88-1.17.25-1.12.52-2.24.81-3.35.35-1.4.76-2.79,1.21-4.16a69.21,69.21,0,0,1-6.47,4.39l-1.11.65c-1.47.85-3,1.65-4.47,2.37-.64.32-1.29.62-1.94.91a70.1,70.1,0,0,1-11.91,4.07c-1.12.27-2.24.5-3.36.71a66.74,66.74,0,0,1-14,1.15c-1.68,0-3.35-.15-5-.31a61.48,61.48,0,0,1-29.37-10.83,56.91,56.91,0,0,1-10.58-9.73c-1.07-1.26-2.09-2.59-3-4-.77-1.08-1.49-2.19-2.18-3.34a56.88,56.88,0,0,1-8.06-31.31,60.4,60.4,0,0,1,1.12-9.84c.29-1.47.62-2.92,1-4.36.44-1.63.94-3.24,1.52-4.83l.05-.13a0,0,0,0,0,0,0,67.75,67.75,0,0,1,29-34.86c.82-.5,1.64-1,2.47-1.42h0a71.7,71.7,0,0,1,8.69-4c1.57-.59,3.16-1.13,4.75-1.62l.6-.17c1-.3,2-.56,3-.8a65.86,65.86,0,0,1,29.1-.46,62.08,62.08,0,0,1,8,2.27,57.76,57.76,0,0,1,7.71,3.36q2.12,1.1,4.1,2.36l.24.15c.72.44,1.42.91,2.1,1.4a56.6,56.6,0,0,1,16.12,17.29,55.65,55.65,0,0,1,5.12,11.11c.09-.13.2-.26.29-.38,1.1-1.44,2.2-2.88,3.32-4.31A59.68,59.68,0,0,0,272,530.84ZM277,566.79a1.71,1.71,0,0,0-.2-.18l-1.11-1c0,.63-.07,1.27-.13,1.91-.11,1.48-.28,3-.5,4.41a60.83,60.83,0,0,1-1.35,6.52c.47-.4.94-.79,1.42-1.17h0c1-.8,2-1.57,3.07-2.31a5.09,5.09,0,0,0,1.48-1.57l.18.06c0-.18.06-.35.08-.53.17-1.06.31-2.13.42-3.19C279.26,568.74,278.13,567.77,277,566.79Z" transform="translate(-108.9 -109.1)"/><path class="cls-9" d="M253.6,614.13c-.48,1.45-.92,2.92-1.29,4.4q-2.33,1.76-4.81,3.35c.25-1.12.52-2.24.81-3.35.35-1.4.76-2.79,1.21-4.16.84-.64,1.67-1.3,2.47-2Z" transform="translate(-108.9 -109.1)"/><path class="cls-30" d="M230.45,551.36a21,21,0,0,0-3.19-4.1,20.67,20.67,0,0,0-3.91-3.13,22.7,22.7,0,0,0-7.32-2.92,23.92,23.92,0,0,0-9.79,0,25.4,25.4,0,0,0-4.78,1.48,23.68,23.68,0,0,0-3.17,1.62,24.57,24.57,0,0,0-10,11.39,23.26,23.26,0,0,0-1,2.83c-.19.67-.35,1.33-.48,2A21.75,21.75,0,0,0,189.44,576a21.52,21.52,0,0,0,1.3,1.92,21.28,21.28,0,0,0,3.47,3.62,22.93,22.93,0,0,0,12.58,5c.25,0,.49,0,.74,0a23.92,23.92,0,0,0,4.32-.15,24.28,24.28,0,0,0,2.68-.49,25.39,25.39,0,0,0,7.08-2.91c.45-.28.88-.56,1.3-.85.19-.12.38-.26.56-.39a24.73,24.73,0,0,0,3.74-3.33,24.3,24.3,0,0,0,5.44-9.65,22.43,22.43,0,0,0,.89-5.85,20.76,20.76,0,0,0-.33-4.32c-.05-.22-.09-.44-.13-.66A21.45,21.45,0,0,0,230.45,551.36Zm-13.88,23.08-.12.07a15.65,15.65,0,0,1-3.21,1.46,14.32,14.32,0,0,1-5.14.68,13,13,0,0,1-2.16-.28,13.22,13.22,0,0,1-3.58-1.33,11.66,11.66,0,0,1-3.79-3.36,8,8,0,0,1-.55-.83,11.91,11.91,0,0,1-1.35-8.85c.06-.25.12-.49.2-.75a13.66,13.66,0,0,1,1.87-4,14.92,14.92,0,0,1,4.7-4.4c.27-.16.54-.32.82-.46a14.82,14.82,0,0,1,3.44-1.3,12,12,0,0,1,1.33-.25A13.78,13.78,0,0,1,214,551a12.62,12.62,0,0,1,3.73,1.43,7.86,7.86,0,0,1,.87.54,11,11,0,0,1,2.87,2.85,7.66,7.66,0,0,1,.46.7,11.51,11.51,0,0,1,1.09,2.4,12.07,12.07,0,0,1,.5,5,13.5,13.5,0,0,1-.44,2.21,14.24,14.24,0,0,1-2.67,5.06A15.38,15.38,0,0,1,216.57,574.44Z" transform="translate(-108.9 -109.1)"/><path class="cls-12" d="M266.57,722.24l-10.1,3.15c-2.49-1.75-4.93-3.51-7.34-5.33h0l-4.93-15.83q8.08,6.42,16.62,12.37c1.68,1.18,3.38,2.33,5.09,3.47Z" transform="translate(-108.9 -109.1)"/><path class="cls-30" d="M265.89,720.06c-1.71-1.14-3.41-2.29-5.09-3.47q-8.53-6-16.62-12.37l-1.35-4.35v0l-15.1-48.45-3-9.59-3-9.53-1.5-4.81-9.71-31.14-3-9.7L207,585v0l-.6-1.93.91-.29,5.27-1.64,7.9-2.46,1.2-.37.78,2.5.46,1.49,12.62,40.46,1.49,4.79h0L240,636.9l3,9.59,21.85,70.1Z" transform="translate(-108.9 -109.1)"/><path class="cls-9" d="M273.73,578.43q-.68,2.61-1.61,5.18c-1.53,1.55-3,3.18-4.38,4.86l-3.16-1q1.71-2,3.54-3.86A68.55,68.55,0,0,1,273.73,578.43Z" transform="translate(-108.9 -109.1)"/><path class="cls-9" d="M279.89,573.44c-.2,1.27-.45,2.56-.73,3.82-.84.66-1.66,1.34-2.46,2-.29.24-.58.49-.86.75,0,0,0,0-.08.07-.33.29-.67.59-1,.9l-.27.25c-.38.34-.75.7-1.12,1.07s-.85.83-1.26,1.26q.93-2.57,1.61-5.18c.47-.4.94-.79,1.42-1.17h0c1-.8,2-1.57,3.07-2.31a5.09,5.09,0,0,0,1.48-1.57Z" transform="translate(-108.9 -109.1)"/><path class="cls-30" d="M279.71,573.38a5.09,5.09,0,0,1-1.48,1.57c-1,.74-2.06,1.51-3.07,2.31h0c-.48.38-.95.77-1.42,1.17a68.55,68.55,0,0,0-5.61,5.18q-1.83,1.86-3.54,3.86l-6.92-2.18-3.21-1-25.4-8-3.67-1.16,3.69-11.69,1.63-5.17.09-.3.74.23,1.68.53L244,562.1h0l24.58,7.76,2.89.91,3.61,1.14Z" transform="translate(-108.9 -109.1)"/><path class="cls-31" d="M141.81,553.29" transform="translate(-108.9 -109.1)"/><path class="cls-30" d="M198.74,557.25a13.66,13.66,0,0,0-1.87,4c-.08.26-.14.5-.2.75l-9.9-1.51L152,555.21l-1.83-.28-2-.31-1.38-.21-1.55-.23-2.81-.43-4.38-.67-3.17-.48-5.74-.87-3.33-.5-.88-.14c.23-.94.49-1.88.76-2.82.13-.45.26-.91.4-1.35a.11.11,0,0,0,0,0s0,0,0,0h0c0-.21.11-.41.18-.62l1.2.18,8.83,1.35,4.35.66,6,.92,5,.76h.08l36.47,5.56Z" transform="translate(-108.9 -109.1)"/><path class="cls-30" d="M209,550.84a12,12,0,0,0-1.33.25,14.82,14.82,0,0,0-3.44,1.3l-2.8-9.73-9.54-33-1.38-4.81-2.73-9.45L185,485.74c1.57-.56,3.15-1.09,4.74-1.57l2.78,9.61,2.73,9.45,1.39,4.79,9.57,33.16Z" transform="translate(-108.9 -109.1)"/><path class="cls-30" d="M202.36,575l-8.15,6.5L164.8,605l-3.45,2.75-3.91,3.11-2.18,1.73-4.65,3.71-1.79,1.43-3.1,2.47-4.54,3.63h0L141,624l-.09-.11c-.6-.72-1.19-1.46-1.76-2.21-.42-.53-.82-1.08-1.22-1.62l7.83-6.24,2.94-2.35,4.17-3.31,1.52-1.22,3.92-3.13,4.1-3.27,28.34-22.59,7.83-6.24A11.66,11.66,0,0,0,202.36,575Z" transform="translate(-108.9 -109.1)"/><path class="cls-30" d="M213.24,576l-.67,5.1-.72,5.41-1.3,9.85-4.25,32.29-.65,5-1.33,10.15-1.32,10c-1.67-.07-3.34-.19-5-.35l1.3-9.93,1.35-10.19.65-5,5.49-41.73L207,585v0l.31-2.22.8-6.06A14.32,14.32,0,0,0,213.24,576Z" transform="translate(-108.9 -109.1)"/><path class="cls-30" d="M264,493.45l-5.64,8.26-6.07,8.88-2.83,4.14-22.2,32.53-5.84,8.55a11,11,0,0,0-2.87-2.85,7.86,7.86,0,0,0-.87-.54l5.67-8.29,21.77-31.91,2.85-4.16L254,499.2l5.66-8.3C261.15,491.7,262.59,492.56,264,493.45Z" transform="translate(-108.9 -109.1)"/><path class="cls-30" d="M270.68,559.76,244,562.1h0l-10.45.91-4.47.39-5.6.49a12.07,12.07,0,0,0-.5-5l7.73-.68.83-.07,1.55-.13,35.76-3.13A12.14,12.14,0,0,0,270.68,559.76Z" transform="translate(-108.9 -109.1)"/><path class="cls-9" d="M255.32,609.41q-.94,2.34-1.72,4.72L252,612.4C253.13,611.43,254.25,610.44,255.32,609.41Z" transform="translate(-108.9 -109.1)"/><path class="cls-9" d="M255.69,609l-.36.36h0c-1.07,1-2.19,2-3.33,3L250.7,611c.2-.53.41-1.07.62-1.6h0c.06-.17.13-.34.21-.53.4-1,.82-2,1.27-2.93l2.73,2.93Z" transform="translate(-108.9 -109.1)"/><path class="cls-30" d="M252.81,605.94c-.45,1-.87,1.95-1.27,2.93-.08.19-.15.36-.21.53h0c-.21.53-.42,1.07-.62,1.6L246,606l-2.77-3-19.77-21.17-1-1.1-2-2.13-3.9-4.17a15.38,15.38,0,0,0,3.79-3.28l6.85,7.35,18.35,19.66,2.61,2.8Z" transform="translate(-108.9 -109.1)"/><path class="cls-30" d="M178.83,663.77c-.25-3.78-.08-8,2.51-10.74,1.67-1.8,4.1-2.68,6.48-3.34,3.62-1,7.7-1.6,11,.26,3.82,2.18,5.23,6.93,6,11.27.49,2.73.73,5.91-1.19,7.92a9.13,9.13,0,0,1-2.66,1.74,31.76,31.76,0,0,1-8.75,3.34,12.84,12.84,0,0,1-9-1.57,9,9,0,0,1-4.27-7.86" transform="translate(-108.9 -109.1)"/><path class="cls-12" d="M181.33,663.77c-.29-5.85,1.07-9.93,7.15-11.67,6.38-1.81,11.31-.15,13.17,6.5.54,1.95,1.3,4.48.89,6.49-.6,3-4.18,4.42-6.84,5.47-5.38,2.12-14.1,1.89-14.31-5.77-.09-3.21-5.1-3.22-5,0,.24,8.64,8.41,13.31,16.46,11.84,4-.72,9.72-2.73,12.52-5.72s2.42-7.29,1.71-11c-1.67-8.74-7-14.75-16.41-13.38q-15.09,2.21-14.34,17.25c.16,3.2,5.16,3.22,5,0Z" transform="translate(-108.9 -109.1)"/><path class="cls-30" d="M179.54,666.58l23.76-5.27" transform="translate(-108.9 -109.1)"/><path class="cls-12" d="M180.2,669,204,663.72c3.14-.69,1.81-5.51-1.33-4.82l-23.77,5.27c-3.14.69-1.81,5.51,1.33,4.82Z" transform="translate(-108.9 -109.1)"/><path class="cls-30" d="M183.29,669a31.31,31.31,0,0,0,8.27,1.42,13.44,13.44,0,0,0,5.87-.86,6.24,6.24,0,0,0,3.77-4.34l-12.68,1.2c-1.12.1-2.4.31-3,1.27" transform="translate(-108.9 -109.1)"/><path class="cls-12" d="M182.62,671.42c7,2,18.36,3.42,21-5.53a2.51,2.51,0,0,0-2.41-3.16c-3.76.35-7.52.68-11.27,1.06-2.35.24-4.47.33-6.16,2.14-2.19,2.35,1.34,5.9,3.54,3.54,1.14-1.23,5.24-.92,6.84-1.08l7-.66-2.41-3.17c-1.62,5.51-11,3.17-14.84,2-3.09-.9-4.42,3.92-1.33,4.82Z" transform="translate(-108.9 -109.1)"/><path class="cls-30" d="M125.28,621.77c-.25-3.78-.08-8,2.5-10.75,1.68-1.8,4.11-2.67,6.48-3.33,3.63-1,7.71-1.6,11,.26,3.82,2.17,5.23,6.93,6,11.26.48,2.73.72,5.91-1.19,7.92a9.3,9.3,0,0,1-2.66,1.75,32.31,32.31,0,0,1-8.75,3.33,12.82,12.82,0,0,1-9-1.57,9,9,0,0,1-4.27-7.86" transform="translate(-108.9 -109.1)"/><path class="cls-12" d="M127.78,621.77c-.29-5.85,1.06-9.94,7.15-11.67,6.38-1.82,11.3-.15,13.17,6.5.54,1.94,1.3,4.48.89,6.48-.61,3-4.19,4.42-6.85,5.47-5.37,2.13-14.09,1.89-14.31-5.77-.09-3.21-5.09-3.22-5,0,.25,8.65,8.42,13.32,16.47,11.84,3.95-.72,9.72-2.73,12.52-5.72s2.41-7.29,1.7-11c-1.67-8.74-7-14.74-16.4-13.37q-15.09,2.19-14.34,17.25c.16,3.2,5.16,3.22,5,0Z" transform="translate(-108.9 -109.1)"/><path class="cls-30" d="M126,624.57l23.77-5.26" transform="translate(-108.9 -109.1)"/><path class="cls-12" d="M126.65,627l23.76-5.26c3.15-.7,1.82-5.52-1.32-4.82l-23.77,5.26c-3.14.7-1.81,5.52,1.33,4.82Z" transform="translate(-108.9 -109.1)"/><path class="cls-30" d="M129.73,627a31.45,31.45,0,0,0,8.27,1.42,13.31,13.31,0,0,0,5.88-.85,6.32,6.32,0,0,0,3.77-4.35L135,624.42c-1.11.11-2.4.31-3,1.28" transform="translate(-108.9 -109.1)"/><path class="cls-12" d="M129.07,629.41c7,2,18.35,3.42,21-5.52a2.52,2.52,0,0,0-2.41-3.17c-3.76.36-7.52.69-11.28,1.07-2.34.24-4.46.33-6.15,2.14-2.19,2.35,1.33,5.89,3.53,3.53,1.15-1.22,5.24-.92,6.85-1.07l7.05-.67-2.41-3.16c-1.63,5.51-11,3.16-14.84,2-3.1-.9-4.42,3.92-1.33,4.82Z" transform="translate(-108.9 -109.1)"/><path class="cls-30" d="M125.92,553.84a9,9,0,0,0,4.28,7.85,9.78,9.78,0,0,0,2.67,1.22h0" transform="translate(-108.9 -109.1)"/><path class="cls-12" d="M123.42,553.84c-.13,5.48,3.74,9.84,8.78,11.48l-1.74-1.74h0a2.4,2.4,0,0,0,1.74,1.74h.06l-1.75-1.75h0c.76,3.13,5.58,1.81,4.82-1.33h0a2.43,2.43,0,0,0-1.74-1.75h-.06l1.75,1.75c-.46-1.91-3.3-2.16-4.63-3.35a6.42,6.42,0,0,1-2.23-5.07c.08-3.22-4.92-3.22-5,0Z" transform="translate(-108.9 -109.1)"/><path class="cls-30" d="M126.58,555.62l23.76-5.26" transform="translate(-108.9 -109.1)"/><path class="cls-12" d="M127.24,558,151,552.77c3.14-.69,1.81-5.52-1.33-4.82l-23.77,5.26c-3.14.7-1.81,5.52,1.33,4.83Z" transform="translate(-108.9 -109.1)"/><path class="cls-30" d="M130.32,558.06a32.29,32.29,0,0,0,8.27,1.42,13.46,13.46,0,0,0,5.88-.86,6.26,6.26,0,0,0,3.77-4.35l-12.69,1.2c-1.11.11-2.4.31-3,1.28" transform="translate(-108.9 -109.1)"/><path class="cls-12" d="M129.66,560.47c7,2,18.35,3.41,21-5.53a2.52,2.52,0,0,0-2.41-3.17c-3.76.36-7.52.69-11.28,1.07-2.34.24-4.46.33-6.15,2.14-2.19,2.35,1.33,5.89,3.53,3.54,1.15-1.23,5.24-.93,6.85-1.08l7.05-.67-2.41-3.16c-1.63,5.51-11,3.17-14.84,2-3.1-.91-4.42,3.92-1.33,4.82Z" transform="translate(-108.9 -109.1)"/><path class="cls-30" d="M172.08,503c-.25-3.78-.08-8,2.5-10.74,1.68-1.8,4.11-2.68,6.48-3.34,3.63-1,7.71-1.6,11,.26,3.82,2.18,5.23,6.93,6,11.26.48,2.74.72,5.92-1.19,7.93a9.48,9.48,0,0,1-2.66,1.74,31.89,31.89,0,0,1-8.75,3.34,12.88,12.88,0,0,1-9-1.58,9,9,0,0,1-4.27-7.85" transform="translate(-108.9 -109.1)"/><path class="cls-12" d="M174.58,503c-.29-5.85,1.06-9.94,7.15-11.67,6.38-1.81,11.31-.15,13.17,6.5.54,1.94,1.3,4.48.89,6.48-.61,3-4.19,4.43-6.85,5.48-5.37,2.12-14.09,1.89-14.31-5.77-.09-3.21-5.09-3.23-5,0,.25,8.64,8.42,13.31,16.47,11.84,4-.73,9.72-2.74,12.52-5.73s2.42-7.29,1.7-11c-1.67-8.74-7-14.74-16.4-13.37Q168.83,488,169.58,503c.16,3.2,5.16,3.22,5,0Z" transform="translate(-108.9 -109.1)"/><path class="cls-30" d="M172.79,505.81l23.76-5.26" transform="translate(-108.9 -109.1)"/><path class="cls-12" d="M173.45,508.23,197.22,503c3.14-.69,1.81-5.52-1.33-4.82l-23.77,5.26c-3.14.7-1.81,5.52,1.33,4.83Z" transform="translate(-108.9 -109.1)"/><path class="cls-30" d="M176.53,508.25a32.29,32.29,0,0,0,8.27,1.42,13.46,13.46,0,0,0,5.88-.86,6.28,6.28,0,0,0,3.77-4.35l-12.69,1.2c-1.11.11-2.4.31-3,1.28" transform="translate(-108.9 -109.1)"/><path class="cls-12" d="M175.87,510.66c7,2,18.35,3.41,21-5.53a2.52,2.52,0,0,0-2.41-3.17c-3.76.36-7.52.69-11.28,1.07-2.34.24-4.46.33-6.15,2.14-2.19,2.35,1.33,5.89,3.53,3.54,1.15-1.23,5.24-.93,6.85-1.08l7-.67L192,503.8c-1.63,5.51-11,3.17-14.84,2-3.1-.91-4.42,3.92-1.33,4.82Z" transform="translate(-108.9 -109.1)"/><path class="cls-30" d="M236.61,504c-.25-3.78-.08-8,2.51-10.74,1.68-1.8,4.11-2.68,6.48-3.34,3.62-1,7.71-1.6,11,.26,3.83,2.18,5.23,6.93,6,11.26.49,2.74.73,5.92-1.19,7.93a9.34,9.34,0,0,1-2.66,1.74,31.76,31.76,0,0,1-8.75,3.34,12.9,12.9,0,0,1-9-1.57,9,9,0,0,1-4.27-7.86" transform="translate(-108.9 -109.1)"/><path class="cls-12" d="M239.11,504c-.29-5.85,1.07-9.94,7.15-11.67,6.38-1.81,11.31-.15,13.17,6.5.54,1.94,1.3,4.48.89,6.48-.6,3-4.18,4.43-6.84,5.48-5.38,2.12-14.09,1.89-14.31-5.77-.09-3.21-5.09-3.23-5,0,.24,8.64,8.41,13.31,16.47,11.84,3.94-.72,9.71-2.74,12.51-5.73s2.42-7.29,1.71-11c-1.67-8.73-7-14.74-16.41-13.37Q233.36,489,234.11,504c.16,3.2,5.16,3.22,5,0Z" transform="translate(-108.9 -109.1)"/><path class="cls-30" d="M237.32,506.83l23.76-5.26" transform="translate(-108.9 -109.1)"/><path class="cls-12" d="M238,509.25,261.75,504c3.14-.69,1.81-5.52-1.33-4.82l-23.77,5.26c-3.14.7-1.81,5.52,1.33,4.83Z" transform="translate(-108.9 -109.1)"/><path class="cls-30" d="M241.07,509.27a32.14,32.14,0,0,0,8.27,1.42,13.44,13.44,0,0,0,5.87-.86,6.24,6.24,0,0,0,3.77-4.35l-12.68,1.2c-1.12.11-2.4.32-3,1.28" transform="translate(-108.9 -109.1)"/><path class="cls-12" d="M240.4,511.68c7,2,18.36,3.41,21-5.53A2.52,2.52,0,0,0,259,503c-3.76.36-7.52.69-11.27,1.07-2.35.24-4.47.33-6.16,2.14-2.19,2.35,1.34,5.9,3.54,3.54,1.14-1.23,5.24-.93,6.84-1.08L259,508l-2.41-3.16c-1.62,5.51-11,3.17-14.84,2-3.09-.91-4.42,3.92-1.33,4.82Z" transform="translate(-108.9 -109.1)"/><path class="cls-30" d="M125.26,554.74c-.25-3.78-.08-8,2.5-10.74,1.68-1.8,4.11-2.68,6.49-3.34,3.62-1,7.7-1.6,11,.26,3.82,2.18,5.23,6.93,6,11.26.49,2.74.72,5.91-1.19,7.93a9.48,9.48,0,0,1-2.66,1.74,32.08,32.08,0,0,1-8.75,3.34,12.85,12.85,0,0,1-9-1.58,9,9,0,0,1-4.28-7.85" transform="translate(-108.9 -109.1)"/><path class="cls-12" d="M127.76,554.74c-.29-5.85,1.07-9.94,7.15-11.67,6.38-1.81,11.31-.15,13.17,6.5.54,1.94,1.3,4.48.89,6.48-.61,3-4.19,4.42-6.85,5.48-5.37,2.12-14.09,1.89-14.31-5.77-.09-3.21-5.09-3.23-5,0,.25,8.64,8.42,13.31,16.47,11.84,3.95-.73,9.72-2.74,12.52-5.73s2.42-7.29,1.71-11c-1.67-8.74-7-14.74-16.41-13.37q-15.09,2.19-14.34,17.25c.16,3.2,5.16,3.22,5,0Z" transform="translate(-108.9 -109.1)"/><path class="cls-12" d="M287.08,521.88c-.36-.63-.72-1.25-1.1-1.87a80.23,80.23,0,0,0-26-26.56c-1.41-.89-2.85-1.75-4.32-2.55-20.56-11.33-45.89-14-69.91-6.73-1.59.48-3.17,1-4.74,1.57a97.8,97.8,0,0,0-17,8.12,95.39,95.39,0,0,0-33.31,33.41A91.53,91.53,0,0,0,123,544.2h0c0,.07,0,.12-.07.18-.2.61-.4,1.23-.59,1.84-.07.21-.13.41-.18.62h0s0,0,0,0a.11.11,0,0,1,0,0c-.14.44-.27.9-.4,1.35-.27.94-.53,1.88-.76,2.82a82,82,0,0,0,6.1,57.73q1.29,2.55,2.79,5c1.29,2.14,2.65,4.2,4.11,6.18.4.54.8,1.09,1.22,1.62.57.75,1.16,1.49,1.76,2.21l.09.11q1.5,1.8,3.09,3.49c.65.71,1.32,1.39,2,2.06a82.21,82.21,0,0,0,32.7,19.85q2.7.89,5.47,1.6h0c1.21.31,2.42.59,3.64.85q4.48.95,9,1.44c.37,0,.73.09,1.1.12,1.45.14,2.91.25,4.38.31l.62,0a92.81,92.81,0,0,0,24.72-2.33l.9-.21a90.41,90.41,0,0,0,12.11-3.82c.75-.28,1.48-.57,2.22-.88,2.48-1,4.91-2.15,7.31-3.4a67,67,0,0,1-.16-11.33A86.48,86.48,0,0,1,236,636.89h0a82.91,82.91,0,0,1-15.23,4.91,81.61,81.61,0,0,1-20.41,1.94c-1.68,0-3.35-.15-5-.3A82.24,82.24,0,0,1,186,642c-.68-.15-1.37-.3-2-.48a75,75,0,0,1-20-7.89,70.93,70.93,0,0,1-16.44-13q-1.36-1.44-2.64-3c-1.07-1.27-2.1-2.58-3.07-3.94-1.19-1.64-2.32-3.34-3.37-5.09-.38-.64-.75-1.27-1.1-1.92a71,71,0,0,1-8.41-43.86h0a.33.33,0,0,1,0-.1c.17-1.32.37-2.63.61-3.95.18-1.05.4-2.1.64-3.14.13-.62.28-1.24.44-1.87.09-.41.2-.83.31-1.25s.27-1.05.43-1.57q.47-1.63,1-3.27c.67-2,1.44-4.07,2.29-6,.56-1.32,1.15-2.62,1.78-3.91a84.92,84.92,0,0,1,32.76-35.37,86,86,0,0,1,14.66-7.05q2.35-.87,4.74-1.6c1-.3,2-.6,3.07-.86.59-.16,1.19-.32,1.78-.46a81.86,81.86,0,0,1,41.8.74,76.17,76.17,0,0,1,14.82,6c1.47.78,2.92,1.63,4.34,2.51l.54.35c1.37.86,2.71,1.79,4,2.75a69.92,69.92,0,0,1,18.51,20.34c1,1.65,1.9,3.31,2.74,5h0c.22.44.43.88.64,1.34,2.3-2.79,4.64-5.54,7.06-8.23Z" transform="translate(-108.9 -109.1)"/><path class="cls-12" d="M268,530.84a61.57,61.57,0,0,0-16.55-18.11c-1-.74-2-1.46-3.12-2.14-1.4-.9-2.85-1.74-4.32-2.53-.83-.43-1.66-.86-2.51-1.26s-1.73-.82-2.62-1.18a58.46,58.46,0,0,0-6.26-2.3,62.91,62.91,0,0,0-6.14-1.62,70.74,70.74,0,0,0-32.13.69c-1,.26-2,.53-3,.84-1.59.47-3.18,1-4.74,1.6h0a71.09,71.09,0,0,0-9.66,4.43c-.91.48-1.81,1-2.7,1.53-.59.36-1.17.72-1.75,1.1a72.82,72.82,0,0,0-27,30.76,68.35,68.35,0,0,0-2.67,6.68c-.22.66-.45,1.32-.65,2-.29,1-.57,1.91-.82,2.87,0,.13-.07.26-.1.39-.36,1.37-.66,2.76-.92,4.15a.44.44,0,0,0,0,.1q-.3,1.56-.51,3.12A62.39,62.39,0,0,0,147.84,603c.81,1.34,1.65,2.63,2.54,3.89s2,2.69,3.06,4a61.83,61.83,0,0,0,20.25,15.82,67.44,67.44,0,0,0,23,6.58c1.66.17,3.32.29,5,.34a71.46,71.46,0,0,0,16.11-1.32c1-.2,2-.42,3-.67A71.49,71.49,0,0,0,233,627.48h0c1.28-.56,2.55-1.15,3.81-1.8,1.61-.81,3.21-1.69,4.78-2.63a74.58,74.58,0,0,0,6.69-4.52c.37-1.48.81-2.95,1.29-4.4s1.09-3.16,1.72-4.72c-1.07,1-2.19,2-3.33,3a70.15,70.15,0,0,1-8.94,6.36l-1.11.65a68,68,0,0,1-6.41,3.28,70.1,70.1,0,0,1-11.91,4.07c-1.12.27-2.24.5-3.36.71a66.74,66.74,0,0,1-14,1.15c-1.68,0-3.35-.15-5-.31a61.48,61.48,0,0,1-29.37-10.83,56.91,56.91,0,0,1-10.58-9.73c-1.07-1.26-2.09-2.59-3-4-.77-1.08-1.49-2.19-2.18-3.34a56.88,56.88,0,0,1-8.06-31.31,60.4,60.4,0,0,1,1.12-9.84c.29-1.47.62-2.92,1-4.36.44-1.63.94-3.24,1.52-4.83l.05-.13a0,0,0,0,0,0,0,67.75,67.75,0,0,1,29-34.86c.82-.5,1.64-1,2.47-1.42h0a71.7,71.7,0,0,1,8.69-4c1.57-.59,3.16-1.13,4.75-1.62l.6-.17c1-.3,2-.56,3-.8a65.86,65.86,0,0,1,29.1-.46,62.08,62.08,0,0,1,8,2.27,57.76,57.76,0,0,1,7.71,3.36q2.12,1.1,4.1,2.36l.24.15c.72.44,1.42.91,2.1,1.4a56.6,56.6,0,0,1,16.12,17.29,55.65,55.65,0,0,1,5.12,11.11c.09-.13.2-.26.29-.38,1.1-1.44,2.2-2.88,3.32-4.31A59.68,59.68,0,0,0,268,530.84ZM273,566.79a1.71,1.71,0,0,0-.2-.18l-1.11-1c0,.63-.07,1.27-.13,1.91-.11,1.48-.28,3-.5,4.41a61.37,61.37,0,0,1-3,11.7,72.73,72.73,0,0,1,7-6.35h0c.28-1.26.53-2.55.73-3.82s.37-2.48.5-3.72C275.26,568.74,274.13,567.77,273,566.79Z" transform="translate(-108.9 -109.1)"/><path class="cls-12" d="M226.45,551.36a21,21,0,0,0-3.19-4.1,20.67,20.67,0,0,0-3.91-3.13,22.7,22.7,0,0,0-7.32-2.92,23.92,23.92,0,0,0-9.79,0,25.4,25.4,0,0,0-4.78,1.48,23.68,23.68,0,0,0-3.17,1.62,24.57,24.57,0,0,0-10,11.39,23.26,23.26,0,0,0-1,2.83c-.19.67-.35,1.33-.48,2A21.75,21.75,0,0,0,185.44,576a21.52,21.52,0,0,0,1.3,1.92,21.28,21.28,0,0,0,3.47,3.62,22.93,22.93,0,0,0,12.58,5c.25,0,.49,0,.74,0a23.92,23.92,0,0,0,4.32-.15,24.28,24.28,0,0,0,2.68-.49,25.39,25.39,0,0,0,7.08-2.91c.45-.28.88-.56,1.3-.85.19-.12.38-.26.56-.39a24.73,24.73,0,0,0,3.74-3.33,24.3,24.3,0,0,0,5.44-9.65,22.43,22.43,0,0,0,.89-5.85,20.76,20.76,0,0,0-.33-4.32c-.05-.22-.09-.44-.13-.66A21.45,21.45,0,0,0,226.45,551.36Zm-13.88,23.08-.12.07a15.65,15.65,0,0,1-3.21,1.46,14.32,14.32,0,0,1-5.14.68,13,13,0,0,1-2.16-.28,13.22,13.22,0,0,1-3.58-1.33,11.66,11.66,0,0,1-3.79-3.36,8,8,0,0,1-.55-.83,11.91,11.91,0,0,1-1.35-8.85c.06-.25.12-.49.2-.75a13.66,13.66,0,0,1,1.87-4,14.92,14.92,0,0,1,4.7-4.4c.27-.16.54-.32.82-.46a14.82,14.82,0,0,1,3.44-1.3,12,12,0,0,1,1.33-.25A13.78,13.78,0,0,1,210,551a12.62,12.62,0,0,1,3.73,1.43,7.86,7.86,0,0,1,.87.54,11,11,0,0,1,2.87,2.85,7.66,7.66,0,0,1,.46.7,11.51,11.51,0,0,1,1.09,2.4,12.07,12.07,0,0,1,.5,5,13.5,13.5,0,0,1-.44,2.21,14.24,14.24,0,0,1-2.67,5.06A15.38,15.38,0,0,1,212.57,574.44Z" transform="translate(-108.9 -109.1)"/><path class="cls-12" d="M262.57,722.24l-10.1,3.15c-2.49-1.75-4.93-3.51-7.34-5.33h0l-6.28-20.18v0l-15.1-48.45-3-9.59-3-9.53-1.5-4.81-9.71-31.14-3-9.7L203,585v0l-.6-1.93.91-.29,5.27-1.64,7.9-2.46,1.2-.37.78,2.5.46,1.49,12.62,40.46,1.49,4.79h0L236,636.9l3,9.59,21.85,70.1Z" transform="translate(-108.9 -109.1)"/><path class="cls-12" d="M275.89,573.44c-.2,1.27-.45,2.56-.73,3.82a76.1,76.1,0,0,0-11.42,11.21l-10.08-3.18-28.61-9-3.67-1.16,3.69-11.69,1.63-5.17.09-.3.74.23,1.68.53L240,562.1h0l27.47,8.67,3.61,1.14Z" transform="translate(-108.9 -109.1)"/><path class="cls-32" d="M137.81,553.29" transform="translate(-108.9 -109.1)"/><path class="cls-12" d="M194.74,557.25a13.66,13.66,0,0,0-1.87,4c-.08.26-.14.5-.2.75l-9.9-1.51L148,555.21l-1.83-.28-2-.31-1.38-.21-1.55-.23-2.81-.43-4.38-.67-3.17-.48-5.74-.87-3.33-.5-.88-.14c.23-.94.49-1.88.76-2.82.13-.45.26-.91.4-1.35a.11.11,0,0,0,0,0s0,0,0,0h0c0-.21.11-.41.18-.62l1.2.18,8.83,1.35,4.35.66,6,.92,5,.76h.08l36.47,5.56Z" transform="translate(-108.9 -109.1)"/><path class="cls-12" d="M205,550.84a12,12,0,0,0-1.33.25,14.82,14.82,0,0,0-3.44,1.3l-2.8-9.73-9.54-33-1.38-4.81-2.73-9.45L181,485.74c1.57-.56,3.15-1.09,4.74-1.57l2.78,9.61,2.73,9.45,1.39,4.79,9.57,33.16Z" transform="translate(-108.9 -109.1)"/><path class="cls-12" d="M198.36,575l-8.15,6.5L160.8,605l-3.45,2.75-3.91,3.11-2.18,1.73-4.65,3.71-1.79,1.43-3.1,2.47-4.54,3.63h0L137,624l-.09-.11c-.6-.72-1.19-1.46-1.76-2.21-.42-.53-.82-1.08-1.22-1.62l7.83-6.24,2.94-2.35,4.17-3.31,1.52-1.22,3.92-3.13,4.1-3.27,28.34-22.59,7.83-6.24A11.66,11.66,0,0,0,198.36,575Z" transform="translate(-108.9 -109.1)"/><path class="cls-12" d="M209.24,576l-.67,5.1-.72,5.41-1.3,9.85-4.25,32.29-.65,5-1.33,10.15-1.32,10c-1.67-.07-3.34-.19-5-.35l1.3-9.93,1.35-10.19.65-5,5.49-41.73L203,585v0l.31-2.22.8-6.06A14.32,14.32,0,0,0,209.24,576Z" transform="translate(-108.9 -109.1)"/><path class="cls-12" d="M260,493.45l-5.64,8.26-6.07,8.88-2.83,4.14-22.2,32.53-5.84,8.55a11,11,0,0,0-2.87-2.85,7.86,7.86,0,0,0-.87-.54l5.67-8.29,21.77-31.91,2.85-4.16L250,499.2l5.66-8.3C257.15,491.7,258.59,492.56,260,493.45Z" transform="translate(-108.9 -109.1)"/><path class="cls-12" d="M266.68,559.76,240,562.1h0l-10.45.91-4.47.39-5.6.49a12.07,12.07,0,0,0-.5-5l7.73-.68.83-.07,1.55-.13,35.76-3.13A12.14,12.14,0,0,0,266.68,559.76Z" transform="translate(-108.9 -109.1)"/><path class="cls-12" d="M251.69,609l-.36.36h0q-.94,2.34-1.72,4.72L248,612.4,242,606l-22.54-24.14-1-1.1-2-2.13-3.9-4.17a15.38,15.38,0,0,0,3.79-3.28l6.85,7.35,21,22.46,7.37,7.9Z" transform="translate(-108.9 -109.1)"/><path class="cls-33" d="M187.94,669.19c12.87,0,12.89-20,0-20s-12.89,20,0,20Z" transform="translate(-108.9 -109.1)"/><path class="cls-12" d="M177.33,663.77c-.29-5.85,1.07-9.93,7.15-11.67,6.38-1.81,11.31-.15,13.17,6.5.54,1.95,1.3,4.48.89,6.49-.6,3-4.18,4.42-6.84,5.47-5.38,2.12-14.1,1.89-14.31-5.77-.09-3.21-5.1-3.22-5,0,.24,8.64,8.41,13.31,16.46,11.84,4-.72,9.72-2.73,12.52-5.72s2.42-7.29,1.71-11c-1.67-8.74-7-14.75-16.41-13.38q-15.09,2.21-14.34,17.25c.16,3.2,5.16,3.22,5,0Z" transform="translate(-108.9 -109.1)"/><path class="cls-12" d="M176.2,669,200,663.72c3.14-.69,1.81-5.51-1.33-4.82l-23.77,5.27c-3.14.69-1.81,5.51,1.33,4.82Z" transform="translate(-108.9 -109.1)"/><path class="cls-12" d="M178.62,671.42c7,2,18.36,3.42,21-5.53a2.51,2.51,0,0,0-2.41-3.16c-3.76.35-7.52.68-11.27,1.06-2.35.24-4.47.33-6.16,2.14-2.19,2.35,1.34,5.9,3.54,3.54,1.14-1.23,5.24-.92,6.84-1.08l7-.66-2.41-3.17c-1.62,5.51-11,3.17-14.84,2-3.09-.9-4.42,3.92-1.33,4.82Z" transform="translate(-108.9 -109.1)"/><path class="cls-34" d="M135.28,627.14c12.87,0,12.89-20,0-20s-12.89,20,0,20Z" transform="translate(-108.9 -109.1)"/><path class="cls-12" d="M123.78,621.77c-.29-5.85,1.06-9.94,7.15-11.67,6.38-1.82,11.3-.15,13.17,6.5.54,1.94,1.3,4.48.89,6.48-.61,3-4.19,4.42-6.85,5.47-5.37,2.13-14.09,1.89-14.31-5.77-.09-3.21-5.09-3.22-5,0,.25,8.65,8.42,13.32,16.47,11.84,3.95-.72,9.72-2.73,12.52-5.72s2.41-7.29,1.7-11c-1.67-8.74-7-14.74-16.4-13.37q-15.09,2.19-14.34,17.25c.16,3.2,5.16,3.22,5,0Z" transform="translate(-108.9 -109.1)"/><path class="cls-12" d="M122.65,627l23.76-5.26c3.15-.7,1.82-5.52-1.32-4.82l-23.77,5.26c-3.14.7-1.81,5.52,1.33,4.82Z" transform="translate(-108.9 -109.1)"/><path class="cls-12" d="M125.07,629.41c7,2,18.35,3.42,21-5.52a2.52,2.52,0,0,0-2.41-3.17c-3.76.36-7.52.69-11.28,1.07-2.34.24-4.46.33-6.15,2.14-2.19,2.35,1.33,5.89,3.53,3.53,1.15-1.22,5.24-.92,6.85-1.07l7.05-.67-2.41-3.16c-1.63,5.51-11,3.16-14.84,2-3.1-.9-4.42,3.92-1.33,4.82Z" transform="translate(-108.9 -109.1)"/><path class="cls-12" d="M119.42,553.84c-.13,5.48,3.74,9.84,8.78,11.48l-1.74-1.74h0a2.4,2.4,0,0,0,1.74,1.74h.06l-1.75-1.75h0c.76,3.13,5.58,1.81,4.82-1.33h0a2.43,2.43,0,0,0-1.74-1.75h-.06l1.75,1.75c-.46-1.91-3.3-2.16-4.63-3.35a6.42,6.42,0,0,1-2.23-5.07c.08-3.22-4.92-3.22-5,0Z" transform="translate(-108.9 -109.1)"/><path class="cls-35" d="M137.91,562.23c12.87,0,12.89-20,0-20s-12.89,20,0,20Z" transform="translate(-108.9 -109.1)"/><path class="cls-12" d="M123.24,558,147,552.77c3.14-.69,1.81-5.52-1.33-4.82l-23.77,5.26c-3.14.7-1.81,5.52,1.33,4.83Z" transform="translate(-108.9 -109.1)"/><path class="cls-12" d="M125.66,560.47c7,2,18.35,3.41,21-5.53a2.52,2.52,0,0,0-2.41-3.17c-3.76.36-7.52.69-11.28,1.07-2.34.24-4.46.33-6.15,2.14-2.19,2.35,1.33,5.89,3.53,3.54,1.15-1.23,5.24-.93,6.85-1.08l7.05-.67-2.41-3.16c-1.63,5.51-11,3.17-14.84,2-3.1-.91-4.42,3.92-1.33,4.82Z" transform="translate(-108.9 -109.1)"/><path class="cls-12" d="M170.58,503c-.29-5.85,1.06-9.94,7.15-11.67,6.38-1.81,11.31-.15,13.17,6.5.54,1.94,1.3,4.48.89,6.48-.61,3-4.19,4.43-6.85,5.48-5.37,2.12-14.09,1.89-14.31-5.77-.09-3.21-5.09-3.23-5,0,.25,8.64,8.42,13.31,16.47,11.84,4-.73,9.72-2.74,12.52-5.73s2.42-7.29,1.7-11c-1.67-8.74-7-14.74-16.4-13.37Q164.83,488,165.58,503c.16,3.2,5.16,3.22,5,0Z" transform="translate(-108.9 -109.1)"/><path class="cls-13" d="M182.35,509.89c12.86,0,12.89-20,0-20s-12.89,20,0,20Z" transform="translate(-108.9 -109.1)"/><path class="cls-12" d="M169.45,508.23,193.22,503c3.14-.69,1.81-5.52-1.33-4.82l-23.77,5.26c-3.14.7-1.81,5.52,1.33,4.83Z" transform="translate(-108.9 -109.1)"/><path class="cls-17" d="M247,509.89c12.87,0,12.89-20,0-20s-12.89,20,0,20Z" transform="translate(-108.9 -109.1)"/><path class="cls-12" d="M171.87,510.66c7,2,18.35,3.41,21-5.53a2.52,2.52,0,0,0-2.41-3.17c-3.76.36-7.52.69-11.28,1.07-2.34.24-4.46.33-6.15,2.14-2.19,2.35,1.33,5.89,3.53,3.54,1.15-1.23,5.24-.93,6.85-1.08l7-.67L188,503.8c-1.63,5.51-11,3.17-14.84,2-3.1-.91-4.42,3.92-1.33,4.82Z" transform="translate(-108.9 -109.1)"/><path class="cls-12" d="M235.11,504c-.29-5.85,1.07-9.94,7.15-11.67,6.38-1.81,11.31-.15,13.17,6.5.54,1.94,1.3,4.48.89,6.48-.6,3-4.18,4.43-6.84,5.48-5.38,2.12-14.09,1.89-14.31-5.77-.09-3.21-5.09-3.23-5,0,.24,8.64,8.41,13.31,16.47,11.84,3.94-.72,9.71-2.74,12.51-5.73s2.42-7.29,1.71-11c-1.67-8.73-7-14.74-16.41-13.37Q229.36,489,230.11,504c.16,3.2,5.16,3.22,5,0Z" transform="translate(-108.9 -109.1)"/><path class="cls-12" d="M234,509.25,257.75,504c3.14-.69,1.81-5.52-1.33-4.82l-23.77,5.26c-3.14.7-1.81,5.52,1.33,4.83Z" transform="translate(-108.9 -109.1)"/><path class="cls-12" d="M236.4,511.68c7,2,18.36,3.41,21-5.53A2.52,2.52,0,0,0,255,503c-3.76.36-7.52.69-11.27,1.07-2.35.24-4.47.33-6.16,2.14-2.19,2.35,1.34,5.9,3.54,3.54,1.14-1.23,5.24-.93,6.84-1.08l7-.67-2.41-3.16c-1.62,5.51-11,3.17-14.84,2-3.09-.91-4.42,3.92-1.33,4.82Z" transform="translate(-108.9 -109.1)"/><path class="cls-12" d="M123.76,554.74c-.29-5.85,1.07-9.94,7.15-11.67,6.38-1.81,11.31-.15,13.17,6.5.54,1.94,1.3,4.48.89,6.48-.61,3-4.19,4.42-6.85,5.48-5.37,2.12-14.09,1.89-14.31-5.77-.09-3.21-5.09-3.23-5,0,.25,8.64,8.42,13.31,16.47,11.84,3.95-.73,9.72-2.74,12.52-5.73s2.42-7.29,1.71-11c-1.67-8.74-7-14.74-16.41-13.37q-15.09,2.19-14.34,17.25c.16,3.2,5.16,3.22,5,0Z" transform="translate(-108.9 -109.1)"/><path class="cls-12" d="M293.63,507.42c-7.6,8.53-15.22,17.07-22.43,25.93-5.82,7.16-14.68,15.8-9.24,25.6,4.43,7.95,11.61,15.54,17.8,22.15a89.32,89.32,0,0,0,23.15,18.23c5.68,3,10.74-5.61,5-8.63-14.27-7.57-24.8-20-34.43-32.68-1.26-1.66-2.89-3.23-3.08-5.36-.21-2.32,1.35-4,2.69-5.78,2.79-3.72,5.79-7.3,8.77-10.86,6.11-7.31,12.45-14.42,18.79-21.52,4.28-4.79-2.77-11.89-7.07-7.08Z" transform="translate(-108.9 -109.1)"/><path class="cls-30" d="M256.47,725.39" transform="translate(-108.9 -109.1)"/></g><g id="Layer_5" data-name="Layer 5"><path class="cls-12" d="M721.8,695.2a81.63,81.63,0,0,1-9.68,27.66c-.41.7-.82,1.4-1.25,2.09l0,0a71.05,71.05,0,0,1-26.15,24.72C673.35,756,660.62,760.13,648,763.05c-12.81,3-26,4-38.83.33a5,5,0,0,1-2-8.39,61.64,61.64,0,0,0,9.51-12.08,60.71,60.71,0,0,0,7.29-18.4,64.3,64.3,0,0,0,1.19-8c.09-1.1.15-2.22.18-3.34.18-6.43,10.18-6.12,10,.32,0,.62,0,1.24-.08,1.85s-.06,1.17-.11,1.75a71.2,71.2,0,0,1-15,38.33c11.85,1.37,23.84-1.3,35.29-4.67,14.46-4.26,29-10.29,39.71-21.28a52.61,52.61,0,0,0,4.76-5.62,57.5,57.5,0,0,0,5.24-8.52C713.44,699,714.51,679,712.48,661c0-.43-.09-.85-.14-1.27-.6-4.9-1.29-10-2.37-15.08-1.5-7.09-3.77-14-7.64-19.92-7.42-11.3-21.53-15.23-34-18.15-27.52-6.44-55.85-4-82.41,5.32-27.63,9.67-53.8,23.75-80.61,35.45-26.49,11.58-53.4,22.34-81,30.9S368.24,693,339.37,695.47c-25.73,2.2-55.08,3.29-77.8-11.06l-.08,0c-9.78-6.2-17.84-15.05-21.93-26-.54-1.44-1-2.92-1.42-4.39q-.72-2.61-1.18-5.26c-.08-.46-.16-.92-.23-1.39a67.59,67.59,0,0,1-.73-8.88c0-.53,0-1.07,0-1.6a81.08,81.08,0,0,1,.59-9.22c.08-.67.17-1.33.26-2,.17-1.31.39-2.6.63-3.9a2.17,2.17,0,0,1,0-.25c.13-.71.27-1.41.43-2.12A80.68,80.68,0,0,1,242,606q.57-1.5,1.23-3,.45-1,.93-2c.44-.94.9-1.88,1.39-2.8a85.72,85.72,0,0,1,8.1-12.88c.26-.34.52-.68.79-1a89,89,0,0,1,13-13.51c.37-.31.74-.62,1.11-.91,1-.82,2-1.6,3-2.36.41-.3.82-.6,1.24-.89l.56-.42a4.2,4.2,0,0,1,3.33-.81,5.15,5.15,0,0,1,3.68,4.34,5.38,5.38,0,0,1-.37,3.08l0,.11a3.1,3.1,0,0,1-.26.47,5.09,5.09,0,0,1-1.48,1.57c-1,.74-2.06,1.51-3.07,2.31h0c-.48.38-.95.77-1.42,1.17a68.55,68.55,0,0,0-5.61,5.18q-1.83,1.86-3.54,3.86l-.84,1a79.45,79.45,0,0,0-10.93,17.47c-.45,1-.87,1.95-1.27,2.93-.08.19-.15.36-.21.53h0c-.21.53-.42,1.07-.62,1.6-.39,1-.76,2.07-1.1,3.12l-.08.24c-.45,1.37-.86,2.76-1.21,4.16-.29,1.11-.56,2.23-.81,3.35a70.15,70.15,0,0,0-1.4,9.88c0,.76-.09,1.53-.13,2.29a68.23,68.23,0,0,0,.29,9c0,.3.05.59.09.89s.08.65.13,1c4.3,32.52,38.85,41.53,66.94,41.65,59.6.28,117.65-18.7,172-41.54,27.78-11.68,54.72-25.27,82.53-36.85,25.91-10.79,52.85-17.17,81-14.74,23.94,2.07,54.11,8,65.14,32.13a73.11,73.11,0,0,1,3.28,8.64A106.61,106.61,0,0,1,721,649.89c.63,3.93,1.11,7.88,1.5,11.76A128.2,128.2,0,0,1,721.8,695.2Z" transform="translate(-108.9 -109.1)"/><path class="cls-12" d="M712.12,722.86a5.83,5.83,0,0,1-1.25,2.09l0,0a5.05,5.05,0,0,1-6.17,1.12c-1.57-.8-3.14-1.55-4.74-2.27-13.16-5.85-27.18-8.54-41.42-9.15a168.18,168.18,0,0,0-20.56.43l-2.69.21c-3.37.31-6.74.71-10.1,1.17-8.84,1.21-17.59,2.89-26.1,4.77a709.51,709.51,0,0,0-110.84,34.6c-16.83,6.75-33.73,13.95-51,19.64a218.71,218.71,0,0,1-36.2,8.92,152.45,152.45,0,0,1-19.42,1.68c-32.53.69-61.91-12.29-85.24-34.42-.64-.59-1.25-1.19-1.88-1.8a174.88,174.88,0,0,1-20.69-24.7c-14.55-20.79-25.31-44.28-35.42-67.48a5,5,0,0,1-.21-3.68c1.26-3.82,7-5.74,9-1.17,4.58,10.51,9.3,21.14,14.47,31.56,9.76,19.68,21.11,38.58,36.08,54.46A142.53,142.53,0,0,0,311.8,752c12.45,10,26.83,17.69,42.45,21.39,17,4.05,35,3.28,52.06,0l1.31-.26c36.88-7.27,70.89-25.09,106.12-37.59,34.17-12.12,69.68-22.92,105.61-28.34a215.15,215.15,0,0,1,32.43-2.57,152.16,152.16,0,0,1,17.62,1,119,119,0,0,1,35.77,9.63c1.59.7,3.17,1.46,4.73,2.26A4.17,4.17,0,0,1,712.12,722.86Z" transform="translate(-108.9 -109.1)"/><path class="cls-36" d="M355.56,721.6a436.55,436.55,0,0,0,27,37c4.05,5,11.24-1.95,7.21-6.93a414.42,414.42,0,0,1-25.43-35c-3.48-5.36-12.27-.57-8.74,4.84Z" transform="translate(-108.9 -109.1)"/><path class="cls-36" d="M415.91,742.5q-3.81-7.05-7.6-14.11c-2.05-3.79-4.58-7.64-6-11.77,1.68-.54,3.35-1.1,5-1.7,6-2.14,3.72-11.88-2.35-9.72a176.8,176.8,0,0,1-21.67,6.2c-6.29,1.38-3.94,11.1,2.35,9.73,2.36-.52,4.7-1.1,7-1.71,1.45,4.27,3.85,8.2,6,12.16l8.5,15.77C410.21,753,419,748.18,415.91,742.5Z" transform="translate(-108.9 -109.1)"/><path class="cls-36" d="M459.53,707.72l-9,2.16c-.92-2.36-1.8-4.74-2.61-7.15l11.28-3.53c6.11-1.92,3.81-11.65-2.35-9.72l-16.55,5.18a4.93,4.93,0,0,0-3.1,2.63,4.33,4.33,0,0,0-.34,3.67l.09.29c0,.1.06.2.1.3a181.47,181.47,0,0,0,15.07,35c3.15,5.6,11.91.78,8.75-4.84q-3.45-6.12-6.37-12.46l7.33-1.77C468.13,715.93,465.79,706.21,459.53,707.72Z" transform="translate(-108.9 -109.1)"/><path class="cls-36" d="M511.5,701.55q-6.09-1.24-12.24-1.91c4.5-4.84,7.52-10.53,2.4-16.35-6.6-7.5-18.1-4.88-25.57.18-2.72.33-5.14,2.54-4.09,5.89a177.82,177.82,0,0,0,14.76,34.4c3.15,5.6,11.91.78,8.75-4.85q-2.73-4.86-5.12-9.87a108.67,108.67,0,0,1,18.23,2.09C514.89,712.41,517.81,702.84,511.5,701.55ZM483,691c3.72-1.88,10.69-4.34,10.87-.71.07,1.43-3.06,3.51-4,4.36l-4.13,3.84C484.79,696,483.87,693.52,483,691Z" transform="translate(-108.9 -109.1)"/><path class="cls-36" d="M540,692.11c-.91.25-7.25,1.39-9.36,2.29l-.48-.87c-.91-1.7-1.81-3.39-2.69-5.09-.11-.2-.2-.39-.3-.58l1.05-.26a5,5,0,1,0-2.35-9.72l-3.35.81q-1.39-2.81-2.74-5.62c3.16-1.25,6.26-2.62,9.29-4.17,5.73-2.94.89-11.69-4.85-8.75a90.93,90.93,0,0,1-12.06,5.16,5.26,5.26,0,0,0-3.64,7.32c4.33,9.26,8.83,18.49,13.8,27.43,1.65,3,3.26,5.29,7,5.13,4.28-.19,8.94-2.23,13.07-3.36C548.54,700.12,546.22,690.4,540,692.11Z" transform="translate(-108.9 -109.1)"/><path class="cls-36" d="M570,643.57c-5.85-.93-12.26-.6-16,4.72-3,4.32-4.39,10.31-1.42,15,3.2,5,9.52,6.73,14.55,9.19,1.93.94,6.43,2.71,6.34,5.25-.12,3.74-7,1.64-8.91.58-5.61-3.15-10.84,5.37-5.22,8.53,5.31,3,11.82,4.1,17.53,1.46s9-9.22,6.14-15.11-9.07-8.53-14.59-11c-2.12-1-7.08-2.32-7.51-5-.79-5,6.19-3.94,8.73-3.53,6.35,1,6.59-9,.32-10Z" transform="translate(-108.9 -109.1)"/><path class="cls-36" d="M633.63,672.61q-3.2-19.26-7.93-38.21c-1.56-6.24-11.28-3.9-9.72,2.35.83,3.3,1.61,6.62,2.37,9.93a88.16,88.16,0,0,0-13.24,2.21q-1.26-5.57-2.61-11.11c-1.52-6.26-11.24-3.92-9.72,2.34q4.72,19.38,8.33,39c1.16,6.34,10.88,4,9.72-2.34q-1.68-9.09-3.59-18.11a72,72,0,0,1,13.23-2.17q1.9,9.19,3.44,18.47C625,681.31,634.68,678.93,633.63,672.61Z" transform="translate(-108.9 -109.1)"/><path class="cls-36" d="M663.38,634.16q-1.87,5.58-3.76,11.15a97.37,97.37,0,0,1-11.19-12.63c-1.62-2.19-5.29-1.82-7.07-.14-2.17,2-1.74,4.91-.14,7.07A97.41,97.41,0,0,0,655.34,655a5.44,5.44,0,0,0,.82.59q-3,8.87-6,17.73c-2.07,6.12,7.52,9,9.58,2.88Q666.35,656.6,673,637C675,630.93,665.44,628.07,663.38,634.16Z" transform="translate(-108.9 -109.1)"/><path class="cls-36" d="M344.63,744.58a12.88,12.88,0,0,0-3.8-4.48,16.19,16.19,0,0,0,1.11-3.32,3.18,3.18,0,0,0-2.22-3.8c-1.83-.58-3.75.3-5.45,1.31a18.87,18.87,0,0,0-2.93-2.1,2.47,2.47,0,0,0-2.52-.05c-2.23,1.57-1.75,3.63-1.39,6-2.89,1.78-5.45,4.16-3.3,7,1.05,1.38,3,1.61,4.8,1.73.26,1.22.52,2.43.81,3.64,0,.49-.08,1-.11,1.46-.15,2.65,3.25,3.29,4.63,1.38a28.67,28.67,0,0,0,3-5.65l5.14.56C344.45,748.52,345.3,746.17,344.63,744.58Z" transform="translate(-108.9 -109.1)"/><path class="cls-36" d="M705.37,666.81c-.56-2.74-3-3.95-5.55-4.72-.36-3.08-1.39-5.65-3.76-6.42-3-1-5.3,1.65-7.1,3.7a20.41,20.41,0,0,0-7.79-.4,2.47,2.47,0,0,0-1.81,1.71c-.71,2.37.81,4.81,2.2,6.84l-4.43,4.87a2.6,2.6,0,0,0-.37.52c-1.45,1.7-.23,4.73,2.36,4.11s5.45-1.37,8.15-2.11c1.26,1.45,2.55,2.89,3.82,4.34s2.89,3.74,5.26,2.94c2.68-.9,2.53-4.67,2.74-6.86.1-1,.31-2.48.5-4.17,1.31-.44,2.63-.87,3.94-1.33A2.57,2.57,0,0,0,705.37,666.81Zm-10.73,6.35-.22-.34.24-.08C694.66,672.88,694.65,673,694.64,673.16Z" transform="translate(-108.9 -109.1)"/><path class="cls-34" d="M353.62,717.78a440.49,440.49,0,0,0,27,37.05c4,5,11.24-2,7.2-6.94a414.91,414.91,0,0,1-25.42-35c-3.48-5.36-12.27-.57-8.75,4.85Z" transform="translate(-108.9 -109.1)"/><path class="cls-34" d="M414,738.67l-7.61-14.1c-2-3.8-4.57-7.65-6-11.78q2.52-.81,5-1.69c6-2.14,3.72-11.89-2.35-9.73a177.35,177.35,0,0,1-21.67,6.21c-6.29,1.38-3.94,11.1,2.35,9.72,2.36-.52,4.69-1.1,7-1.71,1.44,4.27,3.85,8.2,6,12.17q4.25,7.88,8.5,15.76C408.28,749.18,417,744.35,414,738.67Z" transform="translate(-108.9 -109.1)"/><path class="cls-34" d="M457.6,703.89l-9,2.16c-.92-2.36-1.8-4.74-2.61-7.15l11.28-3.53c6.11-1.91,3.81-11.65-2.35-9.72l-16.55,5.18a4.94,4.94,0,0,0-3.1,2.64,4.3,4.3,0,0,0-.34,3.66l.09.3a2.47,2.47,0,0,0,.1.29,181.83,181.83,0,0,0,15.07,35c3.15,5.6,11.91.78,8.75-4.85q-3.45-6.12-6.37-12.46l7.33-1.77C466.2,712.1,463.86,702.38,457.6,703.89Z" transform="translate(-108.9 -109.1)"/><path class="cls-34" d="M509.57,697.72c-4.07-.83-8.14-1.47-12.24-1.9,4.5-4.85,7.52-10.54,2.4-16.35-6.6-7.51-18.1-4.89-25.57.17-2.72.33-5.14,2.54-4.09,5.89a177.9,177.9,0,0,0,14.76,34.41c3.14,5.6,11.91.78,8.75-4.85-1.83-3.25-3.52-6.54-5.12-9.88a108.67,108.67,0,0,1,18.23,2.09C513,708.58,515.88,699,509.57,697.72Zm-28.49-10.55c3.72-1.89,10.69-4.35,10.87-.71.06,1.43-3.06,3.5-4,4.36l-4.13,3.83Q482.37,690.95,481.08,687.17Z" transform="translate(-108.9 -109.1)"/><path class="cls-34" d="M538.07,688.28c-.91.25-7.25,1.39-9.37,2.3l-.47-.88q-1.37-2.54-2.7-5.09l-.29-.58,1-.25a5,5,0,0,0-2.35-9.73l-3.35.81q-1.4-2.79-2.74-5.61c3.16-1.25,6.26-2.63,9.29-4.18,5.73-2.93.89-11.69-4.85-8.75a92.33,92.33,0,0,1-12.06,5.17,5.25,5.25,0,0,0-3.64,7.31c4.33,9.26,8.83,18.5,13.8,27.44,1.65,3,3.26,5.29,7,5.12,4.28-.19,8.94-2.23,13.07-3.36C546.61,696.3,544.29,686.57,538.07,688.28Z" transform="translate(-108.9 -109.1)"/><path class="cls-34" d="M568.1,639.75c-5.85-.94-12.26-.61-16,4.72-3,4.31-4.39,10.31-1.42,14.95,3.2,5,9.52,6.73,14.55,9.19,1.93.94,6.43,2.71,6.34,5.25-.13,3.74-7,1.65-8.92.58-5.6-3.15-10.84,5.38-5.21,8.53,5.31,3,11.82,4.11,17.53,1.47s9-9.22,6.14-15.12-9.07-8.52-14.59-11c-2.12-1-7.08-2.32-7.51-5-.79-5,6.19-3.93,8.73-3.53,6.35,1,6.59-9,.32-10Z" transform="translate(-108.9 -109.1)"/><path class="cls-34" d="M631.7,668.78q-3.19-19.26-7.93-38.2c-1.56-6.24-11.28-3.91-9.72,2.34.83,3.31,1.61,6.62,2.37,9.94a85.69,85.69,0,0,0-13.24,2.21q-1.26-5.57-2.61-11.12c-1.52-6.25-11.24-3.92-9.72,2.35q4.73,19.37,8.33,39c1.16,6.33,10.88,4,9.72-2.35q-1.68-9.08-3.59-18.11a72,72,0,0,1,13.23-2.16q1.9,9.2,3.44,18.46C623,677.48,632.75,675.1,631.7,668.78Z" transform="translate(-108.9 -109.1)"/><path class="cls-34" d="M661.45,630.34l-3.76,11.14a96.71,96.71,0,0,1-11.19-12.63c-1.62-2.18-5.29-1.81-7.07-.14-2.18,2-1.74,4.92-.14,7.08a97.82,97.82,0,0,0,14.12,15.35,6.24,6.24,0,0,0,.82.59q-3,8.87-6,17.73c-2.07,6.11,7.52,9,9.58,2.88q6.6-19.56,13.21-39.12C673.09,627.1,663.51,624.25,661.45,630.34Z" transform="translate(-108.9 -109.1)"/><path class="cls-34" d="M342.7,740.75a13.07,13.07,0,0,0-3.8-4.48A16.19,16.19,0,0,0,340,733a3.19,3.19,0,0,0-2.22-3.8c-1.84-.57-3.75.3-5.46,1.32a17.8,17.8,0,0,0-2.92-2.11,2.52,2.52,0,0,0-2.52-.05c-2.23,1.57-1.75,3.63-1.4,6-2.88,1.78-5.44,4.17-3.29,7,1.05,1.39,3,1.61,4.8,1.73.26,1.22.52,2.44.81,3.65,0,.48-.09,1-.11,1.45-.15,2.65,3.25,3.3,4.63,1.38a28.87,28.87,0,0,0,3-5.64l5.14.55C342.51,744.69,343.37,742.34,342.7,740.75Z" transform="translate(-108.9 -109.1)"/><path class="cls-34" d="M703.44,663c-.57-2.74-3-4-5.55-4.71-.36-3.09-1.39-5.65-3.76-6.42-3-1-5.3,1.65-7.1,3.69a20.62,20.62,0,0,0-7.79-.4,2.49,2.49,0,0,0-1.81,1.71c-.71,2.38.81,4.81,2.2,6.84l-4.43,4.87a3,3,0,0,0-.37.53c-1.45,1.7-.23,4.73,2.36,4.11s5.45-1.37,8.15-2.12c1.26,1.46,2.55,2.9,3.82,4.34s2.89,3.74,5.26,3c2.68-.9,2.53-4.68,2.74-6.87.1-1,.31-2.47.5-4.17,1.31-.44,2.63-.87,3.94-1.33A2.57,2.57,0,0,0,703.44,663Zm-10.73,6.35c-.07-.11-.15-.22-.22-.34l.24-.08C692.72,669.05,692.72,669.19,692.71,669.33Z" transform="translate(-108.9 -109.1)"/></g><g id="Layer_7" data-name="Layer 7"><path class="cls-12" d="M744,614.38a29.62,29.62,0,0,0-5.73-14.58c-9.37-12.51-28-17.83-43-20.1-19.15-2.9-48.43-3.75-54.38,20.15-.7,2.78-5,1.49-4.27-1.29,6.67-26.77,38.9-26.45,60.47-23.06,15.54,2.44,33.24,8.16,43.34,20.11a34,34,0,0,1,6.87,12.81C746.16,610.41,745.06,612.4,744,614.38Z" transform="translate(-108.9 -109.1)"/><path class="cls-12" d="M665.32,577.75c4.09-13.83,21.88-11,32.68-9.37,11.58,1.72,25.5,5.35,29.08,18.15.77,2.76,5.1,1.73,4.33-1-4.19-15-19.54-19.54-33.26-21.56-13.14-1.94-32.31-3.67-37.1,12.54-.81,2.75,3.45,4,4.27,1.28Z" transform="translate(-108.9 -109.1)"/><path class="cls-12" d="M679.83,562.86a12,12,0,0,1-2.29-5.18c-.55-2.82-4.88-1.76-4.33,1.05a16.85,16.85,0,0,0,3.41,7.22,2.25,2.25,0,0,0,3.15.06,2.28,2.28,0,0,0,.06-3.15Z" transform="translate(-108.9 -109.1)"/><path class="cls-12" d="M677.46,557.75c.21-.78,2.25-1.92,2.76-2.56a13,13,0,0,0,1.58-2.63c1.69-3.51,2.38-7.38,3-11.18,1.35-7.89,2.55-17.28,11-20.74,2.64-1.08.46-5-2.16-3.9-7.19,3-10.56,10.23-12,17.45-.91,4.45-1.26,9-2.63,13.39a15,15,0,0,1-4.11,6.42,4.84,4.84,0,0,0-1.65,2.46c-.76,2.77,3.51,4,4.27,1.29Z" transform="translate(-108.9 -109.1)"/><path class="cls-12" d="M721,538.65a44.17,44.17,0,0,0,4.27,27.87c-1.2.68-2.9.4-3.12-1.33-.17-1.32-1.35-2.41-1.86-3.58a13,13,0,0,1-.88-3.82,47.74,47.74,0,0,1,.61-11.87c1-7.24,2.15-15.51-3.29-21.1-.35-.36-.73-.7-1.13-1-2.18-1.81.95-4.83,3.13-3.15a.47.47,0,0,1,.09.06A16.94,16.94,0,0,1,724,528.2,46.89,46.89,0,0,0,721,538.65Z" transform="translate(-108.9 -109.1)"/><path class="cls-12" d="M696,520.74c5.32-1,14.51-1.09,18.93,2.64,2.17,1.83,5.41-1.24,3.21-3.09-5.79-4.89-16.08-5.26-23.18-3.88-2.82.55-1.77,4.88,1,4.33Z" transform="translate(-108.9 -109.1)"/><path class="cls-12" d="M697.48,518.13c.36-7.89,16.48-5.51,15.23,2.47-.44,2.83,4,2.94,4.46.14C719.26,507.33,693.67,504,693,518c-.13,2.87,4.32,3,4.45.14Z" transform="translate(-108.9 -109.1)"/><path class="cls-12" d="M703.19,510.14A23.72,23.72,0,0,1,710,496.73l-3.49-.53A27,27,0,0,1,710,512c-.22,2.86,4.23,3,4.46.14a31.28,31.28,0,0,0-4.06-18.1,2.26,2.26,0,0,0-3.5-.53A28.83,28.83,0,0,0,698.73,510c-.42,2.84,4,3,4.46.15Z" transform="translate(-108.9 -109.1)"/></g></g></svg>